<?xml version="1.0" encoding="utf-8"?>
<!-- Generator: Adobe Illustrator 18.0.0, SVG Export Plug-In . SVG Version: 6.00 Build 0)  -->
<!DOCTYPE svg PUBLIC "-//W3C//DTD SVG 1.1//EN" "http://www.w3.org/Graphics/SVG/1.1/DTD/svg11.dtd">
<svg version="1.1" id="Layer_1" xmlns="http://www.w3.org/2000/svg" xmlns:xlink="http://www.w3.org/1999/xlink" x="0px" y="0px"
	 viewBox="0 0 128 128" enable-background="new 0 0 128 128" xml:space="preserve">
<g>
	<circle fill="#1E67AF" cx="64" cy="64" r="64"/>
	<path fill="#29509B" d="M95.4,38.8l-63.9,63.5l25.3,25.3c2.3,0.3,4.7,0.4,7.1,0.4c33,0,60.1-25,63.6-57L95.4,38.8z"/>
	<g>
		<path fill="#E5E8EC" d="M78,21.3H34.8c-2.2,0-4,1.8-4,4v74.6c0,2.2,1.8,4,4,4h56.7c2.2,0,4-1.8,4-4V38.8H82c-2.2,0-4-1.8-4-4V21.3
			z"/>
		<g>
			<path fill="#CED4DF" d="M79.3,37.7l16.1,16.1V38.8H82C81,38.8,80,38.4,79.3,37.7z"/>
			<path fill="#CED4DF" d="M79.1,37.5c0,0-0.1-0.1-0.1-0.1l0,0L79.1,37.5z"/>
		</g>
		<path fill="#22D2FC" d="M78,21.3v13.4c0,2.2,1.8,4,4,4h13.4L78,21.3z"/>
		<g>
			<path fill="#CED4DF" d="M84.5,92H41.7c-1,0-1.8,0.8-1.8,1.8s0.8,1.8,1.8,1.8h42.8c1,0,1.8-0.8,1.8-1.8S85.5,92,84.5,92z"/>
			<path fill="#CED4DF" d="M84.5,81.7H41.7c-1,0-1.8,0.8-1.8,1.8c0,1,0.8,1.8,1.8,1.8h42.8c1,0,1.8-0.8,1.8-1.8
				C86.3,82.5,85.5,81.7,84.5,81.7z"/>
			<path fill="#CED4DF" d="M84.5,71.4H41.7c-1,0-1.8,0.8-1.8,1.8l0,0c0,1,0.8,1.8,1.8,1.8h42.8c1,0,1.8-0.8,1.8-1.8l0,0
				C86.3,72.2,85.5,71.4,84.5,71.4z"/>
			<path fill="#CED4DF" d="M84.5,61.1H41.7c-1,0-1.8,0.8-1.8,1.8c0,1,0.8,1.8,1.8,1.8h42.8c1,0,1.8-0.8,1.8-1.8
				C86.3,61.9,85.5,61.1,84.5,61.1z"/>
			<path fill="#CED4DF" d="M41.7,54.4h42.8c1,0,1.8-0.8,1.8-1.8c0-1-0.8-1.8-1.8-1.8H41.7c-1,0-1.8,0.8-1.8,1.8
				C39.9,53.6,40.7,54.4,41.7,54.4z"/>
			<path fill="#CED4DF" d="M41.7,44.1h24.1c1,0,1.8-0.8,1.8-1.8c0-1-0.8-1.8-1.8-1.8H41.7c-1,0-1.8,0.8-1.8,1.8
				C39.9,43.3,40.7,44.1,41.7,44.1z"/>
		</g>
		<g>
			<circle fill="#EF4C45" cx="95.4" cy="74.6" r="14.6"/>
			<path fill="#FFFFFF" d="M105.5,74.6c0-1.2-1-2.1-2.1-2.1l-5.7,0v-5.8c0-1.2-1-2.1-2.1-2.1c-1.2,0-2.1,1-2.1,2.1v5.8l-5.8,0
				c-1.2,0-2.1,1-2.1,2.1l0,0c0,1.2,1,2.1,2.1,2.1l5.8,0v5.7c0,1.2,1,2.1,2.1,2.1c1.2,0,2.1-1,2.1-2.1v-5.7l5.8,0
				C104.5,76.7,105.5,75.8,105.5,74.6L105.5,74.6z"/>
		</g>
	</g>
</g>
</svg>
