<svg xmlns="http://www.w3.org/2000/svg" version="1.1" xmlns:xlink="http://www.w3.org/1999/xlink" xmlns:svgjs="http://svgjs.com/svgjs" width="512" height="512" x="0" y="0" viewBox="0 0 512.001 512.001" style="enable-background:new 0 0 512 512" xml:space="preserve" class=""><g>
<path style="" d="M391.501,256V143.534c0-3.979-1.58-7.794-4.394-10.606L258.575,4.394
	C255.762,1.58,251.947,0,247.969,0H15.001c-8.284,0-15,6.716-15,15v482c0,8.284,6.716,15,15,15h361.5c8.284,0,15-6.716,15-15
	s-6.716-15-15-15V271C384.786,271,391.501,264.284,391.501,256z" fill="#b8e9ff" data-original="#b8e9ff" class=""></path>
<path style="" d="M391.501,256V143.534c0-3.979-1.58-7.794-4.394-10.606L258.575,4.394
	C255.762,1.58,251.947,0,247.969,0h-52.218v512h180.75c8.284,0,15-6.716,15-15s-6.716-15-15-15V271
	C384.786,271,391.501,264.284,391.501,256z" fill="#8adbff" data-original="#8adbff" class=""></path>
<path style="" d="M387.108,132.927L258.575,4.394c-4.29-4.291-10.743-5.573-16.347-3.252
	c-5.605,2.322-9.26,7.791-9.26,13.858v128.533c0,8.284,6.716,15,15,15h128.533c6.066,0,11.537-3.654,13.858-9.26
	C392.681,143.669,391.398,137.217,387.108,132.927z" fill="#35cbff" data-original="#35cbff" class=""></path>
<path style="" d="M376.501,241.001c-74.715,0-135.5,60.785-135.5,135.5s60.785,135.5,135.5,135.5
	S512,451.215,512,376.501S451.216,241.001,376.501,241.001z" fill="#f28c28" data-original="#96cb52" class=""></path>
<path style="" d="M512,376.501c0-74.715-60.785-135.5-135.499-135.5v271C451.216,512.001,512,451.215,512,376.501z" fill="#f28c28" data-original="#47aa4b" class=""></path>
<path style="" d="M416.669,361.501h-25.168v-25.167c0-8.284-6.716-15-15-15s-15,6.716-15,15v25.167h-25.166
	c-8.284,0-15,6.716-15,15s6.716,15,15,15h25.166v25.167c0,8.284,6.716,15,15,15s15-6.716,15-15v-25.167h25.168
	c8.284,0,15-6.716,15-15C431.669,368.216,424.953,361.501,416.669,361.501z" fill="#ffffff" data-original="#ffffff"></path>
<path style="" d="M416.669,361.501h-25.168v-25.167c0-8.284-6.715-14.999-14.999-15v110.334
	c8.284-0.001,14.999-6.716,14.999-15v-25.167h25.168c8.284,0,15-6.716,15-15C431.669,368.216,424.953,361.501,416.669,361.501z" fill="#b8e9ff" data-original="#b8e9ff" class=""></path>
<g>
</g>
<g>
</g>
<g>
</g>
<g>
</g>
<g>
</g>
<g>
</g>
<g>
</g>
<g>
</g>
<g>
</g>
<g>
</g>
<g>
</g>
<g>
</g>
<g>
</g>
<g>
</g>
<g>
</g>
</g></svg>