<?xml version="1.0" encoding="iso-8859-1"?>
<!-- Generator: Adobe Illustrator 21.0.0, SVG Export Plug-In . SVG Version: 6.00 Build 0)  -->
<svg xmlns="http://www.w3.org/2000/svg" xmlns:xlink="http://www.w3.org/1999/xlink" version="1.1" id="Capa_1" x="0px" y="0px" viewBox="0 0 512 512" style="enable-background:new 0 0 512 512;" xml:space="preserve" width="512" height="512">
<g>
	<g>
		<path style="fill:#5D5E69;" d="M356.528,74.699c-2.965,0-5.78-1.753-6.991-4.661c-0.05-0.117-6.043-14.013-20.692-27.638    c-19.446-18.088-44.295-27.259-73.854-27.259c-70.74,0-92.087,52.209-92.294,52.737c-1.53,3.891-5.924,5.805-9.816,4.275    c-3.891-1.53-5.805-5.925-4.275-9.816c0.256-0.652,6.463-16.135,22.752-31.504C186.265,16.767,212.875,0,254.991,0    c42.114,0,69.321,17.314,84.729,31.84c16.775,15.814,23.514,31.706,23.793,32.375c1.609,3.859-0.217,8.292-4.076,9.9    C358.486,74.511,357.499,74.699,356.528,74.699z"/>
	</g>
	<path style="fill:#EFAC6C;" d="M472.497,512H39.503c-18.967,0-34.344-15.376-34.344-34.344V98.946   c0-18.967,15.376-34.344,34.344-34.344h432.995c18.967,0,34.344,15.376,34.344,34.344v378.71   C506.841,496.624,491.465,512,472.497,512z"/>
	<path style="fill:#E3984F;" d="M472.497,64.603H441.71c18.968,0,34.344,15.376,34.344,34.344v378.71   c0,18.967-15.376,34.343-34.344,34.343h30.787c18.968,0,34.344-15.376,34.344-34.343V98.947   C506.841,79.979,491.465,64.603,472.497,64.603z"/>
	<path style="fill:#FEEC96;" d="M454.264,217.025H57.736c-9.525,0-17.247-7.722-17.247-17.247v-80.58   c0-9.525,7.722-17.247,17.247-17.247h396.529c9.525,0,17.247,7.722,17.247,17.247v80.58   C471.511,209.304,463.789,217.025,454.264,217.025z"/>
	<path style="fill:#5D5E69;" d="M454.264,474.427H57.736c-9.525,0-17.247-7.722-17.247-17.247V263.545   c0-9.525,7.722-17.247,17.247-17.247h396.529c9.525,0,17.247,7.722,17.247,17.247V457.18   C471.511,466.706,463.789,474.427,454.264,474.427z"/>
	<path style="fill:#F9CA64;" d="M148.645,186.743H84.755c-2.985,0-5.404-2.419-5.404-5.404v-43.701c0-2.985,2.419-5.404,5.404-5.404   h63.889c2.985,0,5.404,2.419,5.404,5.404v43.701C154.049,184.323,151.629,186.743,148.645,186.743z"/>
	<g>
		<g>
			<path style="fill:#857E87;" d="M429.62,147.375h-84.791c-4.182,0-7.571-3.39-7.571-7.571s3.389-7.571,7.571-7.571h84.791     c4.182,0,7.571,3.39,7.571,7.571S433.802,147.375,429.62,147.375z"/>
		</g>
		<g>
			<path style="fill:#857E87;" d="M429.62,186.743h-43.405c-4.182,0-7.571-3.39-7.571-7.571s3.389-7.571,7.571-7.571h43.405     c4.182,0,7.571,3.39,7.571,7.571S433.802,186.743,429.62,186.743z"/>
		</g>
	</g>
	<ellipse style="fill:#F97B6B;" cx="214.609" cy="159.488" rx="21.735" ry="21.252"/>
	<ellipse style="fill:#2CA0C4;" cx="289.848" cy="159.488" rx="21.735" ry="21.252"/>
	<g>
		<polygon style="fill:#484854;" points="103.975,246.298 40.489,309.784 40.489,331.197 125.388,246.298   "/>
		<polygon style="fill:#484854;" points="166.559,246.298 40.489,372.368 40.489,393.781 187.972,246.298   "/>
		<polygon style="fill:#484854;" points="229.143,246.298 40.489,434.953 40.489,456.365 250.556,246.298   "/>
		<polygon style="fill:#484854;" points="291.727,246.298 63.598,474.427 85.011,474.427 313.14,246.298   "/>
		<polygon style="fill:#484854;" points="354.311,246.298 126.182,474.427 147.595,474.427 375.724,246.298   "/>
		<polygon style="fill:#484854;" points="416.895,246.298 188.766,474.427 210.179,474.427 438.308,246.298   "/>
		<path style="fill:#484854;" d="M471.511,263.545c0-2.704-0.64-5.253-1.749-7.53L251.35,474.427h21.413L471.511,275.68V263.545z"/>
		<polygon style="fill:#484854;" points="471.511,316.85 313.934,474.427 335.347,474.427 471.511,338.264   "/>
		<polygon style="fill:#484854;" points="397.931,474.427 471.511,400.848 471.511,379.434 376.518,474.427   "/>
	</g>
</g>















</svg>
