<svg id="Layer_1" height="512" viewBox="0 0 110 110" width="512" xmlns="http://www.w3.org/2000/svg" data-name="Layer 1"><path d="m94 7a1 1 0 0 0 -1-1h-67.65a9.35 9.35 0 0 0 -9.35 9.34v79.28a9.13 9.13 0 0 0 .11 1.43c0 .16.05.32.08.46a9.37 9.37 0 0 0 4.7 6.35h.08l.72.35h.09a10.91 10.91 0 0 0 1.22.41h.09c.27.07.54.12.85.17a10.78 10.78 0 0 0 1.44.11h67.62a1 1 0 0 0 .9-.56 1 1 0 0 0 -.11-1c-4.06-5.22-4.06-10.3 0-15.52a1.18 1.18 0 0 0 .11-.19s0 0 0 0a.83.83 0 0 0 .1-.33s0 0 0 0zm-2 78.26h-62v-77.26h33.66v21.32a1 1 0 0 0 1.54.84l7.22-4.62 7.23 4.62a.94.94 0 0 0 .53.16 1 1 0 0 0 1-1v-21.32h10.82zm-12.82-77.26v19.5l-6.22-4a1 1 0 0 0 -1.08 0l-6.22 4v-19.5zm-61.18 7.34a7.35 7.35 0 0 1 7.35-7.34h2.65v77.26h-2.6a9 9 0 0 0 -1.05.06h-.21c-.27 0-.55.09-.82.15h-.18a8.52 8.52 0 0 0 -.86.26h-.09a9.36 9.36 0 0 0 -4.14 3zm71.42 75.31h-54.36a1 1 0 0 0 0 2h53.84a12 12 0 0 0 0 4h-41.71a1 1 0 0 0 0 2h42.23a16 16 0 0 0 1.65 3.35h-65.69a9.12 9.12 0 0 1 -1.14-.08q-.36-.06-.72-.15h-.06a6.36 6.36 0 0 1 -1-.33h-.05c-.2-.1-.4-.19-.59-.3h-.07a7.37 7.37 0 0 1 -3.64-5 3.29 3.29 0 0 1 -.07-.36 7.55 7.55 0 0 1 -.04-1.16 5 5 0 0 1 0-.62c0-.2 0-.4.08-.59a.5.5 0 0 0 0-.12c0-.19.08-.37.13-.55a1 1 0 0 1 0-.14q.07-.27.18-.54v-.1a5.62 5.62 0 0 1 .25-.56v-.05a7.49 7.49 0 0 1 4.52-3.76c.21-.06.41-.11.62-.15h.22l.47-.07q.35 0 .72 0h65.88a15.78 15.78 0 0 0 -1.65 3.28zm-6.42-23.8a1 1 0 0 1 -1 1h-44.27a1 1 0 1 1 0-2h44.27a1 1 0 0 1 1 1zm-48.94 30.76a1 1 0 0 1 1-1h6.73a1 1 0 1 1 0 2h-6.73a1 1 0 0 1 -1-1zm48.94-23.15a1 1 0 0 1 -1 1h-3.1a1 1 0 0 1 0-2h3.1a1 1 0 0 1 1 1zm-9.27 0a1 1 0 0 1 -1 1h-35a1 1 0 0 1 0-2h35a1 1 0 0 1 .96 1zm4.8-39.78h-37.34a4.47 4.47 0 0 0 -4.46 4.46v16a4.47 4.47 0 0 0 4.46 4.46h37.3a4.46 4.46 0 0 0 4.51-4.51v-16a4.46 4.46 0 0 0 -4.51-4.41zm2.47 20.41a2.46 2.46 0 0 1 -2.46 2.46h-37.35a2.46 2.46 0 0 1 -2.46-2.46v-16a2.47 2.47 0 0 1 2.46-2.46h37.3a2.46 2.46 0 0 1 2.51 2.51zm-10.55-11a1 1 0 0 1 -1 1h-20.87a1 1 0 0 1 0-2h20.82a1 1 0 0 1 1 .99zm-6.51 7a1 1 0 0 1 -1 1h-2.8a1 1 0 0 1 0-2h2.8a1 1 0 0 1 .95 1.03zm-7.61 0a1 1 0 0 1 -1 1h-6.7a1 1 0 0 1 0-2h6.7a1 1 0 0 1 .95 1.03z"/></svg>