<svg id="Layer_1" height="512" viewBox="0 0 200 200" width="512" xmlns="http://www.w3.org/2000/svg" data-name="Layer 1"><path d="m175.17 94.31s6.08 31.44-16.1 71.1a3.16 3.16 0 0 0 .3-1l7.16-45.8a61.61 61.61 0 0 0 1-24.34z" fill="#efa022"/><path d="m175.17 94.31h-7.65c-5-32-33.3-56.56-67.46-56.56s-62.48 24.53-67.45 56.54h-7.61c0-40.49 33.57-73.29 75.06-73.29s75.11 32.81 75.11 73.31z" fill="#0f2a59"/><path d="m157.93 103.92 8.6 14.73-7.16 45.8a3.16 3.16 0 0 1 -.3 1c0 .1-.11.19-.16.28a3.34 3.34 0 0 1 -1 1l-18.53 11.84a3.07 3.07 0 0 1 -1.2.45l19-75.92a3 3 0 0 1 .75.82z" fill="#e54c29"/><path d="m157.18 103.05-19 75.92a3.27 3.27 0 0 1 -1.55-.1l-11.38-3.7a9 9 0 0 1 -6-10.44l12.21-55.53a12.15 12.15 0 0 1 14.87-9.2l9.6 2.4a3 3 0 0 1 1.25.65z" fill="#0b2347"/><path d="m80.67 164.73a9 9 0 0 1 -6 10.44l-11.38 3.7a3.27 3.27 0 0 1 -1.55.1l-19-75.92a3 3 0 0 1 1.23-.63l9.6-2.4a12.16 12.16 0 0 1 14.85 9.18z" fill="#0f2a59"/><path d="m42.78 103.05 19 75.92a3.07 3.07 0 0 1 -1.2-.45l-19.08-12.18a2.78 2.78 0 0 1 -.73-.64l-7.35-47 8.58-14.78a3.37 3.37 0 0 1 .78-.87z" fill="#ec5c33"/><path d="m33.42 118.65 7.35 47a3 3 0 0 1 -.39-.54c-21.87-39.39-15.38-70.8-15.38-70.8h7.65a66.76 66.76 0 0 0 -.77 10.07 64.92 64.92 0 0 0 1.54 14.27z" fill="#ff9c00"/><path d="m101.6 21v16.78c33.47.73 61 25 65.92 56.53h7.65c0-39.99-32.81-72.49-73.57-73.31z" fill="#0b2347"/></svg>