<svg id="Capa_1" enable-background="new 0 0 512 512" height="512" viewBox="0 0 512 512" width="512" xmlns="http://www.w3.org/2000/svg"><g><path d="m478.599 457.098h-445.198v-276.289c0-16.105 13.055-29.16 29.16-29.16h386.877c16.105 0 29.16 13.055 29.16 29.16v276.289z" fill="#756e78"/><path d="m163.491 319.826h185.019c20.943 0 37.981-17.038 37.981-37.982v-130.195h-260.982v130.195c0 20.944 17.038 37.982 37.982 37.982z" fill="#665e66"/><path d="m449.439 151.649h-17.239c16.105 0 29.16 13.055 29.16 29.16v237.467c0 12.722-10.313 23.035-23.035 23.035h-404.924v15.786h427.959 17.239v-15.786-260.502c0-16.104-13.056-29.16-29.16-29.16z" fill="#665e66"/><path d="m65.794 417.973v-227.199c0-2.833 2.296-5.129 5.129-5.129h370.155c2.833 0 5.129 2.296 5.129 5.129v227.199c0 2.833-2.296 5.129-5.129 5.129h-370.155c-2.833-.001-5.129-2.297-5.129-5.129z" fill="#b1e4f9"/><path d="m441.077 185.645h-15.979c2.833 0 5.129 2.296 5.129 5.129v227.199c0 2.832-2.296 5.129-5.129 5.129h15.979c2.833 0 5.129-2.296 5.129-5.129v-227.199c0-2.833-2.296-5.129-5.129-5.129z" fill="#90d8f9"/><path d="m125.509 185.645v96.199c0 20.944 17.038 37.982 37.981 37.982h185.02c20.943 0 37.981-17.038 37.981-37.982v-96.199z" fill="#90d8f9"/><path d="m500.479 512h-488.958c-6.363 0-11.521-5.158-11.521-11.521v-31.859c0-6.363 5.158-11.521 11.521-11.521h488.295c6.729 0 12.184 5.455 12.184 12.184v31.197c0 6.362-5.158 11.52-11.521 11.52z" fill="#756e78"/><path d="m499.816 457.098h-16.664c6.729 0 12.184 5.455 12.184 12.184v31.197c0 6.363-5.158 11.521-11.521 11.521h16.664c6.363 0 11.521-5.158 11.521-11.521v-31.197c0-6.73-5.455-12.184-12.184-12.184z" fill="#665e66"/><path d="m293.813 484.549h-75.626c-4.1 0-7.776-2.527-9.244-6.356l-8.09-21.095h110.295l-8.09 21.095c-1.469 3.828-5.145 6.356-9.245 6.356z" fill="#f9f6f6"/><path d="m348.509 304.373h-185.018c-12.442 0-22.529-10.087-22.529-22.529v-259.315c0-12.442 10.086-22.529 22.529-22.529h185.019c12.442 0 22.529 10.087 22.529 22.529v259.315c-.001 12.443-10.087 22.529-22.53 22.529z" fill="#f9f6f6"/><path d="m348.509 0h-20.717c12.442 0 22.529 10.087 22.529 22.529v259.315c0 12.442-10.087 22.529-22.529 22.529h20.717c12.442 0 22.529-10.087 22.529-22.529v-259.315c0-12.442-10.086-22.529-22.529-22.529z" fill="#efe7e4"/><path d="m371.038 57.367h-230.076v-34.838c0-12.442 10.086-22.529 22.529-22.529h185.019c12.442 0 22.529 10.087 22.529 22.529v34.838z" fill="#4a81f6"/><path d="m348.509 0h-20.717c12.442 0 22.529 10.087 22.529 22.529v34.839h20.717v-34.839c0-12.442-10.086-22.529-22.529-22.529z" fill="#4070f6"/><g><g><path d="m322.374 117.727h-132.748c-4.267 0-7.726-3.459-7.726-7.726s3.459-7.726 7.726-7.726h132.747c4.268 0 7.726 3.459 7.726 7.726s-3.458 7.726-7.725 7.726z" fill="#544f57"/></g><g><path d="m322.374 164.902h-132.748c-4.267 0-7.726-3.459-7.726-7.726s3.459-7.726 7.726-7.726h132.747c4.268 0 7.726 3.459 7.726 7.726s-3.458 7.726-7.725 7.726z" fill="#544f57"/></g><g><path d="m322.374 212.077h-132.748c-4.267 0-7.726-3.459-7.726-7.726s3.459-7.726 7.726-7.726h132.747c4.268 0 7.726 3.459 7.726 7.726s-3.458 7.726-7.725 7.726z" fill="#544f57"/></g><g><path d="m322.374 259.251h-132.748c-4.267 0-7.726-3.459-7.726-7.726s3.459-7.726 7.726-7.726h132.747c4.268 0 7.726 3.459 7.726 7.726s-3.458 7.726-7.725 7.726z" fill="#544f57"/></g></g></g></svg>