<svg xmlns="http://www.w3.org/2000/svg" version="1.1" xmlns:xlink="http://www.w3.org/1999/xlink" xmlns:svgjs="http://svgjs.com/svgjs" width="512" height="512" x="0" y="0" viewBox="0 0 32 32" style="enable-background:new 0 0 512 512" xml:space="preserve" class=""><g><path fill="#ffffff" d="M16 1.1C7.784 1.1 1.1 7.784 1.1 16S7.784 30.9 16 30.9 30.9 24.216 30.9 16 24.216 1.1 16 1.1zm0 28C8.777 29.1 2.9 23.223 2.9 16S8.777 2.9 16 2.9 29.1 8.777 29.1 16 23.223 29.1 16 29.1z" data-original="#687274" class=""></path><g fill="#ffc839"><path d="M19.604 15.171 16.9 18.176V8.354a.9.9 0 0 0-1.8 0v9.822l-2.705-3.005a.9.9 0 1 0-1.338 1.204l4.273 4.748a.903.903 0 0 0 1.338 0l4.273-4.748a.9.9 0 1 0-1.337-1.204zM19.205 22.746h-6.41a.9.9 0 0 0 0 1.8h6.41a.9.9 0 0 0 0-1.8z" fill="#ffffff" data-original="#ffc839" class=""></path></g></g></svg>