<?xml version="1.0" encoding="UTF-8"?><svg id="Layer_2" xmlns="http://www.w3.org/2000/svg" viewBox="0 0 128.74 119.15"><defs><style>.cls-1{fill:#fd6a5e;}.cls-2{fill:#091223;opacity:.09;}.cls-3{fill:#d84b44;}</style></defs><g id="Layer_3"><path class="cls-1" d="m110.35,0H18.39C8.23,0,0,8.23,0,18.39v64.57c0,10.16,8.23,18.39,18.39,18.39h43.2c6.23,2.38,21.42,17.71,25.57,17.8,4.11.1-1.08-14.48,2.05-17.22.25-.22.57-.42.93-.59h20.2c10.16,0,18.39-8.23,18.39-18.39V18.39c0-10.16-8.23-18.39-18.39-18.39Z"/><path class="cls-3" d="m113.48,43.02H19.17c-1.93,0-3.5-1.57-3.5-3.5s1.57-3.5,3.5-3.5h94.3c1.93,0,3.5,1.57,3.5,3.5s-1.57,3.5-3.5,3.5Z"/><path class="cls-3" d="m113.48,60.02H19.17c-1.93,0-3.5-1.57-3.5-3.5s1.57-3.5,3.5-3.5h94.3c1.93,0,3.5,1.57,3.5,3.5s-1.57,3.5-3.5,3.5Z"/><path class="cls-3" d="m96.52,76.02H19.17c-1.93,0-3.5-1.57-3.5-3.5s1.57-3.5,3.5-3.5h77.35c1.93,0,3.5,1.57,3.5,3.5s-1.57,3.5-3.5,3.5Z"/><path class="cls-3" d="m63.13,27.02H19.17c-1.93,0-3.5-1.57-3.5-3.5s1.57-3.5,3.5-3.5h43.96c1.93,0,3.5,1.57,3.5,3.5s-1.57,3.5-3.5,3.5Z"/><path class="cls-2" d="m18.39,101.35h43.2c6.23,2.38,21.42,17.71,25.57,17.8,4.11.1-1.08-14.48,2.05-17.22.25-.22.57-.42.93-.59h20.2c10.16,0,18.39-8.23,18.39-18.39V18.39s-22.3,38.54-45.78,54.2c-23.48,15.65-64.57,28.76-64.57,28.76Z"/></g></svg>