<svg id="Capa_1" enable-background="new 0 0 512 512" height="512" viewBox="0 0 512 512" width="512" xmlns="http://www.w3.org/2000/svg"><g><g><g><g><g><g><g><path d="m3.665 299.406c-2.41-14.108-3.665-28.61-3.665-43.406 0-141.385 114.615-256 256-256s256 114.615 256 256-114.615 256-256 256c-77.426 0-146.823-34.372-193.766-88.69z" fill="#ff6c52"/></g></g></g></g></g></g><path d="m512 256c0-4.627-.123-9.225-.365-13.792l-99.965-99.965-1.728 2.503-56.103-56.103-105.107 18.815-86.207 220.591-66.049-66.049-34.242 161.311 26.457 26.457c44.87 38.777 103.351 62.232 167.309 62.232 141.385 0 256-114.615 256-256z" fill="#f92814"/><g><g><path d="m353.839 180.828h-121.129v-92.185h121.129zm-91.129-30h61.129v-32.185h-61.129z" fill="#555a66"/></g><g><path d="m353.839 88.643h-60.369v30h30.369v32.185h-30.369v30h60.369z" fill="#333940"/></g><g><path d="m174.879 209.626h236.79v110.917h-236.79z" fill="#555a66"/></g><g><path d="m293.47 209.626h118.199v110.917h-118.199z" fill="#333940"/></g><g><path d="m174.879 142.243h236.79v116.694h-236.79z" fill="#414952"/></g><g><path d="m293.47 142.243h118.199v116.694h-118.199z" fill="#23272b"/></g><g><g><path d="m207.898 245.318h36.792v35.849h-36.792z" fill="#7e8596"/></g><g><path d="m341.859 245.318h36.792v35.849h-36.792z" fill="#636978"/></g></g></g><g><path d="m440.691 304.085c-8.001-12.855-25.011-16.611-37.681-8.32l-94.092 58.812-66.361-36.787 73.631-19.773c9.606-4.789 14.477-15.711 11.621-26.061-2.993-10.845-13.551-17.797-24.692-16.26l-94.272 2.693c-12.641.361-25.199 2.172-37.427 5.397l-110.067 29.008 39.557 86.116c25.388-11.064 45.676-19.895 45.676-19.895l122.245 46.155c21.569 8.067 45.722 5.047 64.64-8.083l114.181-81.46z" fill="#ffdecf"/></g><g fill="#ffbeaa"><path d="m316.188 298.018c9.606-4.789 14.477-15.711 11.621-26.061-2.993-10.845-13.551-17.797-24.692-16.26l-9.646.275v48.146z"/><path d="m440.691 304.085c-8.001-12.855-25.011-16.611-37.681-8.32l-94.092 58.812-15.448-8.563v63.602c14.107-.009 28.091-4.264 40-12.529l114.181-81.46z"/></g><g><path d="m3.665 299.404c8.007 46.882 28.761 89.415 58.57 123.906 14.919-6.508 30.071-13.114 44.084-19.221l-53.979-117.512z" fill="#e9edf5"/></g><g><path d="m96.476 262 53.926 129.985-70.846 29.973-57.827-133.194z" fill="#fff"/></g><g><ellipse cx="101.992" cy="375.924" fill="#dce1eb" rx="15.926" ry="15.926" transform="matrix(.23 -.973 .973 .23 -287.309 388.818)"/></g></g></svg>