<?xml version="1.0" encoding="UTF-8"?>
<!-- Generator: Adobe Illustrator 25.4.1, SVG Export Plug-In . SVG Version: 6.00 Build 0)  -->
<svg xmlns="http://www.w3.org/2000/svg" xmlns:xlink="http://www.w3.org/1999/xlink" version="1.1" id="Capa_1" x="0px" y="0px" viewBox="0 0 452.615 452.615" style="enable-background:new 0 0 452.615 452.615;" xml:space="preserve" width="512" height="512">
<g>
	<g>
		<path d="M81.313,452.615H16.617c-0.693-0.001-1.387-0.053-2.068-0.152c-7.792-1.147-13.209-8.386-12.131-16.171l4.723-53.183    c0.083-0.936,0.492-1.812,1.156-2.475l142.845-142.856l-6.643-6.668c-0.011-0.011-0.077-0.077-0.087-0.089    c-3.023-3.041-4.696-7.117-4.683-11.446c0.014-4.33,1.713-8.394,4.784-11.445l22.042-22.039    c-15.188-51.078-1.329-105.937,36.469-143.705C230.38,15.052,266.738,0,305.407,0c0.019,0,0.037,0,0.057,0    c38.69,0.015,75.059,15.095,102.406,42.464c0.072,0.072,0.142,0.146,0.207,0.223c38.069,38.23,51.714,93.931,35.607,145.441    c-11.547,36.93-36.785,67.154-71.063,85.102c-33.56,17.57-71.854,21.318-108.1,10.633l-22.152,22.152    c-6.349,6.305-16.663,6.305-23.002,0.011l-9.368-9.398l-12.149,12.344l2.826,15.427c0.237,1.292-0.176,2.618-1.104,3.548    l-25.14,25.168c-1.015,1.017-2.497,1.414-3.885,1.031l-13.838-3.782l-7.945,8.057l1.917,24.463    c0.091,1.166-0.332,2.313-1.159,3.141l-11.9,11.9c-0.869,0.87-2.093,1.291-3.31,1.143l-22.023-2.666L98.67,410.023l-1.157,26.521    c-0.043,0.998-0.458,1.943-1.163,2.65l-12.204,12.244C83.395,452.192,82.376,452.615,81.313,452.615z M14.981,385.264    l-4.604,51.841c-0.007,0.077-0.016,0.153-0.027,0.229c-0.511,3.468,1.895,6.704,5.362,7.215c0.301,0.044,0.609,0.066,0.912,0.067    h63.027l9.936-9.969l1.157-26.525c0.043-1,0.46-1.946,1.167-2.654l16.096-16.1c0.868-0.869,2.085-1.294,3.31-1.143l22.023,2.666    l9.22-9.221l-1.916-24.446c-0.091-1.156,0.325-2.295,1.14-3.121l10.872-11.023c1.016-1.03,2.509-1.434,3.903-1.05l13.854,3.786    l22.015-22.039l-2.822-15.408c-0.235-1.282,0.169-2.598,1.083-3.526l16.44-16.704c0.749-0.761,1.771-1.191,2.838-1.194    c0.004,0,0.009,0,0.013,0c1.063,0,2.083,0.423,2.833,1.176l12.204,12.244c3.216,3.193,8.475,3.194,11.705-0.015l23.838-23.838    c1.053-1.052,2.604-1.435,4.021-0.989c34.895,10.908,71.942,7.578,104.328-9.378c32.386-16.958,56.229-45.512,67.14-80.403    c15.243-48.751,2.278-101.478-33.834-137.602c-0.07-0.071-0.139-0.144-0.203-0.22C376.198,22.188,341.921,8.014,305.461,8    c-0.016,0-0.038,0-0.054,0c-36.536,0-70.882,14.219-96.728,40.045c-36.254,36.226-49.198,89.093-33.78,137.971    c0.449,1.422,0.069,2.977-0.986,4.032l-23.752,23.748c-1.564,1.554-2.424,3.612-2.432,5.805c-0.007,2.192,0.84,4.256,2.386,5.812    l9.512,9.548c1.557,1.563,1.554,4.092-0.005,5.651L14.981,385.264z M358.827,123.842c-8.3,0-16.598-3.159-22.915-9.479    c-6.118-6.121-9.487-14.258-9.485-22.912s3.374-16.79,9.495-22.908c6.119-6.116,14.254-9.485,22.905-9.485    c0.003,0,0.004,0,0.007,0c8.654,0.002,16.79,3.374,22.908,9.495c0.012,0.012,0.023,0.024,0.036,0.037    c12.592,12.636,12.573,33.17-0.045,45.784l0,0C375.418,120.685,367.121,123.842,358.827,123.842z M358.827,67.057    c-6.516,0-12.641,2.537-17.249,7.143c-4.61,4.608-7.149,10.734-7.151,17.252c-0.001,6.517,2.536,12.645,7.144,17.255    c9.513,9.516,24.992,9.519,34.507,0.007c9.506-9.502,9.517-24.974,0.023-34.489c-0.013-0.013-0.026-0.026-0.039-0.04    c-4.633-4.606-10.737-7.126-17.229-7.127C358.831,67.057,358.829,67.057,358.827,67.057z M378.905,111.543h0.01H378.905z"/>
	</g>
</g>















</svg>
