<?xml version="1.0" encoding="iso-8859-1"?>
<!-- Generator: Adobe Illustrator 19.0.0, SVG Export Plug-In . SVG Version: 6.00 Build 0)  -->
<svg version="1.1" id="Capa_1" xmlns="http://www.w3.org/2000/svg" xmlns:xlink="http://www.w3.org/1999/xlink" x="0px" y="0px"
	 viewBox="0 0 512 512" style="enable-background:new 0 0 512 512;" xml:space="preserve">
<circle style="fill:#FF4F19;" cx="256" cy="256" r="256"/>
<path style="fill:#CA1E00;" d="M512,256c0,141.38-114.62,256-256,256c-27.28,0-53.56-4.27-78.22-12.18L65.68,388.04
	c-3.41-3.34-5.53-8-5.53-13.12v-23.36h26.32c-3.46-3.07-5.66-7.53-5.66-12.49V118.3c0-9.2,7.52-16.72,16.71-16.72h316.96
	c4.9,0,9.32,2.15,12.38,5.54L501,181.56C508.15,205.11,512,230.11,512,256z"/>
<path style="fill:#FFFFFF;" d="M414.477,355.786H97.523c-9.192,0-16.712-7.521-16.712-16.712V118.296
	c0-9.192,7.521-16.712,16.712-16.712h316.955c9.192,0,16.712,7.521,16.712,16.712v220.779
	C431.189,348.266,423.669,355.786,414.477,355.786z"/>
<path style="fill:#FFF5CB;" d="M431.19,118.293v220.78c0,4.95-2.18,9.42-5.64,12.48c-2.95,2.63-6.83,4.23-11.07,4.23H256v-254.2
	h158.48C423.67,101.583,431.19,109.103,431.19,118.293z"/>
<path style="fill:#00E8F2;" d="M433.436,393.333H78.564c-10.129,0-18.417-8.288-18.417-18.417v-23.359h391.706v23.359
	C451.853,385.046,443.566,393.333,433.436,393.333z"/>
<path style="fill:#00B7BE;" d="M451.85,351.553v23.36c0,10.13-8.28,18.42-18.41,18.42H256v-41.78L451.85,351.553L451.85,351.553z"/>
<rect x="100.74" y="121.86" style="fill:#6D76E7;" width="310.52" height="208.57"/>
<rect x="256" y="121.86" style="fill:#4B5BE5;" width="155.26" height="208.57"/>
<polygon style="fill:#6D76E7;" points="197.476,351.558 205.437,366.949 306.563,366.949 314.523,351.558 "/>
<polygon style="fill:#4B5BE5;" points="314.52,351.553 312.33,355.783 306.56,366.953 256,366.953 256,351.553 "/>
<g>
</g>
<g>
</g>
<g>
</g>
<g>
</g>
<g>
</g>
<g>
</g>
<g>
</g>
<g>
</g>
<g>
</g>
<g>
</g>
<g>
</g>
<g>
</g>
<g>
</g>
<g>
</g>
<g>
</g>
</svg>
