<?xml version="1.0" encoding="UTF-8" standalone="no"?>
<!-- Created with Inkscape (http://www.inkscape.org/) -->

<svg
   version="1.1"
   id="svg2"
   xml:space="preserve"
   width="442.39532"
   height="90.78019"
   viewBox="0 0 442.39533 90.78019"
   sodipodi:docname="dae58c841f86d064b82acf378574dc67.ai"
   xmlns:inkscape="http://www.inkscape.org/namespaces/inkscape"
   xmlns:sodipodi="http://sodipodi.sourceforge.net/DTD/sodipodi-0.dtd"
   xmlns="http://www.w3.org/2000/svg"
   xmlns:svg="http://www.w3.org/2000/svg"><defs
     id="defs6"><clipPath
       clipPathUnits="userSpaceOnUse"
       id="clipPath16"><path
         d="M 0,394.105 H 515.636 V 0 H 0 Z"
         id="path14" /></clipPath></defs><sodipodi:namedview
     id="namedview4"
     pagecolor="#ffffff"
     bordercolor="#666666"
     borderopacity="1.0"
     inkscape:pageshadow="2"
     inkscape:pageopacity="0.0"
     inkscape:pagecheckerboard="0" /><g
     id="g8"
     inkscape:groupmode="layer"
     inkscape:label="dae58c841f86d064b82acf378574dc67"
     transform="matrix(1.3333333,0,0,-1.3333333,-122.56013,308.12698)"><g
       id="g10"><g
         id="g12"
         clip-path="url(#clipPath16)"><g
           id="g18"
           transform="translate(120.0931,184.7979)"><path
             d="m 0,0 c 0.016,0.648 0.082,1.293 0.208,1.93 3.06,15.345 19.311,15.484 19.311,15.484 l -0.31,-0.253 c 1.016,0.167 2.061,0.253 3.125,0.253 6.305,0 11.914,-3.02 15.464,-7.687 v 20.245 c 0,1.567 -1.052,2.938 -2.566,3.342 l -48.105,12.897 c -1.583,0.424 -3.137,-0.767 -3.137,-2.403 v -52.67 c 0,-1.992 -1.615,-3.607 -3.607,-3.607 -1.992,0 -3.607,1.615 -3.607,3.607 v 47.713 l 5.198,2.95 -5.198,1.375 -1.879,0.497 c -1.551,0.41 -3.07,-0.759 -3.07,-2.363 V -5.975 -8.797 c 0,-4.676 3.791,-8.466 8.466,-8.466 h 3.697 1.135 3.193 6.865 l 6.641,6.7 C 0.102,-6.026 -0.049,-1.938 0,0"
             style="fill:#f28c28;fill-opacity:1;fill-rule:nonzero;stroke:none"
             id="path20" /></g><g
           id="g22"
           transform="translate(140.0901,181.1865)"><path
             d="M 0,0 -3.643,3.715 -6.265,1.145 -0.012,-5.233 10.576,5.468 7.965,8.05 Z"
             style="fill:#343a40;fill-opacity:1;fill-rule:nonzero;stroke:none"
             id="path24" /></g><g
           id="g26"
           transform="translate(142.4276,171.1211)"><path
             d="m 0,0 c -6.434,0 -11.669,5.234 -11.669,11.669 0,6.435 5.235,11.669 11.669,11.669 6.435,0 11.669,-5.234 11.669,-11.669 C 11.669,5.234 6.435,0 0,0 m 15.464,14.645 c -0.21,1.093 -0.53,2.149 -0.954,3.15 -0.199,0.471 -0.421,0.93 -0.664,1.376 -0.607,1.116 -1.344,2.15 -2.192,3.083 -0.848,0.933 -1.806,1.764 -2.853,2.472 -0.42,0.283 -0.853,0.546 -1.299,0.789 -0.446,0.243 -0.905,0.464 -1.377,0.664 -1.412,0.598 -2.93,0.996 -4.517,1.158 C 1.08,27.391 0.543,27.418 0,27.418 c -0.704,0 -1.397,-0.046 -2.077,-0.136 -1.019,-0.135 -2.008,-0.367 -2.958,-0.689 -0.948,-0.321 -1.858,-0.73 -2.716,-1.217 -0.287,-0.163 -0.567,-0.334 -0.842,-0.514 -0.549,-0.359 -1.075,-0.752 -1.574,-1.175 -0.999,-0.845 -1.891,-1.813 -2.653,-2.88 -0.19,-0.267 -0.372,-0.539 -0.546,-0.819 -1.31,-2.096 -2.142,-4.524 -2.338,-7.124 -0.015,-0.197 -0.026,-0.396 -0.033,-0.595 -0.008,-0.2 -0.012,-0.4 -0.012,-0.6 0,-0.658 0.041,-1.308 0.12,-1.945 0.079,-0.638 0.196,-1.264 0.35,-1.876 0.204,-0.816 0.472,-1.607 0.799,-2.368 0.49,-1.14 1.111,-2.211 1.844,-3.195 l -3.611,-3.611 -2.26,-2.26 -1.351,-1.351 3.174,-3.174 3.605,3.604 0.92,0.921 2.685,2.685 c 1.637,-1.236 3.521,-2.161 5.563,-2.685 C -2.66,-3.908 -1.35,-4.08 0,-4.08 c 0.543,0 1.08,0.027 1.608,0.081 0.789,0.081 1.561,0.22 2.311,0.413 0.379,0.097 0.753,0.208 1.122,0.333 0.367,0.124 0.73,0.262 1.084,0.413 0.472,0.199 0.931,0.421 1.377,0.664 0.446,0.242 0.879,0.506 1.299,0.789 1.047,0.709 2.005,1.54 2.853,2.473 0.848,0.933 1.585,1.968 2.192,3.083 0.243,0.446 0.465,0.905 0.664,1.376 0.424,1.001 0.744,2.056 0.954,3.149 0.185,0.964 0.286,1.958 0.286,2.975 0,1.018 -0.101,2.012 -0.286,2.976"
             style="fill:#343a40;fill-opacity:1;fill-rule:nonzero;stroke:none"
             id="path28" /></g><g
           id="g30"
           transform="translate(123.0062,182.79)"><path
             d="m 0,0 c 0,9.646 7.071,17.671 16.296,19.168 l 0.31,0.253 c 0,0 -16.251,-0.138 -19.311,-15.483 -0.127,-0.637 -0.192,-1.282 -0.208,-1.93 -0.049,-1.939 0.102,-6.027 1.824,-10.564 l -6.641,-6.699 h 3.454 l 6.41,6.409 C 0.73,-6.124 0,-3.117 0,0"
             style="fill:#b5691e;fill-opacity:1;fill-rule:nonzero;stroke:none"
             id="path32" /></g><g
           id="g34"
           transform="translate(204.0692,204.6807)"><path
             d="m 0,0 -10.613,-14.15 h -1.21 l -10.38,14.197 v -23.693 h -6.145 V 8.937 h 7.076 l 10.194,-14.01 10.194,14.01 h 7.03 V -23.646 H 0 Z"
             style="fill:#343a40;fill-opacity:1;fill-rule:nonzero;stroke:none"
             id="path36" /></g><g
           id="g38"
           transform="translate(220.452,192.5781)"><path
             d="m 0,0 c 0,-4.376 3.026,-6.982 6.796,-6.982 8.937,0 8.937,13.918 0,13.918 C 3.026,6.936 0,4.376 0,0 m 13.778,11.451 h 5.447 v -22.948 h -5.353 l -0.28,3.351 C 12.289,-10.845 8.705,-12.149 6.145,-12.195 -0.651,-12.242 -5.679,-8.053 -5.679,0 c 0,7.914 5.26,12.056 11.964,12.01 3.071,0 6.004,-1.443 7.307,-3.725 z"
             style="fill:#343a40;fill-opacity:1;fill-rule:nonzero;stroke:none"
             id="path40" /></g><g
           id="g42"
           transform="translate(261.3655,181.0811)"><path
             d="m 0,0 v 12.01 c 0,3.49 -1.908,6.144 -5.54,6.144 -3.49,0 -5.864,-2.933 -5.864,-6.424 V 0 h -5.633 v 22.995 h 5.074 l 0.373,-3.119 c 2.327,2.281 4.654,3.444 7.541,3.444 5.399,0 9.728,-4.049 9.728,-11.264 V 0 Z"
             style="fill:#343a40;fill-opacity:1;fill-rule:nonzero;stroke:none"
             id="path44" /></g><g
           id="g46"
           transform="translate(276.8187,204.0293)"><path
             d="m 0,0 v -12.01 c 0,-3.49 1.908,-6.143 5.539,-6.143 3.491,0 5.865,2.931 5.865,6.423 V 0 h 5.632 v -22.995 h -5.074 l -0.371,3.119 c -2.375,-2.328 -4.562,-3.445 -7.775,-3.445 -5.493,0 -9.496,4.143 -9.496,11.265 V 0 Z"
             style="fill:#343a40;fill-opacity:1;fill-rule:nonzero;stroke:none"
             id="path48" /></g><g
           id="g50"
           transform="translate(303.3021,192.5781)"><path
             d="m 0,0 c 0,-4.376 3.026,-6.982 6.797,-6.982 8.937,0 8.937,13.918 0,13.918 C 3.026,6.936 0,4.376 0,0 m 13.778,11.451 h 5.448 v -22.948 h -5.354 l -0.279,3.351 C 12.29,-10.845 8.706,-12.149 6.146,-12.195 -0.65,-12.242 -5.679,-8.053 -5.679,0 c 0,7.914 5.26,12.056 11.964,12.01 3.071,0 6.005,-1.443 7.308,-3.725 z"
             style="fill:#343a40;fill-opacity:1;fill-rule:nonzero;stroke:none"
             id="path52" /></g><path
           d="m 332.951,181.081 h -5.633 v 32.537 h 5.633 z"
           style="fill:#343a40;fill-opacity:1;fill-rule:nonzero;stroke:none"
           id="path54" /><g
           id="g56"
           transform="translate(352.9202,197.9316)"><path
             d="m 0,0 c -1.63,1.536 -3.491,2.047 -5.679,2.047 -2.7,0 -4.19,-0.838 -4.19,-2.28 0,-1.489 1.35,-2.328 4.282,-2.514 4.33,-0.279 9.823,-1.256 9.823,-7.354 0,-4.05 -3.305,-7.542 -9.869,-7.542 -3.631,0 -7.262,0.606 -10.613,4.097 l 2.793,4.05 c 1.629,-1.816 5.353,-3.165 7.914,-3.212 2.141,-0.047 4.143,1.071 4.143,2.747 0,1.582 -1.304,2.233 -4.562,2.42 -4.33,0.326 -9.496,1.908 -9.496,7.122 0,5.306 5.493,7.168 9.682,7.168 3.584,0 6.284,-0.699 8.937,-3.025 z"
             style="fill:#343a40;fill-opacity:1;fill-rule:nonzero;stroke:none"
             id="path58" /></g><g
           id="g60"
           transform="translate(367.348,213.665)"><path
             d="m 0,0 v -26.905 h 16.759 v -5.679 H -6.144 V 0 Z"
             style="fill:#f28c28;fill-opacity:1;fill-rule:nonzero;stroke:none"
             id="path62" /></g><path
           d="m 388.014,181.081 h 5.679 v 23.041 h -5.679 z m 6.191,29.418 c 0,-4.422 -6.703,-4.422 -6.703,0 0,4.423 6.703,4.423 6.703,0"
           style="fill:#f28c28;fill-opacity:1;fill-rule:nonzero;stroke:none"
           id="path64" /><g
           id="g66"
           transform="translate(404.8636,192.5781)"><path
             d="m 0,0 c 0,-4.143 3.071,-6.75 6.656,-6.75 3.631,0 6.518,2.747 6.518,6.75 0,4.143 -2.887,6.703 -6.518,6.703 C 3.071,6.703 0,4.003 0,0 M -0.373,21.04 V 8.333 c 1.351,2.374 5.121,3.677 7.541,3.677 6.704,0 11.685,-4.096 11.685,-12.01 0,-7.541 -5.075,-12.01 -11.825,-12.01 -2.792,0 -5.632,0.932 -7.401,3.678 l -0.371,-3.165 H -6.052 V 21.04 Z"
             style="fill:#f28c28;fill-opacity:1;fill-rule:nonzero;stroke:none"
             id="path68" /></g></g></g></g></svg>
