<?xml version="1.0" standalone="no"?>
<!DOCTYPE svg PUBLIC "-//W3C//DTD SVG 20010904//EN"
 "http://www.w3.org/TR/2001/REC-SVG-20010904/DTD/svg10.dtd">
<svg version="1.0" xmlns="http://www.w3.org/2000/svg"
 width="1280.000000pt" height="978.000000pt" viewBox="0 0 1280.000000 978.000000"
 preserveAspectRatio="xMidYMid meet">
<metadata>
Created by potrace 1.16, written by Peter Selinger 2001-2019
</metadata>
<g transform="translate(0.000000,978.000000) scale(0.100000,-0.100000)"
fill="#000000" stroke="none">
<path d="M4362 4898 l3 -403 70 0 70 0 3 288 c1 158 6 287 10 287 4 0 29 -30
56 -68 146 -200 202 -272 213 -272 6 0 26 19 45 43 18 23 36 47 41 52 4 6 46
62 93 125 47 63 90 117 95 118 5 2 9 -118 9 -287 l0 -291 59 0 c100 0 91 -41
91 411 l0 399 -87 0 -88 -1 -71 -97 c-39 -53 -94 -130 -123 -169 -29 -40 -56
-73 -61 -73 -7 0 -99 124 -213 286 l-38 54 -90 0 -89 0 2 -402z"/>
<path d="M8130 4901 c0 -254 4 -401 10 -403 5 -1 35 -1 65 0 l55 4 0 399 0
399 -65 0 -65 0 0 -399z"/>
<path d="M7610 5067 c-95 -21 -153 -67 -192 -152 -33 -73 -33 -221 1 -285 80
-154 285 -200 411 -93 l40 35 0 -36 0 -36 65 0 c64 0 65 0 66 28 0 15 1 141 2
280 l2 252 -67 0 -68 0 0 -37 0 -37 -27 26 c-60 56 -140 75 -233 55z m177
-137 c71 -43 98 -179 50 -250 -69 -104 -239 -96 -290 13 -31 64 -17 168 27
213 47 46 156 59 213 24z"/>
<path d="M8521 5064 c-151 -47 -192 -205 -74 -286 36 -24 66 -34 144 -47 109
-18 144 -37 134 -74 -12 -39 -43 -57 -101 -57 -57 0 -144 28 -175 56 -22 20
-19 22 -59 -37 l-30 -44 28 -23 c68 -58 99 -67 222 -67 100 0 121 3 157 22 60
33 87 75 91 148 3 50 0 66 -20 95 -31 47 -96 77 -193 89 -98 12 -115 18 -124
45 -12 30 -1 56 26 67 43 16 136 11 178 -11 l39 -20 33 38 c37 42 37 48 1 75
-56 42 -194 57 -277 31z"/>
<path d="M5517 5060 c-66 -20 -140 -93 -162 -160 -26 -80 -28 -125 -10 -206
16 -71 22 -82 70 -130 39 -39 66 -56 105 -68 105 -31 193 -16 256 45 l31 30 7
-35 7 -36 64 0 65 0 0 280 0 280 -70 0 c-38 0 -69 -3 -69 -7 1 -5 1 -21 0 -37
l-1 -28 -36 32 c-20 17 -47 36 -61 41 -30 11 -157 10 -196 -1z m201 -124 c138
-72 115 -293 -35 -326 -87 -20 -181 29 -202 107 -36 129 34 233 157 233 29 0
65 -6 80 -14z"/>
<path d="M6309 5057 c-20 -7 -52 -26 -71 -41 -38 -28 -48 -23 -48 25 0 17 -8
19 -60 19 l-60 0 0 -280 0 -280 65 0 65 0 0 157 c0 175 13 222 71 264 36 25
118 28 154 5 55 -36 60 -56 63 -248 l4 -178 70 0 70 0 -4 193 c-4 184 -5 194
-30 242 -44 85 -104 126 -192 131 -36 3 -76 -1 -97 -9z"/>
<path d="M6732 4868 c3 -192 3 -193 33 -253 44 -86 93 -119 190 -123 79 -4
131 13 181 60 l22 19 9 -38 9 -38 54 0 55 0 3 283 2 282 -65 0 -65 0 0 -154
c0 -88 -5 -167 -11 -187 -42 -126 -204 -147 -259 -35 -18 37 -20 62 -20 209
l0 167 -71 0 -71 0 4 -192z"/>
<path d="M3265 4966 c-133 -62 -203 -137 -256 -276 -24 -61 -18 -236 11 -334
l12 -39 -76 -75 c-42 -41 -75 -76 -74 -78 2 -2 19 1 38 5 48 11 174 137 165
166 -44 153 -47 254 -12 355 44 123 134 230 232 276 29 14 42 24 30 24 -11 0
-42 -11 -70 -24z"/>
<path d="M3408 4905 c-91 -34 -173 -109 -221 -200 -29 -56 -31 -67 -32 -165 0
-99 2 -109 33 -173 l34 -68 -84 -85 c-45 -47 -85 -87 -87 -90 -3 -2 13 -20 34
-40 l39 -35 85 86 c48 47 90 85 95 85 4 0 20 -9 35 -19 83 -59 247 -66 359
-16 87 39 169 128 201 219 20 56 23 80 19 154 -5 105 -39 180 -114 255 -76 75
-139 100 -259 104 -69 2 -112 -2 -137 -12z m260 -111 c102 -50 172 -177 157
-288 -9 -70 -36 -127 -82 -173 -56 -56 -105 -77 -195 -81 -65 -3 -85 0 -130
20 -107 49 -171 145 -172 258 -3 222 221 362 422 264z"/>
<path d="M3580 4595 c-52 -52 -97 -95 -100 -95 -3 0 -25 19 -48 42 l-43 42
-31 -31 -31 -31 74 -76 74 -76 130 130 130 130 -30 30 -30 30 -95 -95z"/>
</g>
</svg>
