<svg width="734" height="647" viewBox="0 0 734 647" fill="none" xmlns="http://www.w3.org/2000/svg">
<path d="M367.292 51.2417V41.2737" stroke="#48BD51" stroke-width="7.93333" stroke-miterlimit="10" stroke-linecap="round" stroke-linejoin="round"/>
<path d="M367.292 594.75V584.781" stroke="#48BD51" stroke-width="7.93333" stroke-miterlimit="10" stroke-linecap="round" stroke-linejoin="round"/>
<path d="M100.523 318.012H90.5532" stroke="#48BD51" stroke-width="7.93333" stroke-miterlimit="10" stroke-linecap="round" stroke-linejoin="round"/>
<path d="M677.839 318.012H634.062" stroke="#48BD51" stroke-width="7.93333" stroke-miterlimit="10" stroke-linecap="round" stroke-linejoin="round"/>
<path d="M178.657 129.377L171.608 122.328" stroke="#48BD51" stroke-width="7.93333" stroke-miterlimit="10" stroke-linecap="round" stroke-linejoin="round"/>
<path d="M575.157 525.877L555.925 506.645" stroke="#48BD51" stroke-width="7.93333" stroke-miterlimit="10" stroke-linecap="round" stroke-linejoin="round"/>
<path d="M178.657 506.646L139.389 545.914" stroke="#48BD51" stroke-width="7.93333" stroke-miterlimit="10" stroke-linecap="round" stroke-linejoin="round"/>
<path d="M602.707 82.5961L555.925 129.377" stroke="#48BD51" stroke-width="7.93333" stroke-miterlimit="10" stroke-linecap="round" stroke-linejoin="round"/>
<path d="M615.728 420.917L666.569 441.98" stroke="#2A3B95" stroke-width="7.93333" stroke-miterlimit="10" stroke-linecap="round" stroke-linejoin="round"/>
<path d="M30.4478 179.016L118.855 215.105" stroke="#2A3B95" stroke-width="7.93333" stroke-miterlimit="10" stroke-linecap="round" stroke-linejoin="round"/>
<path d="M470.197 69.5747L476.465 54.4453" stroke="#2A3B95" stroke-width="7.93333" stroke-miterlimit="10" stroke-linecap="round" stroke-linejoin="round"/>
<path d="M258.119 581.579L264.385 566.448" stroke="#2A3B95" stroke-width="7.93333" stroke-miterlimit="10" stroke-linecap="round" stroke-linejoin="round"/>
<path d="M615.728 215.105L630.859 208.839" stroke="#2A3B95" stroke-width="7.93333" stroke-miterlimit="10" stroke-linecap="round" stroke-linejoin="round"/>
<path d="M90.5532 433.215L118.855 420.918" stroke="#2A3B95" stroke-width="7.93333" stroke-miterlimit="10" stroke-linecap="round" stroke-linejoin="round"/>
<path d="M264.385 69.5747L245.828 26.2467" stroke="#2A3B95" stroke-width="7.93333" stroke-miterlimit="10" stroke-linecap="round" stroke-linejoin="round"/>
<path d="M495.017 626.055L470.197 566.448" stroke="#2A3B95" stroke-width="7.93333" stroke-miterlimit="10" stroke-linecap="round" stroke-linejoin="round"/>
<path d="M150.661 225.707C138.569 254.051 131.876 285.25 131.876 318.012C131.876 448.028 237.276 553.427 367.292 553.427C497.307 553.427 602.707 448.028 602.707 318.012C602.707 187.996 497.307 82.5963 367.292 82.5963C337.989 82.5963 309.937 87.9496 284.061 97.7323" stroke="#48BD51" stroke-width="7.93333" stroke-miterlimit="10" stroke-linecap="round" stroke-linejoin="round"/>
<path d="M261.807 107.495C238.349 119.271 217.133 134.854 198.965 153.431C183.588 169.156 170.397 187.027 159.883 206.552C158.917 208.344 157.975 210.15 157.056 211.97" stroke="#2A3B95" stroke-width="7.93333" stroke-miterlimit="10" stroke-linecap="round" stroke-linejoin="round" stroke-dasharray="2.35 21.17"/>
<path d="M562.284 400.384C572.993 375.067 578.916 347.231 578.916 318.012C578.916 201.136 484.168 106.388 367.292 106.388C250.416 106.388 155.668 201.136 155.668 318.012C155.668 434.888 250.416 529.635 367.292 529.635C396.259 529.635 423.867 523.815 449.009 513.28" stroke="#2A3B95" stroke-width="7.93333" stroke-miterlimit="10" stroke-linecap="round" stroke-linejoin="round"/>
<path d="M469.129 503.565C485.964 494.305 501.401 482.824 515.048 469.513C532.735 452.26 547.412 431.937 558.216 409.405" stroke="#48BD51" stroke-width="7.93333" stroke-miterlimit="10" stroke-linecap="round" stroke-linejoin="round" stroke-dasharray="2.35 21.17"/>
<path d="M158.799 96.3706C158.799 102.941 153.472 108.267 146.903 108.267C140.333 108.267 135.007 102.941 135.007 96.3706C135.007 89.8012 140.333 84.4746 146.903 84.4746C153.472 84.4746 158.799 89.8012 158.799 96.3706Z" stroke="#2A3B95" stroke-width="7.93333" stroke-miterlimit="10" stroke-linecap="round" stroke-linejoin="round"/>
<path d="M650.291 51.9174C650.291 61.2534 642.723 68.8228 633.385 68.8228C624.049 68.8228 616.48 61.2534 616.48 51.9174C616.48 42.5814 624.049 35.0121 633.385 35.0121C642.723 35.0121 650.291 42.5814 650.291 51.9174Z" stroke="#2A3B95" stroke-width="7.93333" stroke-miterlimit="10" stroke-linecap="round" stroke-linejoin="round"/>
<path d="M379.813 630.438C379.813 637.008 374.488 642.333 367.917 642.333C361.348 642.333 356.023 637.008 356.023 630.438C356.023 623.867 361.348 618.541 367.917 618.541C374.488 618.541 379.813 623.867 379.813 630.438Z" stroke="#2A3B95" stroke-width="7.93333" stroke-miterlimit="10" stroke-linecap="round" stroke-linejoin="round"/>
<path d="M68.0133 451.371C68.0133 460.708 60.4453 468.276 51.1093 468.276C41.7729 468.276 34.2041 460.708 34.2041 451.371C34.2041 442.035 41.7729 434.468 51.1093 434.468C60.4453 434.468 68.0133 442.035 68.0133 451.371Z" stroke="#48BD51" stroke-width="7.93333" stroke-miterlimit="10" stroke-linecap="round" stroke-linejoin="round"/>
<path d="M729.18 460.138C729.18 470.166 721.051 478.295 711.023 478.295C700.995 478.295 692.865 470.166 692.865 460.138C692.865 450.11 700.995 441.98 711.023 441.98C721.051 441.98 729.18 450.11 729.18 460.138Z" stroke="#48BD51" stroke-width="7.93333" stroke-miterlimit="10" stroke-linecap="round" stroke-linejoin="round"/>
<path d="M689.615 240.938L685.92 237.244" stroke="#2A3B95" stroke-width="7.93333" stroke-miterlimit="10" stroke-linecap="round" stroke-linejoin="round"/>
<path d="M719.161 270.485L715.469 266.792" stroke="#2A3B95" stroke-width="7.93333" stroke-miterlimit="10" stroke-linecap="round" stroke-linejoin="round"/>
<path d="M689.615 266.792L685.92 270.485" stroke="#2A3B95" stroke-width="7.93333" stroke-miterlimit="10" stroke-linecap="round" stroke-linejoin="round"/>
<path d="M719.161 237.244L715.469 240.938" stroke="#2A3B95" stroke-width="7.93333" stroke-miterlimit="10" stroke-linecap="round" stroke-linejoin="round"/>
<path d="M583.392 587.331L580.736 584.675" stroke="#48BD51" stroke-width="7.93333" stroke-miterlimit="10" stroke-linecap="round" stroke-linejoin="round"/>
<path d="M604.641 608.582L601.985 605.924" stroke="#48BD51" stroke-width="7.93333" stroke-miterlimit="10" stroke-linecap="round" stroke-linejoin="round"/>
<path d="M583.392 605.924L580.736 608.582" stroke="#48BD51" stroke-width="7.93333" stroke-miterlimit="10" stroke-linecap="round" stroke-linejoin="round"/>
<path d="M604.641 584.675L601.985 587.331" stroke="#48BD51" stroke-width="7.93333" stroke-miterlimit="10" stroke-linecap="round" stroke-linejoin="round"/>
<path d="M7.60157 268.243L4.1145 264.756" stroke="#48BD51" stroke-width="7.93333" stroke-miterlimit="10" stroke-linecap="round" stroke-linejoin="round"/>
<path d="M35.4942 296.136L32.0078 292.648" stroke="#48BD51" stroke-width="7.93333" stroke-miterlimit="10" stroke-linecap="round" stroke-linejoin="round"/>
<path d="M7.60157 292.648L4.1145 296.136" stroke="#48BD51" stroke-width="7.93333" stroke-miterlimit="10" stroke-linecap="round" stroke-linejoin="round"/>
<path d="M35.4942 264.756L32.0078 268.243" stroke="#48BD51" stroke-width="7.93333" stroke-miterlimit="10" stroke-linecap="round" stroke-linejoin="round"/>
<path d="M161.397 598.6L158.741 595.944" stroke="#2A3B95" stroke-width="7.93333" stroke-miterlimit="10" stroke-linecap="round" stroke-linejoin="round"/>
<path d="M182.648 619.853L179.992 617.195" stroke="#2A3B95" stroke-width="7.93333" stroke-miterlimit="10" stroke-linecap="round" stroke-linejoin="round"/>
<path d="M161.397 617.195L158.741 619.853" stroke="#2A3B95" stroke-width="7.93333" stroke-miterlimit="10" stroke-linecap="round" stroke-linejoin="round"/>
<path d="M182.648 595.944L179.992 598.6" stroke="#2A3B95" stroke-width="7.93333" stroke-miterlimit="10" stroke-linecap="round" stroke-linejoin="round"/>
<path d="M413.989 6.63623L411.688 4.33356" stroke="#48BD51" stroke-width="7.93333" stroke-miterlimit="10" stroke-linecap="round" stroke-linejoin="round"/>
<path d="M432.407 25.0522L430.104 22.7496" stroke="#48BD51" stroke-width="7.93333" stroke-miterlimit="10" stroke-linecap="round" stroke-linejoin="round"/>
<path d="M413.989 22.7496L411.688 25.0522" stroke="#48BD51" stroke-width="7.93333" stroke-miterlimit="10" stroke-linecap="round" stroke-linejoin="round"/>
<path d="M432.407 4.33356L430.104 6.63623" stroke="#48BD51" stroke-width="7.93333" stroke-miterlimit="10" stroke-linecap="round" stroke-linejoin="round"/>
<path d="M375.864 403.697H264.492C256.444 403.697 249.92 397.173 249.92 389.125V253.185C249.92 245.137 256.444 238.612 264.492 238.612H279.472" stroke="#2A3B95" stroke-width="7.93333" stroke-miterlimit="10" stroke-linecap="round" stroke-linejoin="round"/>
<path d="M449.869 238.612H464.96C473.008 238.612 479.531 245.138 479.531 253.186V301.527" stroke="#2A3B95" stroke-width="7.93333" stroke-miterlimit="10" stroke-linecap="round" stroke-linejoin="round"/>
<path d="M293.503 238.612H435.789" stroke="#2A3B95" stroke-width="7.93333" stroke-miterlimit="10" stroke-linecap="round" stroke-linejoin="round"/>
<path d="M250.767 269.279H478.685" stroke="#2A3B95" stroke-width="7.93333" stroke-miterlimit="10" stroke-linecap="round" stroke-linejoin="round"/>
<path d="M355.684 299.935H371.747C372.863 299.935 373.768 299.028 373.768 297.912V291.032" stroke="#2A3B95" stroke-width="7.93333" stroke-miterlimit="10" stroke-linecap="round" stroke-linejoin="round"/>
<path d="M394.867 299.935H410.931C412.048 299.935 412.953 299.028 412.953 297.912V291.032" stroke="#2A3B95" stroke-width="7.93333" stroke-miterlimit="10" stroke-linecap="round" stroke-linejoin="round"/>
<path d="M434.052 299.935H450.115C451.232 299.935 452.139 299.028 452.139 297.912V291.032" stroke="#2A3B95" stroke-width="7.93333" stroke-miterlimit="10" stroke-linecap="round" stroke-linejoin="round"/>
<path d="M277.313 325.835H293.376C294.493 325.835 295.399 324.928 295.399 323.811V316.934" stroke="#2A3B95" stroke-width="7.93333" stroke-miterlimit="10" stroke-linecap="round" stroke-linejoin="round"/>
<path d="M316.499 325.835H332.561C333.679 325.835 334.584 324.928 334.584 323.811V316.934" stroke="#2A3B95" stroke-width="7.93333" stroke-miterlimit="10" stroke-linecap="round" stroke-linejoin="round"/>
<path d="M355.684 325.835H371.747C372.863 325.835 373.768 324.928 373.768 323.811V316.934" stroke="#2A3B95" stroke-width="7.93333" stroke-miterlimit="10" stroke-linecap="round" stroke-linejoin="round"/>
<path d="M277.313 351.735H293.376C294.493 351.735 295.399 350.828 295.399 349.711V342.834" stroke="#2A3B95" stroke-width="7.93333" stroke-miterlimit="10" stroke-linecap="round" stroke-linejoin="round"/>
<path d="M316.499 351.735H332.561C333.679 351.735 334.584 350.828 334.584 349.711V342.834" stroke="#2A3B95" stroke-width="7.93333" stroke-miterlimit="10" stroke-linecap="round" stroke-linejoin="round"/>
<path d="M355.684 351.735H371.747C372.863 351.735 373.768 350.828 373.768 349.711V342.834" stroke="#2A3B95" stroke-width="7.93333" stroke-miterlimit="10" stroke-linecap="round" stroke-linejoin="round"/>
<path d="M277.313 377.635H293.376C294.493 377.635 295.399 376.728 295.399 375.612V368.733" stroke="#2A3B95" stroke-width="7.93333" stroke-miterlimit="10" stroke-linecap="round" stroke-linejoin="round"/>
<path d="M316.499 377.635H332.561C333.679 377.635 334.584 376.728 334.584 375.612V368.733" stroke="#2A3B95" stroke-width="7.93333" stroke-miterlimit="10" stroke-linecap="round" stroke-linejoin="round"/>
<path d="M355.684 377.635H371.747C372.863 377.635 373.768 376.728 373.768 375.612V368.733" stroke="#2A3B95" stroke-width="7.93333" stroke-miterlimit="10" stroke-linecap="round" stroke-linejoin="round"/>
<path d="M295.931 226.283C295.931 221.992 292.452 218.514 288.16 218.514C283.869 218.514 280.391 221.992 280.391 226.283V247.058" stroke="#2A3B95" stroke-width="7.93333" stroke-miterlimit="10" stroke-linecap="round" stroke-linejoin="round"/>
<path d="M451.329 226.283C451.329 221.992 447.852 218.514 443.56 218.514C439.268 218.514 435.791 221.992 435.791 226.283L435.789 247.058" stroke="#2A3B95" stroke-width="7.93333" stroke-miterlimit="10" stroke-linecap="round" stroke-linejoin="round"/>
<path d="M408.568 316.364H485.888C495.773 316.364 503.787 324.377 503.787 334.263V396.587C503.787 406.472 495.773 414.485 485.888 414.485H477.805C476.603 414.485 475.628 415.461 475.628 416.664V440.024C475.628 441.965 473.281 442.936 471.909 441.564L445.469 415.124C445.06 414.715 444.507 414.485 443.928 414.485H408.568C398.683 414.485 390.669 406.472 390.669 396.587V334.263C390.669 324.377 398.683 316.364 408.568 316.364Z" stroke="#48BD51" stroke-width="7.93333" stroke-miterlimit="10" stroke-linecap="round" stroke-linejoin="round"/>
<path d="M452.815 337.666C445.903 330.752 435.592 328.691 426.547 332.411L425.937 332.66L425.472 333.127L436.871 344.528L436.149 355.148L425.528 355.871L414.128 344.471L413.663 344.935L413.413 345.546C409.689 354.591 411.751 364.902 418.665 371.814C424.283 377.431 434.333 377.867 442.399 376.143L465.073 398.818C469.144 402.891 475.748 402.891 479.819 398.818C483.891 394.747 483.891 388.144 479.819 384.072L457.145 361.399C458.868 353.336 458.433 343.284 452.815 337.666Z" stroke="#2A3B95" stroke-width="7.93333" stroke-miterlimit="10" stroke-linecap="round" stroke-linejoin="round"/>
</svg>
