<?xml version="1.0" standalone="no"?>
<!DOCTYPE svg PUBLIC "-//W3C//DTD SVG 20010904//EN"
 "http://www.w3.org/TR/2001/REC-SVG-20010904/DTD/svg10.dtd">
<svg version="1.0" xmlns="http://www.w3.org/2000/svg"
 width="512.000000pt" height="512.000000pt" viewBox="0 0 512.000000 512.000000"
 preserveAspectRatio="xMidYMid meet">
<metadata>
Created by potrace 1.16, written by Peter Selinger 2001-2019
</metadata>
<g transform="translate(0.000000,512.000000) scale(0.100000,-0.100000)"
fill="#000000" stroke="none">
<path d="M1105 5100 c-225 -59 -396 -203 -495 -415 -75 -159 -70 -17 -69
-2027 0 -1778 1 -1802 19 -1728 78 314 343 543 667 576 l63 7 0 1803 0 1804
-57 -1 c-32 0 -89 -8 -128 -19z"/>
<path d="M2625 4403 c-15 -192 -15 -194 -43 -204 -58 -22 -155 -75 -202 -111
-28 -21 -55 -38 -60 -38 -5 0 -62 25 -126 55 -65 30 -118 54 -119 53 -1 -2
-22 -39 -47 -83 -25 -44 -93 -162 -151 -261 l-105 -182 107 -73 107 -73 -1
-175 -1 -175 -106 -71 -107 -71 151 -259 c82 -143 152 -262 154 -264 2 -2 58
21 123 52 l120 55 93 -61 c52 -34 117 -71 145 -81 l51 -20 6 -68 c3 -37 9 -99
12 -138 l6 -70 308 0 308 0 8 136 9 136 59 24 c33 13 99 50 146 83 l87 58 114
-58 c63 -32 117 -58 120 -58 10 -1 311 528 305 537 -3 5 -53 40 -111 78 -92
61 -105 72 -100 92 8 31 7 254 0 284 -6 22 5 32 104 99 61 41 110 77 111 81 0
9 -287 508 -301 523 -6 6 -53 -12 -127 -49 l-118 -59 -54 41 c-29 22 -95 61
-146 86 l-92 45 -7 131 -7 130 -308 0 -308 0 -7 -77z m313 -1091 l2 -322 -29
0 c-95 0 -219 87 -268 189 -54 109 -31 254 55 352 49 56 178 115 227 105 6 -2
11 -120 13 -324z"/>
</g>
</svg>
