<?xml version="1.0" encoding="UTF-8" standalone="no"?>
<!-- Created with Inkscape (http://www.inkscape.org/) -->

<svg
   version="1.1"
   id="svg3723"
   xml:space="preserve"
   width="682.66669"
   height="682.66669"
   viewBox="0 0 682.66669 682.66669"
   xmlns="http://www.w3.org/2000/svg"
   xmlns:svg="http://www.w3.org/2000/svg"><defs
     id="defs3727"><clipPath
       clipPathUnits="userSpaceOnUse"
       id="clipPath3737"><path
         d="M 0,512 H 512 V 0 H 0 Z"
         id="path3735" /></clipPath></defs><g
     id="g3729"
     transform="matrix(1.3333333,0,0,-1.3333333,0,682.66667)"><g
       id="g3731"><g
         id="g3733"
         clip-path="url(#clipPath3737)"><g
           id="g3739"
           transform="translate(22.3198,427.6299)"><path
             d="M 0,0 C 5.84,14.37 19.95,24.53 36.39,24.53 H 56.28"
             style="fill:none;stroke:#000000;stroke-width:15;stroke-linecap:round;stroke-linejoin:round;stroke-miterlimit:10;stroke-dasharray:none;stroke-opacity:1"
             id="path3741" /></g><g
           id="g3743"
           transform="translate(22.3198,398.1699)"><path
             d="m 0,0 c 5.84,-14.37 19.96,-24.53 36.39,-24.53 h 36.29 c 21.65,0 39.26,17.62 39.26,39.26 0,8.29 -6.71,15 -14.99,15 -8.29,0 -15,-6.71 -15,-15 0,-5.1 -4.16,-9.26 -9.27,-9.26 H 36.39 c -5.1,0 -9.26,4.16 -9.26,9.26 0,5.11 4.16,9.27 9.26,9.27 h 19.89"
             style="fill:none;stroke:#000000;stroke-width:15;stroke-linecap:round;stroke-linejoin:round;stroke-miterlimit:10;stroke-dasharray:none;stroke-opacity:1"
             id="path3745" /></g><g
           id="g3747"
           transform="translate(78.6016,319.0225)"><path
             d="m 0,0 h -19.889 c -5.108,0 -9.263,-4.155 -9.263,-9.263 0,-5.108 4.155,-9.263 9.263,-9.263 h 36.292 c 5.108,0 9.264,4.155 9.264,9.263 0,8.283 6.714,14.998 14.997,14.998 8.283,0 14.998,-6.715 14.998,-14.998 0,-21.648 -17.611,-39.259 -39.259,-39.259 h -36.292 c -21.647,0 -39.258,17.611 -39.258,39.259 0,21.647 17.611,39.259 39.258,39.259 H 0"
             style="fill:none;stroke:#000000;stroke-width:15;stroke-linecap:round;stroke-linejoin:round;stroke-miterlimit:10;stroke-dasharray:none;stroke-opacity:1"
             id="path3749" /></g><g
           id="g3751"
           transform="translate(78.6016,215.8784)"><path
             d="m 0,0 h -19.889 c -5.108,0 -9.263,-4.155 -9.263,-9.263 0,-5.108 4.155,-9.263 9.263,-9.263 h 36.292 c 5.108,0 9.264,4.155 9.264,9.263 0,8.283 6.714,14.998 14.997,14.998 8.283,0 14.998,-6.715 14.998,-14.998 0,-21.647 -17.611,-39.258 -39.259,-39.258 h -36.292 c -21.647,0 -39.258,17.611 -39.258,39.258 0,21.647 17.611,39.259 39.258,39.259 H 0"
             style="fill:none;stroke:#000000;stroke-width:15;stroke-linecap:round;stroke-linejoin:round;stroke-miterlimit:10;stroke-dasharray:none;stroke-opacity:1"
             id="path3753" /></g><g
           id="g3755"
           transform="translate(78.6016,112.7344)"><path
             d="m 0,0 h -19.889 c -5.108,0 -9.263,-4.155 -9.263,-9.263 0,-5.108 4.155,-9.263 9.263,-9.263 h 36.292 c 5.108,0 9.264,4.155 9.264,9.263 0,8.283 6.714,14.998 14.997,14.998 8.283,0 14.998,-6.715 14.998,-14.998 0,-21.647 -17.611,-39.258 -39.259,-39.258 h -36.292 c -21.647,0 -39.258,17.611 -39.258,39.258 0,21.648 17.611,39.259 39.258,39.259 H 0"
             style="fill:none;stroke:#000000;stroke-width:15;stroke-linecap:round;stroke-linejoin:round;stroke-miterlimit:10;stroke-dasharray:none;stroke-opacity:1"
             id="path3757" /></g><g
           id="g3759"
           transform="translate(78.604,373.6436)"><path
             d="M 0,0 V -24.626 -54.623 -73.15"
             style="fill:none;stroke:#000000;stroke-width:15;stroke-linecap:round;stroke-linejoin:round;stroke-miterlimit:10;stroke-dasharray:none;stroke-opacity:1"
             id="path3761" /></g><g
           id="g3763"
           transform="translate(78.604,167.3525)"><path
             d="M 0,0 V -24.626 -54.623 -73.14"
             style="fill:none;stroke:#000000;stroke-width:15;stroke-linecap:round;stroke-linejoin:round;stroke-miterlimit:10;stroke-dasharray:none;stroke-opacity:1"
             id="path3765" /></g><g
           id="g3767"
           transform="translate(78.604,64.2168)"><path
             d="M 0,0 V -2.609 C 0,-32.475 24.207,-56.682 54.072,-56.682 H 359.87 c 29.865,0 54.072,24.207 54.072,54.073 v 388.785 c 0,29.866 -24.207,54.073 -54.072,54.073 H 54.072 C 24.207,440.249 0,416.042 0,386.176 V 357.95 339.422"
             style="fill:none;stroke:#000000;stroke-width:15;stroke-linecap:round;stroke-linejoin:round;stroke-miterlimit:10;stroke-dasharray:none;stroke-opacity:1"
             id="path3769" /></g><g
           id="g3771"
           transform="translate(78.604,197.3481)"><path
             d="M 0,0 V 18.527 48.523 73.15"
             style="fill:none;stroke:#000000;stroke-width:15;stroke-linecap:round;stroke-linejoin:round;stroke-miterlimit:10;stroke-dasharray:none;stroke-opacity:1"
             id="path3773" /></g><g
           id="g3775"
           transform="translate(221.5234,332.1001)"><path
             d="m 0,0 18.459,48.466 c 0.377,0.922 1.683,0.924 2.062,0.002 L 38.812,0"
             style="fill:none;stroke:#000000;stroke-width:15;stroke-linecap:round;stroke-linejoin:round;stroke-miterlimit:10;stroke-dasharray:none;stroke-opacity:1"
             id="path3777" /></g><g
           id="g3779"
           transform="translate(227.2803,344.1709)"><path
             d="M 0,0 H 27.391"
             style="fill:none;stroke:#000000;stroke-width:15;stroke-linecap:round;stroke-linejoin:round;stroke-miterlimit:10;stroke-dasharray:none;stroke-opacity:1"
             id="path3781" /></g><g
           id="g3783"
           transform="translate(391.2539,332.1001)"><path
             d="m 0,0 18.459,48.466 c 0.377,0.922 1.683,0.924 2.062,0.002 L 38.812,0"
             style="fill:none;stroke:#000000;stroke-width:15;stroke-linecap:round;stroke-linejoin:round;stroke-miterlimit:10;stroke-dasharray:none;stroke-opacity:1"
             id="path3785" /></g><g
           id="g3787"
           transform="translate(397.0107,344.1709)"><path
             d="M 0,0 H 27.391"
             style="fill:none;stroke:#000000;stroke-width:15;stroke-linecap:round;stroke-linejoin:round;stroke-miterlimit:10;stroke-dasharray:none;stroke-opacity:1"
             id="path3789" /></g><g
           id="g3791"
           transform="translate(280.6592,332.1001)"><path
             d="M 0,0 V 49.066 L 33.173,1.029 c 0.616,-0.888 1.274,-0.453 1.274,0.628 l -0.459,47.502"
             style="fill:none;stroke:#000000;stroke-width:15;stroke-linecap:round;stroke-linejoin:round;stroke-miterlimit:10;stroke-dasharray:none;stroke-opacity:1"
             id="path3793" /></g><g
           id="g3795"
           transform="translate(149.8677,332.4839)"><path
             d="m 0,0 8.64,47.871 c 0.216,1.121 1.78,1.226 2.143,0.144 L 24.839,0.373 c 0.341,-1.015 1.779,-1.007 2.109,0.011 l 13.576,47.623 c 0.352,1.085 1.916,0.997 2.144,-0.121 L 51.82,0"
             style="fill:none;stroke:#000000;stroke-width:15;stroke-linecap:round;stroke-linejoin:round;stroke-miterlimit:10;stroke-dasharray:none;stroke-opacity:1"
             id="path3797" /></g><g
           id="g3799"
           transform="translate(448.8779,381.2588)"><path
             d="m 0,0 v -49.117 c 0.543,-0.093 17.214,0 17.214,0"
             style="fill:none;stroke:#000000;stroke-width:15;stroke-linecap:round;stroke-linejoin:round;stroke-miterlimit:10;stroke-dasharray:none;stroke-opacity:1"
             id="path3801" /></g><g
           id="g3803"
           transform="translate(339.1431,381.2588)"><path
             d="m 0,0 v -33.827 c 0,-5.76 2.857,-9.639 7.712,-12.74 2.364,-1.511 5.35,-2.587 9.061,-2.592 3.214,-0.004 5.899,0.74 8.121,1.858 5.657,2.849 9.264,7.176 9.264,13.51 V 0"
             style="fill:none;stroke:#000000;stroke-width:15;stroke-linecap:round;stroke-linejoin:round;stroke-miterlimit:10;stroke-dasharray:none;stroke-opacity:1"
             id="path3805" /></g><g
           id="g3807"
           transform="translate(170.4902,259.1816)"><path
             d="M 0,0 H 250.17"
             style="fill:none;stroke:#000000;stroke-width:15;stroke-linecap:round;stroke-linejoin:round;stroke-miterlimit:10;stroke-dasharray:none;stroke-opacity:1"
             id="path3809" /></g><g
           id="g3811"
           transform="translate(170.4902,221.6274)"><path
             d="M 0,0 H 250.17"
             style="fill:none;stroke:#000000;stroke-width:15;stroke-linecap:round;stroke-linejoin:round;stroke-miterlimit:10;stroke-dasharray:none;stroke-opacity:1"
             id="path3813" /></g><g
           id="g3815"
           transform="translate(420.6602,184.0698)"><path
             d="M 0,0 H -42.17"
             style="fill:none;stroke:#000000;stroke-width:15;stroke-linecap:round;stroke-linejoin:round;stroke-miterlimit:10;stroke-dasharray:none;stroke-opacity:1"
             id="path3817" /></g><g
           id="g3819"
           transform="translate(348.4902,184.0698)"><path
             d="M 0,0 H -178"
             style="fill:none;stroke:#000000;stroke-width:15;stroke-linecap:round;stroke-linejoin:round;stroke-miterlimit:10;stroke-dasharray:none;stroke-opacity:1"
             id="path3821" /></g><g
           id="g3823"
           transform="translate(170.4902,146.5195)"><path
             d="M 0,0 H 250.17"
             style="fill:none;stroke:#000000;stroke-width:15;stroke-linecap:round;stroke-linejoin:round;stroke-miterlimit:10;stroke-dasharray:none;stroke-opacity:1"
             id="path3825" /></g><g
           id="g3827"
           transform="translate(170.4902,108.9653)"><path
             d="M 0,0 H 250.17"
             style="fill:none;stroke:#000000;stroke-width:15;stroke-linecap:round;stroke-linejoin:round;stroke-miterlimit:10;stroke-dasharray:none;stroke-opacity:1"
             id="path3829" /></g></g></g></g></svg>
