<svg id="Capa_1" enable-background="new 0 0 511.995 511.995" height="512" viewBox="0 0 511.995 511.995" width="512" xmlns="http://www.w3.org/2000/svg"><g><path d="m73.224 453.594v2.689c0 30.771 24.94 55.712 55.712 55.712h315.067c30.771 0 55.712-24.94 55.712-55.712v-400.571c-.001-30.772-24.941-55.712-55.713-55.712h-315.067c-30.771 0-55.711 24.94-55.711 55.712v29.082 19.089" fill="#f9f6f9"/><path d="m101.239 456.283v-2.689-349.712-19.089-29.081c0-30.772 24.941-55.712 55.712-55.712h-28.015c-30.162 0-54.722 23.962-55.683 53.89-.019.605-8.456 9.639-8.456 10.248l8.426 20.655v19.089l-8.426 19.137 8.426 11.767v25.373l-9.81 15.511 9.81 15.394v75.366l-7.589 17.254 7.589 13.651v75.366l-9.81 18.335 9.81 12.57v49.988 2.689c0 30.771 24.94 55.712 55.712 55.712h28.015c-30.77 0-55.711-24.941-55.711-55.712z" fill="#dddaec"/><g fill="#ffe07d"><path d="m73.221 84.794h-20.492c-5.263 0-9.544 4.281-9.544 9.544s4.281 9.544 9.544 9.544h37.392c5.263 0 9.544-4.281 9.544-9.544 0-8.534 6.918-15.453 15.453-15.453s15.453 6.918 15.453 15.453c0 22.304-18.145 40.449-40.449 40.449h-37.393c-22.304 0-40.449-18.145-40.449-40.449s18.145-40.449 40.449-40.449h20.492"/><path d="m73.221 191.065h-20.492c-5.263 0-9.544 4.281-9.544 9.544s4.281 9.544 9.544 9.544h37.392c5.263 0 9.544-4.281 9.544-9.544 0-8.534 6.918-15.453 15.453-15.453s15.453 6.918 15.453 15.453c0 22.304-18.145 40.449-40.449 40.449h-37.393c-22.304 0-40.449-18.145-40.449-40.449s18.145-40.449 40.449-40.449h20.492"/><path d="m73.221 297.335h-20.492c-5.263 0-9.544 4.281-9.544 9.544s4.281 9.544 9.544 9.544h37.392c5.263 0 9.544-4.281 9.544-9.544 0-8.534 6.918-15.453 15.453-15.453s15.453 6.918 15.453 15.453c0 22.304-18.145 40.449-40.449 40.449h-37.393c-22.304 0-40.449-18.145-40.449-40.449s18.145-40.449 40.449-40.449h20.492"/><path d="m73.221 403.606h-20.492c-5.263 0-9.544 4.281-9.544 9.544s4.281 9.544 9.544 9.544h37.392c5.263 0 9.544-4.281 9.544-9.544 0-8.534 6.918-15.453 15.453-15.453s15.453 6.918 15.453 15.453c0 22.304-18.145 40.449-40.449 40.449h-37.393c-22.304 0-40.449-18.145-40.449-40.449s18.145-40.449 40.449-40.449h20.492"/></g><path d="m29.268 413.15c0 22.304 18.152 40.445 40.455 40.445h-16.998c-22.303 0-40.444-18.141-40.444-40.445 0-22.303 18.141-40.444 40.444-40.444h16.998c-22.303-.001-40.455 18.14-40.455 40.444z" fill="#ffd064"/><path d="m29.268 306.879c0 22.304 18.152 40.445 40.455 40.445h-16.998c-22.303 0-40.444-18.141-40.444-40.445 0-22.303 18.141-40.444 40.444-40.444h16.998c-22.303 0-40.455 18.141-40.455 40.444z" fill="#ffd064"/><path d="m29.268 200.608c0 22.304 18.152 40.445 40.455 40.445h-16.998c-22.303 0-40.444-18.141-40.444-40.445 0-22.303 18.141-40.444 40.444-40.444h16.998c-22.303 0-40.455 18.141-40.455 40.444z" fill="#ffd064"/><path d="m29.268 94.338c0 22.304 18.152 40.445 40.455 40.445h-16.998c-22.303 0-40.444-18.141-40.444-40.445 0-22.303 18.141-40.444 40.444-40.444h16.998c-22.303-.001-40.455 18.14-40.455 40.444z" fill="#ffd064"/><g fill="#e27a66"><path d="m248.848 124.924c-.027-.071-.054-.141-.083-.211-1.374-3.341-4.595-5.5-8.208-5.5-.003 0-.005 0-.007 0-3.616.003-6.837 2.167-8.207 5.513-.024.059-.047.118-.07.178l-19.019 49.936c-1.519 3.988.482 8.453 4.471 9.972.906.345 1.835.508 2.749.508 3.114 0 6.049-1.896 7.223-4.979l2.841-7.46h19.89l2.807 7.438c1.507 3.992 5.963 6.009 9.958 4.502 3.993-1.507 6.008-5.966 4.502-9.958zm-12.424 32.502 4.104-10.776 4.067 10.776z"/><path d="m423.724 124.924c-.027-.072-.055-.143-.085-.214-1.375-3.34-4.596-5.497-8.207-5.497-.003 0-.007 0-.009 0-3.615.004-6.835 2.168-8.205 5.513-.024.059-.047.118-.07.178l-19.018 49.936c-1.519 3.988.482 8.453 4.471 9.972.906.345 1.835.508 2.749.508 3.114 0 6.049-1.896 7.223-4.979l2.841-7.46h19.89l2.807 7.438c1.507 3.992 5.964 6.009 9.958 4.502 3.993-1.507 6.008-5.965 4.502-9.958zm-12.424 32.502 4.104-10.777 4.067 10.777z"/><path d="m316.424 119.214c-.025 0-.051 0-.076.001-4.267.041-7.693 3.534-7.652 7.802l.255 26.31-21.187-30.681c-1.921-2.783-5.43-3.99-8.658-2.986-3.229 1.007-5.428 3.995-5.428 7.377v50.554c0 4.268 3.46 7.727 7.727 7.727 4.268 0 7.727-3.46 7.727-7.727v-25.765l20.098 29.103c2.217 3.201 5.936 4.554 9.471 3.45 3.598-1.124 5.923-4.458 5.922-8.57l-.473-48.942c-.042-4.243-3.493-7.653-7.726-7.653z"/><path d="m198.181 126.317c-.803-3.946-4.172-6.861-8.192-7.088-4.015-.234-7.698 2.289-8.94 6.12-.028.088-.055.177-.08.266l-7.754 27.197-8.046-27.273c-.027-.092-.055-.182-.086-.272-1.281-3.819-4.978-6.308-9.003-6.029-4.019.269-7.358 3.219-8.136 7.263l-8.902 49.322c-.758 4.2 2.032 8.219 6.232 8.977 4.199.755 8.219-2.031 8.977-6.232l3.966-21.975 6.61 22.404c.027.092.056.183.086.274 1.217 3.622 4.592 6.047 8.41 6.047h.047c3.837-.02 7.209-2.486 8.392-6.135.029-.088.055-.176.081-.265l6.38-22.379 4.225 22.106c.801 4.192 4.852 6.942 9.04 6.14 4.192-.801 6.941-4.849 6.14-9.04z"/><path d="m472.415 169.82c-3.387.019-6.954.033-9.965.039v-42.918c0-4.268-3.46-7.727-7.727-7.727-4.268 0-7.727 3.46-7.727 7.727v50.606c0 3.764 2.711 6.979 6.42 7.616.554.095.92.158 6.618.158 2.73 0 6.684-.015 12.468-.047 4.268-.024 7.708-3.503 7.684-7.771-.025-4.266-3.522-7.669-7.771-7.683z"/><path d="m376.855 119.214c-4.268 0-7.727 3.46-7.727 7.727v34.815c0 2.152-.629 4.669-5.293 7.017-1.455.733-3.046 1.089-4.863 1.089-.007 0-.013 0-.019 0-1.962-.003-3.657-.478-5.185-1.454-3.662-2.34-4.379-4.197-4.379-6.615v-34.852c0-4.268-3.46-7.727-7.727-7.727-4.268 0-7.727 3.46-7.727 7.727v34.852c0 8.15 3.873 14.758 11.513 19.639 4.026 2.572 8.563 3.879 13.485 3.885h.04c4.227 0 8.201-.922 11.813-2.74 8.897-4.48 13.797-11.875 13.797-20.821v-34.815c-.001-4.267-3.461-7.727-7.728-7.727z"/></g><g fill="#6b61b1"><path d="m167.895 260.447h257.754c4.268 0 7.727-3.46 7.727-7.727 0-4.268-3.46-7.727-7.727-7.727h-257.754c-4.268 0-7.727 3.46-7.727 7.727s3.46 7.727 7.727 7.727z"/><path d="m425.649 283.684h-257.754c-4.268 0-7.727 3.46-7.727 7.727 0 4.268 3.46 7.727 7.727 7.727h257.754c4.268 0 7.727-3.46 7.727-7.727s-3.459-7.727-7.727-7.727z"/><path d="m425.649 322.381h-257.754c-4.268 0-7.727 3.46-7.727 7.727 0 4.268 3.46 7.727 7.727 7.727h257.754c4.268 0 7.727-3.46 7.727-7.727 0-4.268-3.459-7.727-7.727-7.727z"/><path d="m425.649 361.069h-257.754c-4.268 0-7.727 3.46-7.727 7.727 0 4.268 3.46 7.727 7.727 7.727h257.754c4.268 0 7.727-3.46 7.727-7.727s-3.459-7.727-7.727-7.727z"/><path d="m425.649 399.762h-257.754c-4.268 0-7.727 3.46-7.727 7.727 0 4.268 3.46 7.727 7.727 7.727h257.754c4.268 0 7.727-3.46 7.727-7.727s-3.459-7.727-7.727-7.727z"/></g></g></svg>