<?xml version="1.0" encoding="UTF-8" standalone="no"?>
<!-- Created with Inkscape (http://www.inkscape.org/) -->

<svg
   version="1.1"
   id="svg2022"
   xml:space="preserve"
   width="682.66669"
   height="682.66669"
   viewBox="0 0 682.66669 682.66669"
   xmlns="http://www.w3.org/2000/svg"
   xmlns:svg="http://www.w3.org/2000/svg"><defs
     id="defs2026"><clipPath
       clipPathUnits="userSpaceOnUse"
       id="clipPath2036"><path
         d="M 0,512 H 512 V 0 H 0 Z"
         id="path2034" /></clipPath></defs><g
     id="g2028"
     transform="matrix(1.3333333,0,0,-1.3333333,0,682.66667)"><g
       id="g2030"><g
         id="g2032"
         clip-path="url(#clipPath2036)"><g
           id="g2038"
           transform="translate(347.4697,351.3413)"><path
             d="M 0,0 C -29.904,17.518 -44.644,33.278 -73.669,24.973 -119.56,7.739 -138.551,-2.522 -182.939,0.595 v 17.518 c 0,50.314 41.157,91.472 91.469,91.472 C -41.157,109.585 0,68.427 0,18.113 Z"
             style="fill:none;stroke:#000000;stroke-width:20.148;stroke-linecap:round;stroke-linejoin:round;stroke-miterlimit:10;stroke-dasharray:none;stroke-opacity:1"
             id="path2040" /></g><g
           id="g2042"
           transform="translate(125.1309,354.0625)"><path
             d="m 0,0 v 17.036 c 0,72.084 58.815,130.901 130.869,130.901 72.082,0 130.898,-58.817 130.898,-130.901 V -0.567"
             style="fill:none;stroke:#000000;stroke-width:20.148;stroke-linecap:round;stroke-linejoin:round;stroke-miterlimit:10;stroke-dasharray:none;stroke-opacity:1"
             id="path2044" /></g><g
           id="g2046"
           transform="translate(164.5303,351.9365)"><path
             d="m 0,0 v -38.692 c 0,-50.314 41.157,-91.472 91.47,-91.472 50.312,0 91.469,41.158 91.469,91.472 V 0"
             style="fill:none;stroke:#000000;stroke-width:20.148;stroke-linecap:round;stroke-linejoin:round;stroke-miterlimit:10;stroke-dasharray:none;stroke-opacity:1"
             id="path2048" /></g><g
           id="g2050"
           transform="translate(100.3281,10)"><path
             d="m 0,0 h -29.648 v 78.064 c 1.19,72.85 90.194,86.144 141.584,103.123 v 41.81 m 87.472,0 v -41.81 C 250.798,164.208 339.802,150.914 340.992,78.064 V 0 H 89.798"
             style="fill:none;stroke:#000000;stroke-width:20.148;stroke-linecap:round;stroke-linejoin:round;stroke-miterlimit:10;stroke-dasharray:none;stroke-opacity:1"
             id="path2052" /></g><g
           id="g2054"
           transform="translate(299.7363,191.187)"><path
             d="m 0,0 -97.705,-65.904 -27.978,54.509"
             style="fill:none;stroke:#000000;stroke-width:20.148;stroke-linecap:round;stroke-linejoin:round;stroke-miterlimit:10;stroke-dasharray:none;stroke-opacity:1"
             id="path2056" /></g><g
           id="g2058"
           transform="translate(164.5303,365.543)"><path
             d="m 0,0 h -16.129 c -14.427,0 -26.219,-11.792 -26.219,-26.22 v -10.573 c 0,-14.428 11.792,-26.249 26.219,-26.249 H 0.652"
             style="fill:none;stroke:#000000;stroke-width:20.148;stroke-linecap:round;stroke-linejoin:round;stroke-miterlimit:10;stroke-dasharray:none;stroke-opacity:1"
             id="path2060" /></g><g
           id="g2062"
           transform="translate(347.4697,365.543)"><path
             d="m 0,0 h 16.129 c 14.427,0 26.219,-11.792 26.219,-26.22 v -10.573 c 0,-14.428 -11.792,-26.249 -26.219,-26.249 H -0.624"
             style="fill:none;stroke:#000000;stroke-width:20.148;stroke-linecap:round;stroke-linejoin:round;stroke-miterlimit:10;stroke-dasharray:none;stroke-opacity:1"
             id="path2064" /></g><g
           id="g2066"
           transform="translate(256,262.4204)"><path
             d="m 0,0 h 112.813 c 9.95,0 18.084,8.135 18.084,18.084 v 36.227"
             style="fill:none;stroke:#000000;stroke-width:20.148;stroke-linecap:round;stroke-linejoin:round;stroke-miterlimit:10;stroke-dasharray:none;stroke-opacity:1"
             id="path2068" /></g><g
           id="g2070"
           transform="translate(274.0557,89.6802)"><path
             d="m 0,0 13.492,50.711 m -63.096,0 L -36.111,0"
             style="fill:none;stroke:#000000;stroke-width:20.148;stroke-linecap:round;stroke-linejoin:round;stroke-miterlimit:10;stroke-dasharray:none;stroke-opacity:1"
             id="path2072" /></g><g
           id="g2074"
           transform="translate(219.7744,10)"><path
             d="M 0,0 18.17,79.68 H 54.281 L 72.479,0"
             style="fill:none;stroke:#000000;stroke-width:20.148;stroke-linecap:round;stroke-linejoin:round;stroke-miterlimit:10;stroke-dasharray:none;stroke-opacity:1"
             id="path2076" /></g><g
           id="g2078"
           transform="translate(212.2637,191.187)"><path
             d="m 0,0 97.733,-65.904 27.95,54.509"
             style="fill:none;stroke:#000000;stroke-width:20.148;stroke-linecap:round;stroke-linejoin:round;stroke-miterlimit:10;stroke-dasharray:none;stroke-opacity:1"
             id="path2080" /></g><g
           id="g2082"
           transform="translate(341.4326,60.0024)"><path
             d="M 0,0 H 50.397"
             style="fill:none;stroke:#000000;stroke-width:20.148;stroke-linecap:round;stroke-linejoin:round;stroke-miterlimit:10;stroke-dasharray:none;stroke-opacity:1"
             id="path2084" /></g><g
           id="g2086"
           transform="translate(145.2559,10)"><path
             d="M 0,0 H -0.028"
             style="fill:none;stroke:#000000;stroke-width:20.148;stroke-linecap:round;stroke-linejoin:round;stroke-miterlimit:10;stroke-dasharray:none;stroke-opacity:1"
             id="path2088" /></g></g></g></g></svg>
