<?xml version="1.0" encoding="UTF-8"?><svg id="Layer_2" xmlns="http://www.w3.org/2000/svg" viewBox="0 0 109.28 107.21"><defs><style>.cls-1{fill:#19a5a5;}.cls-2{fill:#15cbd6;}</style></defs><g id="Layer_3"><path class="cls-2" d="m109.25,51.85c-.05-1.6-.17-3.19-.37-4.76-.11-.86-.77-1.54-1.62-1.68l-8.25-1.37c-.7-.12-1.29-.6-1.52-1.27l-2.89-8.07c-.24-.67-.1-1.41.37-1.95l5.5-6.3c.57-.65.65-1.61.18-2.34-1.75-2.74-3.75-5.31-5.94-7.69-.59-.64-1.53-.8-2.31-.41l-7.48,3.75c-.64.32-1.39.27-1.98-.13l-7.09-4.82c-.59-.4-.91-1.09-.85-1.79l.74-8.35c.08-.86-.42-1.68-1.23-2-2.88-1.13-5.88-2.02-8.97-2.64-.85-.17-1.71.25-2.11,1.01l-3.89,7.42c-.33.63-.98,1.03-1.69,1.05l-8.57.2c-.71.02-1.37-.35-1.73-.96l-4.26-7.22c-.44-.75-1.32-1.12-2.17-.91-3.18.81-6.25,1.9-9.17,3.24-.79.36-1.24,1.21-1.11,2.06l1.22,8.28c.1.7-.18,1.41-.75,1.84l-6.81,5.21c-.56.43-1.32.52-1.97.24l-7.68-3.32c-.8-.34-1.73-.13-2.28.54-2.06,2.49-3.91,5.17-5.51,8.01-.43.76-.29,1.7.31,2.32l5.84,5.98c.5.51.68,1.25.48,1.93l-2.43,8.21c-.2.68-.76,1.2-1.45,1.36l-8.17,1.84c-.85.19-1.47.93-1.53,1.8-.11,1.68-.15,3.39-.09,5.12.06,1.54.18,3.06.35,4.56.1.86.76,1.56,1.62,1.7l8.25,1.39c.7.12,1.28.61,1.52,1.28l2.86,8.07c.24.67.09,1.42-.38,1.95l-5.53,6.29c-.57.65-.65,1.61-.19,2.34,1.76,2.75,3.74,5.34,5.94,7.73.59.64,1.53.81,2.31.42l7.5-3.73c.64-.32,1.39-.26,1.98.14l7.07,4.84c.59.4.91,1.09.84,1.8l-.78,8.34c-.08.86.42,1.68,1.22,2,2.99,1.18,6.11,2.11,9.32,2.75.85.17,1.71-.25,2.11-1.02l3.86-7.44c.33-.63.97-1.04,1.69-1.06l8.57-.24c.71-.02,1.38.35,1.74.96l4.27,7.21c.44.75,1.33,1.12,2.17.9,3.18-.83,6.24-1.93,9.16-3.28.79-.36,1.24-1.21,1.11-2.07l-1.25-8.28c-.11-.7.18-1.41.74-1.84l6.79-5.24c.56-.43,1.32-.53,1.97-.25l7.69,3.29c.8.34,1.73.12,2.28-.55,2.06-2.5,3.9-5.18,5.49-8.02.42-.76.29-1.71-.32-2.33l-5.88-5.95c-.5-.51-.69-1.24-.49-1.93l2.4-8.24c.2-.68.75-1.21,1.45-1.36l8.16-1.85c.85-.19,1.47-.92,1.52-1.79.1-1.64.13-3.29.07-4.96Zm-38.46,20.12c-10.15,8.91-25.62,7.96-34.57-2.24-8.9-10.19-7.91-25.64,2.26-34.55,10.13-8.96,25.62-7.96,34.54,2.2,8.97,10.18,7.94,25.67-2.23,34.58Z"/><path class="cls-1" d="m81.57,29.93c-13.06-14.87-35.74-16.35-50.61-3.29-14.86,13.07-16.33,35.71-3.24,50.6,13.06,14.86,35.72,16.33,50.58,3.27,14.87-13.06,16.33-35.72,3.27-50.58Zm-5.59,47.94c-13.4,11.78-33.84,10.46-45.62-2.95-11.81-13.43-10.48-33.85,2.92-45.64,13.42-11.78,33.87-10.44,45.65,2.97,11.78,13.4,10.47,33.85-2.95,45.62Z"/></g></svg>