<svg xmlns="http://www.w3.org/2000/svg" version="1.1" xmlns:xlink="http://www.w3.org/1999/xlink" xmlns:svgjs="http://svgjs.com/svgjs" width="512" height="512" x="0" y="0" viewBox="0 0 512 512" style="enable-background:new 0 0 512 512" xml:space="preserve" class=""><g><path fill="#bfebff" d="M259.892 426.667H51.195c-18.851 0-34.133-15.282-34.133-34.132v-34.134h258.859z" data-original="#bfebff" class=""></path><path fill="#f4fbff" d="M17.062 153.6v204.8c0 18.851 15.282 34.133 34.133 34.133h204.809l204.825-84.475V153.6L238.946 93.867z" data-original="#f4fbff" class=""></path><path fill="#bfebff" d="M437.135 308.058h23.694V153.6l-23.694-6.379z" data-original="#bfebff" class=""></path><path fill="#ff4f75" d="M460.829 153.6V68.266c0-18.851-15.282-34.133-34.132-34.133H51.195c-18.851 0-34.133 15.282-34.133 34.133V153.6z" data-original="#ff4f75"></path><path fill="#f71e78" d="M426.697 34.133h-23.703c18.851 0 34.132 15.282 34.132 34.133V153.6h23.703V68.266c0-18.851-15.281-34.133-34.132-34.133zM124.613 75.993h-22.217a7.726 7.726 0 1 1 0-15.452h22.217a7.726 7.726 0 1 1 0 15.452zM179.195 75.993h-22.217a7.726 7.726 0 1 1 0-15.452h22.217c4.268 0 7.726 3.459 7.726 7.726s-3.458 7.726-7.726 7.726zM320.891 75.993h-22.218a7.726 7.726 0 1 1 0-15.452h22.218c4.268 0 7.726 3.459 7.726 7.726s-3.458 7.726-7.726 7.726zM375.474 75.993h-22.218a7.726 7.726 0 1 1 0-15.452h22.218c4.268 0 7.726 3.459 7.726 7.726s-3.458 7.726-7.726 7.726z" data-original="#f71e78"></path><path fill="#abd5ed" d="M162.129 64c0 11.782-9.551 21.333-21.333 21.333S119.463 75.782 119.463 64V21.333C119.462 9.551 129.013 0 140.795 0s21.333 9.551 21.333 21.333V64zM358.407 64c0 11.782-9.551 21.333-21.333 21.333S315.74 75.782 315.74 64V21.333C315.74 9.551 325.292 0 337.074 0s21.333 9.551 21.333 21.333z" data-original="#abd5ed"></path><path fill="#587aa1" d="M145.607 221.867h-18.133a8 8 0 0 1-8-8v-18.133a8 8 0 0 1 8-8h18.133a8 8 0 0 1 8 8v18.133a8 8 0 0 1-8 8zM213.874 221.867H195.74a8 8 0 0 1-8-8v-18.133a8 8 0 0 1 8-8h18.133a8 8 0 0 1 8 8v18.133a7.999 7.999 0 0 1-7.999 8zM282.14 221.867h-18.133a8 8 0 0 1-8-8v-18.133a8 8 0 0 1 8-8h18.133a8 8 0 0 1 8 8v18.133a8 8 0 0 1-8 8z" data-original="#587aa1" class=""></path><path fill="#ff4f75" d="M350.396 221.867h-18.133a8 8 0 0 1-8-8v-18.133a8 8 0 0 1 8-8h18.133a8 8 0 0 1 8 8v18.133a8 8 0 0 1-8 8z" data-original="#ff4f75"></path><path fill="#587aa1" d="M418.663 221.867H400.53a8 8 0 0 1-8-8v-18.133a8 8 0 0 1 8-8h18.133a8 8 0 0 1 8 8v18.133a8 8 0 0 1-8 8zM392.529 274.276v-9.742a8.533 8.533 0 0 1 8.533-8.533h17.067a8.533 8.533 0 0 1 8.533 8.533V281.6c0 .961-.159 1.884-.451 2.746M77.34 290.134H59.207a8 8 0 0 1-8-8V264a8 8 0 0 1 8-8H77.34a8 8 0 0 1 8 8v18.133a8 8 0 0 1-8 8.001z" data-original="#587aa1" class=""></path><path fill="#ff4f75" d="M145.607 290.134h-18.133a8 8 0 0 1-8-8V264a8 8 0 0 1 8-8h18.133a8 8 0 0 1 8 8v18.133a8 8 0 0 1-8 8.001z" data-original="#ff4f75"></path><g fill="#587aa1"><path d="M213.874 290.134H195.74a8 8 0 0 1-8-8V264a8 8 0 0 1 8-8h18.133a8 8 0 0 1 8 8v18.133a8 8 0 0 1-7.999 8.001zM77.34 358.401H59.207a8 8 0 0 1-8-8v-18.133a8 8 0 0 1 8-8H77.34a8 8 0 0 1 8 8v18.133a8 8 0 0 1-8 8zM145.607 358.401h-18.133a8 8 0 0 1-8-8v-18.133a8 8 0 0 1 8-8h18.133a8 8 0 0 1 8 8v18.133a8 8 0 0 1-8 8zM213.874 358.401H195.74a8 8 0 0 1-8-8v-18.133a8 8 0 0 1 8-8h18.133a8 8 0 0 1 8 8v18.133a7.999 7.999 0 0 1-7.999 8zM282.14 290.134h-18.133a8 8 0 0 1-8-8V264a8 8 0 0 1 8-8h18.133a8 8 0 0 1 8 8v18.133a8 8 0 0 1-8 8.001zM324.724 284.35a8.533 8.533 0 0 1-.453-2.749v-17.067a8.533 8.533 0 0 1 8.533-8.533h17.067a8.533 8.533 0 0 1 8.533 8.533v9.74" fill="#587aa1" data-original="#587aa1" class=""></path></g><path fill="#97bedb" d="M337.073 0c-4.38 0-8.448 1.324-11.835 3.588 5.725 3.826 9.498 10.344 9.498 17.746V64c0 7.402-3.773 13.92-9.498 17.746a21.232 21.232 0 0 0 11.835 3.587c11.782 0 21.334-9.551 21.334-21.333V21.333C358.407 9.551 348.856 0 337.073 0zM140.795 0c-4.38 0-8.448 1.324-11.836 3.588 5.725 3.826 9.498 10.344 9.498 17.746V64c0 7.402-3.773 13.92-9.498 17.746a21.233 21.233 0 0 0 11.836 3.587c11.782 0 21.333-9.551 21.333-21.333V21.333C162.129 9.551 152.577 0 140.795 0z" data-original="#97bedb"></path><path fill="#f71e78" d="M17.062 127.193h443.767v-15.452H17.062z" data-original="#f71e78"></path><circle cx="375.471" cy="392.533" r="119.467" fill="#ffcc4a" data-original="#ffcc4a" class=""></circle><path fill="#ffb54c" d="M375.471 273.066c-3.998 0-7.95.2-11.847.584 60.418 5.948 107.62 56.901 107.62 118.883s-47.202 112.934-107.62 118.883c3.897.384 7.849.584 11.847.584 65.98 0 119.467-53.487 119.467-119.467s-53.487-119.467-119.467-119.467z" data-original="#ffb54c" class=""></path><g fill="#ffe278"><path d="M375.471 273.066c-2.596 0-5.171.092-7.726.255V307.2a7.726 7.726 0 1 0 15.452 0v-33.878a121.263 121.263 0 0 0-7.726-.256zM285.713 313.702l23.955 23.955c1.509 1.509 3.486 2.263 5.463 2.263s3.955-.754 5.463-2.263a7.725 7.725 0 0 0 0-10.927l-23.955-23.955a120.253 120.253 0 0 0-10.926 10.927zM290.138 384.807H256.26c-.163 2.555-.256 5.13-.256 7.726s.092 5.171.256 7.727h33.878a7.726 7.726 0 0 0 7.726-7.726 7.726 7.726 0 0 0-7.726-7.727zM309.668 447.41l-23.955 23.955a120.136 120.136 0 0 0 10.927 10.927l23.955-23.955a7.725 7.725 0 0 0 0-10.927 7.725 7.725 0 0 0-10.927 0zM375.471 470.14a7.726 7.726 0 0 0-7.726 7.726v33.878c2.555.163 5.13.255 7.726.255 2.597 0 5.171-.092 7.727-.255v-33.878a7.727 7.727 0 0 0-7.727-7.726zM465.229 471.365l-23.955-23.955a7.726 7.726 0 1 0-10.926 10.927l23.955 23.955a120.381 120.381 0 0 0 10.926-10.927zM454.302 302.775l-23.955 23.955a7.725 7.725 0 0 0 0 10.927 7.7 7.7 0 0 0 5.463 2.263 7.7 7.7 0 0 0 5.463-2.263l23.955-23.955a119.997 119.997 0 0 0-10.926-10.927zM494.682 384.807h-33.878a7.726 7.726 0 1 0 0 15.452h33.878c.163-2.555.255-5.13.255-7.727s-.091-5.17-.255-7.725z" fill="#ffe278" data-original="#ffe278" class=""></path></g><circle cx="375.471" cy="392.533" r="85.333" fill="#ffb54c" data-original="#ffb54c" class=""></circle><path fill="#ffe278" d="M375.471 384.807c-7.033 0-12.754-5.721-12.754-12.754 0-7.032 5.721-12.754 12.754-12.754 7.032 0 12.754 5.721 12.754 12.754a7.726 7.726 0 1 0 15.452 0c0-12.874-8.673-23.753-20.48-27.122v-3.598a7.726 7.726 0 1 0-15.452 0v3.598c-11.807 3.369-20.48 14.248-20.48 27.122 0 15.553 12.653 28.207 28.207 28.207 7.032 0 12.754 5.721 12.754 12.754 0 7.032-5.721 12.753-12.754 12.753s-12.754-5.721-12.754-12.753a7.726 7.726 0 1 0-15.452 0c0 12.874 8.673 23.753 20.48 27.122v3.598a7.726 7.726 0 1 0 15.452 0v-3.598c11.807-3.369 20.48-14.248 20.48-27.122-.001-15.554-12.654-28.207-28.207-28.207z" data-original="#ffe278" class=""></path><path fill="#ff9959" d="M375.471 307.2c-4.022 0-7.973.299-11.847.837 41.518 5.77 73.486 41.39 73.486 84.496s-31.968 78.726-73.486 84.496c3.874.538 7.825.837 11.847.837 47.128 0 85.333-38.205 85.333-85.333S422.599 307.2 375.471 307.2z" data-original="#ff9959"></path></g></svg>