<svg id="Capa_1" enable-background="new 0 0 511.883 511.883" height="512" viewBox="0 0 511.883 511.883" width="512" xmlns="http://www.w3.org/2000/svg"><g><path d="m384.906 193.554 7.559 15.117c10.759 21.546.39 48.153-27.466 55.898-.352.117-38.936 10.474-50.654-24.624l-11.294-33.926 32.139-32.153-79.307-118.945-79.307 118.945 32.139 32.153-11.294 33.926c-12.925 38.725-66.118 29.608-78.662 2.3-4.951-10.752-4.746-22.983.542-33.574l7.544-15.103-126.845-45.278 60.883 233.672 30 30h165 165l30-30 61-233.657z" fill="#fed843"/><path d="m450.883 381.962 61-233.657-126.977 45.249 7.559 15.117c10.759 21.546.39 48.153-27.466 55.898-.352.117-38.936 10.474-50.654-24.624l-11.294-33.926 32.139-32.153-79.307-118.945v357.041h165z" fill="#fabe2c"/><path d="m255.883 381.962h-195v75h195 195v-75z" fill="#fabe2c"/><path d="m255.883 381.962h195v75h-195z" fill="#ff9100"/><path d="m202.85 328.929h106.066v106.066h-106.066z" fill="#fabe2c" transform="matrix(.707 -.707 .707 .707 -195.142 292.811)"/><path d="m255.883 306.962v150l75-75z" fill="#ff9100"/></g></svg>