<svg xmlns="http://www.w3.org/2000/svg" version="1.1" xmlns:xlink="http://www.w3.org/1999/xlink" xmlns:svgjs="http://svgjs.com/svgjs" width="512" height="512" x="0" y="0" viewBox="0 0 512 512" style="enable-background:new 0 0 512 512" xml:space="preserve"><g><path fill="#348fd9" d="M288 24 56 256l26.58 26.58L200 400l232-232V24zm96 64a16 16 0 1 1 16-16 15.954 15.954 0 0 1-16 16z" data-original="#348fd9"></path><path fill="#3086cd" d="M409.7 24q-9.03 17.415-18.87 33.53a16 16 0 1 1-17.3 26.57C297.67 193.16 193 253.73 82.58 282.58L200 400l232-232V24z" data-original="#3086cd"></path><path fill="#e0e0de" d="M463.363 128H432v-16h31.536c8.605 0 16.02-6.6 16.444-15.194A16.016 16.016 0 0 0 464 80h-72a8 8 0 0 1-8-8 8 8 0 0 1 8-8h72a32.037 32.037 0 0 1 32 31.446c.3 17.902-14.733 32.554-32.637 32.554z" data-original="#e0e0de"></path><path fill="#ffb531" d="M360.1 152c14.868-9.829 7.3-32.3-10.715-31.821 6.042-16.386-13.769-30.275-28.051-19.667-5.093-16.683-29.581-16.683-34.674 0-14.282-10.608-34.093 3.281-28.051 19.667C240.6 119.7 233.029 142.171 247.9 152c-14.868 9.829-7.3 32.3 10.715 31.821-6.042 16.386 13.769 30.275 28.051 19.667 5.093 16.683 29.581 16.683 34.674 0 14.282 10.608 34.093-3.281 28.051-19.667 18.009.479 25.58-21.992 10.709-31.821zM104 64a54.973 54.973 0 0 0 40-40 54.973 54.973 0 0 0 40 40 54.973 54.973 0 0 0-40 40 54.973 54.973 0 0 0-40-40z" data-original="#ffb531"></path><g fill="#2d7dbf"><path d="m90.31 258.327 47.992-47.992 11.312 11.312-47.992 47.992zM114.304 282.327l47.992-47.992 11.312 11.312-47.992 47.992zM138.299 306.327l47.992-47.992 11.312 11.312-47.992 47.992zM162.294 330.327l47.992-47.992 11.312 11.312-47.992 47.992zM210.287 330.332l23.996-23.996 11.312 11.312-23.996 23.996zM186.304 181.66l11.312-11.313 19.497 19.497-11.312 11.312zM216.297 211.662l11.312-11.312 49.993 49.993-11.312 11.312zM170.3 213.658l11.313-11.312 63.99 63.99-11.312 11.312z" fill="#2d7dbf" data-original="#2d7dbf"></path></g><path fill="#a0dde5" d="m338.28 298.35 60.324-60.324 11.312 11.312-60.324 60.324zM410.276 226.364l15.997-15.997 11.312 11.312-15.997 15.997z" data-original="#a0dde5"></path><path fill="#4d5e78" d="M416 344h72v144h-72z" data-original="#4d5e78"></path><path fill="#353f52" d="M452 432a12 12 0 1 0 12 12 12.013 12.013 0 0 0-12-12z" data-original="#353f52"></path><path fill="#fec9a3" d="M416 368v120H167.11a63.874 63.874 0 0 1-28.62-6.76l-98.17-49.08a29.524 29.524 0 0 1 13.43-55.93l3.44.02a29.52 29.52 0 0 1 12.91 3.09L160 424h32a32 32 0 0 1 0-64h69.33l15.84-8.91a117.521 117.521 0 0 1 125.27 6.34c1.96 1.38 3.87 2.82 5.75 4.32z" data-original="#fec9a3"></path><path fill="#fec093" d="M416 368v120H203.33c75.39-23.68 145.47-64.83 199.11-130.57 1.96 1.38 3.87 2.82 5.75 4.32z" data-original="#fec093"></path><path fill="#feb784" d="M264 432h-72a8 8 0 0 1 0-16h72a8 8 0 0 1 0 16z" data-original="#feb784"></path></g></svg>