<svg enable-background="new 0 0 512 512" height="512" viewBox="0 0 512 512" width="512" xmlns="http://www.w3.org/2000/svg"><g id="_x32_1_Customer_Service"><g><path d="m118.489 378.886v-114.942c0-6.49-5.262-11.755-11.755-11.755h-31.871c-27.961 0-50.706 22.745-50.706 50.702v56.518c0 27.957 22.745 50.702 50.706 50.702h12.398c17.219-.001 31.228-14.006 31.228-31.225zm-70.822-19.477v-56.518c0-14.992 12.199-27.191 27.195-27.191h20.116v103.187c0 4.255-3.463 7.714-7.718 7.714h-12.397c-14.997-.001-27.196-12.2-27.196-27.192z"/><path d="m437.137 252.189h-31.871c-6.494 0-11.755 5.265-11.755 11.755v134.411c0 .078.022.15.023.228v9.683c0 26.579-21.62 48.199-48.195 48.199h-25.926c-7.176-17.947-30.543-30.781-59.092-30.781-34.443 0-61.42 18.651-61.42 42.459 0 23.862 26.977 42.551 61.42 42.551 28.482 0 51.811-12.798 59.047-30.72h25.972c38.917 0 70.621-31.179 71.612-69.865h20.186c27.961 0 50.706-22.745 50.706-50.702v-56.518c-.001-27.955-22.746-50.7-50.707-50.7zm-176.817 234.996c-21.697 0-37.91-10.056-37.91-19.041 0-8.946 16.213-18.949 37.91-18.949s37.906 10.003 37.906 18.949c0 8.985-16.209 19.041-37.906 19.041zm204.013-127.776c0 14.992-12.199 27.191-27.195 27.191h-20.093v-7.722c0-.078-.022-.15-.023-.228v-102.951h20.116c14.996 0 27.195 12.199 27.195 27.191z"/><path d="m405.289 236.485c6.494 0 11.755-5.265 11.755-11.755v-62.38c0-88.8-72.245-161.045-161.044-161.045-88.993 0-161.044 72.032-161.044 161.044v62.38c0 6.49 5.262 11.755 11.755 11.755s11.755-5.265 11.755-11.755v-62.38c0-76.003 61.516-137.534 137.534-137.534 75.835 0 137.534 61.699 137.534 137.534v62.38c0 6.49 5.261 11.756 11.755 11.756z"/></g></g></svg>