<svg id="Capa_1" enable-background="new 0 0 512 512" height="512" viewBox="0 0 512 512" width="512" xmlns="http://www.w3.org/2000/svg"><g><path d="m290.464 473.882-34.464-8.876-34.464 8.876v18.194c0 11.004 8.92 19.924 19.924 19.924h29.079c11.004 0 19.924-8.92 19.924-19.924v-18.194z" fill="#8ac9fe"/><path d="m256.904 473.882v18.194c0 10.246-7.735 18.682-17.684 19.795.736.082 1.482.129 2.24.129h29.079c11.004 0 19.924-8.92 19.924-19.924v-18.194l-26.849-6.915z" fill="#60b7ff"/><path d="m320.058 408.068-4.333 7.612 4.333 7.611v13.386l-.995 15.223c-3.349 12.655-14.878 21.982-28.599 21.982h-68.93c-13.721 0-25.25-9.327-28.599-21.982l-.995-15.223v-13.387l4.719-7.611-4.719-7.612v-20.866l64.06-9.823 41.417 6.353 22.642 3.471v20.866z" fill="#b6c4cf"/><path d="m320.058 408.068-4.333 7.612 4.333 7.611v13.386l-.995 15.223c-3.349 12.655-14.878 21.982-28.599 21.982h-34.464c16.349 0 29.593-13.254 29.593-29.593v-57.086l11.823-3.471 22.642 3.471z" fill="#9facba"/><g id="_x3C_Radial_Repeat_x3E__18_"><g><path d="m295.802 46.18c-1.947 0-3.896-.743-5.382-2.229-2.973-2.972-2.973-7.792-.001-10.764l10.232-10.233c2.973-2.973 7.793-2.972 10.764-.001 2.973 2.972 2.973 7.792.001 10.764l-10.232 10.233c-1.486 1.487-3.435 2.23-5.382 2.23z" fill="#d8ecfe"/></g></g><g id="_x3C_Radial_Repeat_x3E__17_"><g><path d="m256 29.694c-4.204 0-7.611-3.407-7.611-7.611v-14.472c0-4.204 3.407-7.611 7.611-7.611s7.612 3.407 7.612 7.611v14.471c0 4.204-3.408 7.612-7.612 7.612z" fill="#d8ecfe"/></g></g><g id="_x3C_Radial_Repeat_x3E__16_"><g><path d="m216.198 46.18c-1.948 0-3.896-.743-5.383-2.23l-10.232-10.233c-2.972-2.972-2.972-7.792.001-10.764 2.972-2.971 7.792-2.972 10.764.001l10.232 10.233c2.972 2.972 2.972 7.792-.001 10.764-1.485 1.486-3.433 2.229-5.381 2.229z" fill="#d8ecfe"/></g></g><g fill="#fee45a"><path d="m467.802 100.807h-5.4v-5.4c0-4.204-3.407-7.611-7.612-7.611s-7.611 3.407-7.611 7.611v5.4h-5.4c-4.204 0-7.611 3.407-7.611 7.611s3.407 7.611 7.611 7.611h5.4v5.4c0 4.204 3.407 7.611 7.611 7.611s7.612-3.407 7.612-7.611v-5.4h5.4c4.204 0 7.611-3.407 7.611-7.611s-3.407-7.611-7.611-7.611z"/><path d="m70.222 351.704h-5.4v-5.4c0-4.204-3.407-7.612-7.611-7.612s-7.611 3.407-7.611 7.612v5.4h-5.4c-4.204 0-7.611 3.407-7.611 7.611s3.407 7.612 7.611 7.612h5.4v5.4c0 4.204 3.407 7.612 7.611 7.612s7.611-3.407 7.611-7.612v-5.4h5.4c4.204 0 7.611-3.407 7.611-7.612s-3.407-7.611-7.611-7.611z"/></g><g><g><path d="m191.942 408.068h128.117v15.223h-128.117z" fill="#7a8c98"/></g><g><path d="m320.058 436.677v7.611c0 2.629-.345 5.186-.995 7.612h-126.127c-.65-2.425-.995-4.983-.995-7.612v-7.611z" fill="#7a8c98"/></g></g><path d="m285.593 408.068h34.465v15.223h-34.465z" fill="#6b7e89"/><path d="m285.593 436.677h34.465v7.611c0 2.629-.345 5.186-.995 7.612h-34.465c.65-2.425.995-4.983.995-7.612z" fill="#6b7e89"/><path d="m395.236 206.37c0-78.012-64.157-141.039-142.587-139.197-73.972 1.738-134.256 62.147-135.852 136.122-.804 37.237 13.032 71.22 36.133 96.637 12.08 13.291 20.613 29.414 25.5 46.696l13.509 40.576h128.12l13.914-42.008c4.673-16.527 12.845-31.955 24.479-44.59 22.831-24.791 36.784-57.876 36.784-94.236z" fill="#fee45a"/><path d="m395.24 206.373c0 36.352-13.954 69.437-36.789 94.23-11.63 12.635-19.8 28.061-24.478 44.593l-13.914 42.005h-34.465l13.914-42.005c4.678-16.532 12.848-31.958 24.479-44.593 22.835-24.793 36.789-57.878 36.789-94.23 0-71.041-53.209-129.669-121.946-138.174 4.547-.578 9.154-.913 13.822-1.025 78.428-1.847 142.588 61.186 142.588 139.199z" fill="#fed402"/><path d="m234.117 257.01c-4.038 0-7.91-1.604-10.764-4.459l-33.308-33.309c-3.166-3.166-3.166-8.299 0-11.465l10.063-10.063c3.166-3.166 8.299-3.166 11.465 0l20.652 20.653c1.045 1.045 2.739 1.045 3.784 0l64.418-64.418c3.166-3.166 8.299-3.166 11.465 0l10.063 10.063c3.166 3.166 3.166 8.299 0 11.465l-77.074 77.074c-2.854 2.856-6.726 4.459-10.764 4.459z" fill="#22b27f"/><g fill="#09a76d"><path d="m200.47 207.372 7.228 7.229c2.411 2.412 5.682 3.766 9.093 3.766h15.434l-20.652-20.653c-3.166-3.166-8.299-3.166-11.465 0l-7.597 7.597c2.737-.779 5.803-.094 7.959 2.061z"/><path d="m321.955 164.012-10.063-10.063c-3.166-3.166-8.299-3.166-11.465 0l-4.648 4.648 5.415 5.415c3.166 3.166 3.166 8.299 0 11.465l-70.68 69.955c-2.641 2.642-6.157 4.195-9.866 4.414l2.704 2.705c2.854 2.855 6.726 4.459 10.764 4.459s7.91-1.604 10.764-4.459l77.074-77.074c3.167-3.166 3.167-8.299.001-11.465z"/></g></g></svg>