<svg width="887" height="747" viewBox="0 0 887 747" fill="none" xmlns="http://www.w3.org/2000/svg">
<circle cx="2.5" cy="2.5" r="2.5" fill="#5E5E5E"/>
<circle cx="65.5" cy="2.5" r="2.5" fill="#5E5E5E"/>
<circle cx="128.5" cy="2.5" r="2.5" fill="#5E5E5E"/>
<circle cx="191.5" cy="2.5" r="2.5" fill="#5E5E5E"/>
<circle cx="254.5" cy="2.5" r="2.5" fill="#5E5E5E"/>
<circle cx="317.5" cy="2.5" r="2.5" fill="#5E5E5E"/>
<circle cx="380.5" cy="2.5" r="2.5" fill="#5E5E5E"/>
<circle cx="443.5" cy="2.5" r="2.5" fill="#5E5E5E"/>
<circle cx="506.5" cy="2.5" r="2.5" fill="#5E5E5E"/>
<circle cx="569.5" cy="2.5" r="2.5" fill="#5E5E5E"/>
<circle cx="632.5" cy="2.5" r="2.5" fill="#5E5E5E"/>
<circle cx="695.5" cy="2.5" r="2.5" fill="#5E5E5E"/>
<circle cx="758.5" cy="2.5" r="2.5" fill="#5E5E5E"/>
<circle cx="821.5" cy="2.5" r="2.5" fill="#5E5E5E"/>
<circle cx="884.5" cy="2.5" r="2.5" fill="#5E5E5E"/>
<circle cx="2.5" cy="55.5" r="2.5" fill="#5E5E5E"/>
<circle cx="65.5" cy="55.5" r="2.5" fill="#5E5E5E"/>
<circle cx="128.5" cy="55.5" r="2.5" fill="#5E5E5E"/>
<circle cx="191.5" cy="55.5" r="2.5" fill="#5E5E5E"/>
<circle cx="254.5" cy="55.5" r="2.5" fill="#5E5E5E"/>
<circle cx="317.5" cy="55.5" r="2.5" fill="#5E5E5E"/>
<circle cx="380.5" cy="55.5" r="2.5" fill="#5E5E5E"/>
<circle cx="443.5" cy="55.5" r="2.5" fill="#5E5E5E"/>
<circle cx="506.5" cy="55.5" r="2.5" fill="#5E5E5E"/>
<circle cx="569.5" cy="55.5" r="2.5" fill="#5E5E5E"/>
<circle cx="632.5" cy="55.5" r="2.5" fill="#5E5E5E"/>
<circle cx="695.5" cy="55.5" r="2.5" fill="#5E5E5E"/>
<circle cx="758.5" cy="55.5" r="2.5" fill="#5E5E5E"/>
<circle cx="821.5" cy="55.5" r="2.5" fill="#5E5E5E"/>
<circle cx="884.5" cy="55.5" r="2.5" fill="#5E5E5E"/>
<circle cx="2.5" cy="108.5" r="2.5" fill="#5E5E5E"/>
<circle cx="65.5" cy="108.5" r="2.5" fill="#5E5E5E"/>
<circle cx="128.5" cy="108.5" r="2.5" fill="#5E5E5E"/>
<circle cx="191.5" cy="108.5" r="2.5" fill="#5E5E5E"/>
<circle cx="254.5" cy="108.5" r="2.5" fill="#5E5E5E"/>
<circle cx="317.5" cy="108.5" r="2.5" fill="#5E5E5E"/>
<circle cx="380.5" cy="108.5" r="2.5" fill="#5E5E5E"/>
<circle cx="443.5" cy="108.5" r="2.5" fill="#5E5E5E"/>
<circle cx="506.5" cy="108.5" r="2.5" fill="#5E5E5E"/>
<circle cx="569.5" cy="108.5" r="2.5" fill="#5E5E5E"/>
<circle cx="632.5" cy="108.5" r="2.5" fill="#5E5E5E"/>
<circle cx="695.5" cy="108.5" r="2.5" fill="#5E5E5E"/>
<circle cx="758.5" cy="108.5" r="2.5" fill="#5E5E5E"/>
<circle cx="821.5" cy="108.5" r="2.5" fill="#5E5E5E"/>
<circle cx="884.5" cy="108.5" r="2.5" fill="#5E5E5E"/>
<circle cx="2.5" cy="320.5" r="2.5" fill="#5E5E5E"/>
<circle cx="65.5" cy="320.5" r="2.5" fill="#5E5E5E"/>
<circle cx="128.5" cy="320.5" r="2.5" fill="#5E5E5E"/>
<circle cx="191.5" cy="320.5" r="2.5" fill="#5E5E5E"/>
<circle cx="254.5" cy="320.5" r="2.5" fill="#5E5E5E"/>
<circle cx="317.5" cy="320.5" r="2.5" fill="#5E5E5E"/>
<circle cx="380.5" cy="320.5" r="2.5" fill="#5E5E5E"/>
<circle cx="443.5" cy="320.5" r="2.5" fill="#5E5E5E"/>
<circle cx="506.5" cy="320.5" r="2.5" fill="#5E5E5E"/>
<circle cx="569.5" cy="320.5" r="2.5" fill="#5E5E5E"/>
<circle cx="632.5" cy="320.5" r="2.5" fill="#5E5E5E"/>
<circle cx="695.5" cy="320.5" r="2.5" fill="#5E5E5E"/>
<circle cx="758.5" cy="320.5" r="2.5" fill="#5E5E5E"/>
<circle cx="821.5" cy="320.5" r="2.5" fill="#5E5E5E"/>
<circle cx="884.5" cy="320.5" r="2.5" fill="#5E5E5E"/>
<circle cx="2.5" cy="373.5" r="2.5" fill="#5E5E5E"/>
<circle cx="65.5" cy="373.5" r="2.5" fill="#5E5E5E"/>
<circle cx="128.5" cy="373.5" r="2.5" fill="#5E5E5E"/>
<circle cx="191.5" cy="373.5" r="2.5" fill="#5E5E5E"/>
<circle cx="254.5" cy="373.5" r="2.5" fill="#5E5E5E"/>
<circle cx="317.5" cy="373.5" r="2.5" fill="#5E5E5E"/>
<circle cx="380.5" cy="373.5" r="2.5" fill="#5E5E5E"/>
<circle cx="443.5" cy="373.5" r="2.5" fill="#5E5E5E"/>
<circle cx="506.5" cy="373.5" r="2.5" fill="#5E5E5E"/>
<circle cx="569.5" cy="373.5" r="2.5" fill="#5E5E5E"/>
<circle cx="632.5" cy="373.5" r="2.5" fill="#5E5E5E"/>
<circle cx="695.5" cy="373.5" r="2.5" fill="#5E5E5E"/>
<circle cx="758.5" cy="373.5" r="2.5" fill="#5E5E5E"/>
<circle cx="821.5" cy="373.5" r="2.5" fill="#5E5E5E"/>
<circle cx="884.5" cy="373.5" r="2.5" fill="#5E5E5E"/>
<circle cx="2.5" cy="426.5" r="2.5" fill="#5E5E5E"/>
<circle cx="65.5" cy="426.5" r="2.5" fill="#5E5E5E"/>
<circle cx="128.5" cy="426.5" r="2.5" fill="#5E5E5E"/>
<circle cx="191.5" cy="426.5" r="2.5" fill="#5E5E5E"/>
<circle cx="254.5" cy="426.5" r="2.5" fill="#5E5E5E"/>
<circle cx="317.5" cy="426.5" r="2.5" fill="#5E5E5E"/>
<circle cx="380.5" cy="426.5" r="2.5" fill="#5E5E5E"/>
<circle cx="443.5" cy="426.5" r="2.5" fill="#5E5E5E"/>
<circle cx="506.5" cy="426.5" r="2.5" fill="#5E5E5E"/>
<circle cx="569.5" cy="426.5" r="2.5" fill="#5E5E5E"/>
<circle cx="632.5" cy="426.5" r="2.5" fill="#5E5E5E"/>
<circle cx="695.5" cy="426.5" r="2.5" fill="#5E5E5E"/>
<circle cx="758.5" cy="426.5" r="2.5" fill="#5E5E5E"/>
<circle cx="821.5" cy="426.5" r="2.5" fill="#5E5E5E"/>
<circle cx="884.5" cy="426.5" r="2.5" fill="#5E5E5E"/>
<circle cx="2.5" cy="479.5" r="2.5" fill="#5E5E5E"/>
<circle cx="65.5" cy="479.5" r="2.5" fill="#5E5E5E"/>
<circle cx="128.5" cy="479.5" r="2.5" fill="#5E5E5E"/>
<circle cx="191.5" cy="479.5" r="2.5" fill="#5E5E5E"/>
<circle cx="254.5" cy="479.5" r="2.5" fill="#5E5E5E"/>
<circle cx="317.5" cy="479.5" r="2.5" fill="#5E5E5E"/>
<circle cx="380.5" cy="479.5" r="2.5" fill="#5E5E5E"/>
<circle cx="443.5" cy="479.5" r="2.5" fill="#5E5E5E"/>
<circle cx="506.5" cy="479.5" r="2.5" fill="#5E5E5E"/>
<circle cx="569.5" cy="479.5" r="2.5" fill="#5E5E5E"/>
<circle cx="632.5" cy="479.5" r="2.5" fill="#5E5E5E"/>
<circle cx="695.5" cy="479.5" r="2.5" fill="#5E5E5E"/>
<circle cx="758.5" cy="479.5" r="2.5" fill="#5E5E5E"/>
<circle cx="821.5" cy="479.5" r="2.5" fill="#5E5E5E"/>
<circle cx="884.5" cy="479.5" r="2.5" fill="#5E5E5E"/>
<circle cx="2.5" cy="532.5" r="2.5" fill="#5E5E5E"/>
<circle cx="65.5" cy="532.5" r="2.5" fill="#5E5E5E"/>
<circle cx="128.5" cy="532.5" r="2.5" fill="#5E5E5E"/>
<circle cx="191.5" cy="532.5" r="2.5" fill="#5E5E5E"/>
<circle cx="254.5" cy="532.5" r="2.5" fill="#5E5E5E"/>
<circle cx="317.5" cy="532.5" r="2.5" fill="#5E5E5E"/>
<circle cx="380.5" cy="532.5" r="2.5" fill="#5E5E5E"/>
<circle cx="443.5" cy="532.5" r="2.5" fill="#5E5E5E"/>
<circle cx="506.5" cy="532.5" r="2.5" fill="#5E5E5E"/>
<circle cx="569.5" cy="532.5" r="2.5" fill="#5E5E5E"/>
<circle cx="632.5" cy="532.5" r="2.5" fill="#5E5E5E"/>
<circle cx="695.5" cy="532.5" r="2.5" fill="#5E5E5E"/>
<circle cx="758.5" cy="532.5" r="2.5" fill="#5E5E5E"/>
<circle cx="821.5" cy="532.5" r="2.5" fill="#5E5E5E"/>
<circle cx="884.5" cy="532.5" r="2.5" fill="#5E5E5E"/>
<circle cx="2.5" cy="585.5" r="2.5" fill="#5E5E5E"/>
<circle cx="65.5" cy="585.5" r="2.5" fill="#5E5E5E"/>
<circle cx="128.5" cy="585.5" r="2.5" fill="#5E5E5E"/>
<circle cx="191.5" cy="585.5" r="2.5" fill="#5E5E5E"/>
<circle cx="254.5" cy="585.5" r="2.5" fill="#5E5E5E"/>
<circle cx="317.5" cy="585.5" r="2.5" fill="#5E5E5E"/>
<circle cx="380.5" cy="585.5" r="2.5" fill="#5E5E5E"/>
<circle cx="443.5" cy="585.5" r="2.5" fill="#5E5E5E"/>
<circle cx="506.5" cy="585.5" r="2.5" fill="#5E5E5E"/>
<circle cx="569.5" cy="585.5" r="2.5" fill="#5E5E5E"/>
<circle cx="632.5" cy="585.5" r="2.5" fill="#5E5E5E"/>
<circle cx="695.5" cy="585.5" r="2.5" fill="#5E5E5E"/>
<circle cx="758.5" cy="585.5" r="2.5" fill="#5E5E5E"/>
<circle cx="821.5" cy="585.5" r="2.5" fill="#5E5E5E"/>
<circle cx="884.5" cy="585.5" r="2.5" fill="#5E5E5E"/>
<circle cx="2.5" cy="638.5" r="2.5" fill="#5E5E5E"/>
<circle cx="65.5" cy="638.5" r="2.5" fill="#5E5E5E"/>
<circle cx="128.5" cy="638.5" r="2.5" fill="#5E5E5E"/>
<circle cx="191.5" cy="638.5" r="2.5" fill="#5E5E5E"/>
<circle cx="254.5" cy="638.5" r="2.5" fill="#5E5E5E"/>
<circle cx="317.5" cy="638.5" r="2.5" fill="#5E5E5E"/>
<circle cx="380.5" cy="638.5" r="2.5" fill="#5E5E5E"/>
<circle cx="443.5" cy="638.5" r="2.5" fill="#5E5E5E"/>
<circle cx="506.5" cy="638.5" r="2.5" fill="#5E5E5E"/>
<circle cx="569.5" cy="638.5" r="2.5" fill="#5E5E5E"/>
<circle cx="632.5" cy="638.5" r="2.5" fill="#5E5E5E"/>
<circle cx="695.5" cy="638.5" r="2.5" fill="#5E5E5E"/>
<circle cx="758.5" cy="638.5" r="2.5" fill="#5E5E5E"/>
<circle cx="821.5" cy="638.5" r="2.5" fill="#5E5E5E"/>
<circle cx="884.5" cy="638.5" r="2.5" fill="#5E5E5E"/>
<circle cx="2.5" cy="691.5" r="2.5" fill="#5E5E5E"/>
<circle cx="65.5" cy="691.5" r="2.5" fill="#5E5E5E"/>
<circle cx="128.5" cy="691.5" r="2.5" fill="#5E5E5E"/>
<circle cx="191.5" cy="691.5" r="2.5" fill="#5E5E5E"/>
<circle cx="254.5" cy="691.5" r="2.5" fill="#5E5E5E"/>
<circle cx="317.5" cy="691.5" r="2.5" fill="#5E5E5E"/>
<circle cx="380.5" cy="691.5" r="2.5" fill="#5E5E5E"/>
<circle cx="443.5" cy="691.5" r="2.5" fill="#5E5E5E"/>
<circle cx="506.5" cy="691.5" r="2.5" fill="#5E5E5E"/>
<circle cx="569.5" cy="691.5" r="2.5" fill="#5E5E5E"/>
<circle cx="632.5" cy="691.5" r="2.5" fill="#5E5E5E"/>
<circle cx="695.5" cy="691.5" r="2.5" fill="#5E5E5E"/>
<circle cx="758.5" cy="691.5" r="2.5" fill="#5E5E5E"/>
<circle cx="821.5" cy="691.5" r="2.5" fill="#5E5E5E"/>
<circle cx="884.5" cy="691.5" r="2.5" fill="#5E5E5E"/>
<circle cx="2.5" cy="744.5" r="2.5" fill="#5E5E5E"/>
<circle cx="65.5" cy="744.5" r="2.5" fill="#5E5E5E"/>
<circle cx="128.5" cy="744.5" r="2.5" fill="#5E5E5E"/>
<circle cx="191.5" cy="744.5" r="2.5" fill="#5E5E5E"/>
<circle cx="254.5" cy="744.5" r="2.5" fill="#5E5E5E"/>
<circle cx="317.5" cy="744.5" r="2.5" fill="#5E5E5E"/>
<circle cx="380.5" cy="744.5" r="2.5" fill="#5E5E5E"/>
<circle cx="443.5" cy="744.5" r="2.5" fill="#5E5E5E"/>
<circle cx="506.5" cy="744.5" r="2.5" fill="#5E5E5E"/>
<circle cx="569.5" cy="744.5" r="2.5" fill="#5E5E5E"/>
<circle cx="632.5" cy="744.5" r="2.5" fill="#5E5E5E"/>
<circle cx="695.5" cy="744.5" r="2.5" fill="#5E5E5E"/>
<circle cx="758.5" cy="744.5" r="2.5" fill="#5E5E5E"/>
<circle cx="821.5" cy="744.5" r="2.5" fill="#5E5E5E"/>
<circle cx="884.5" cy="744.5" r="2.5" fill="#5E5E5E"/>
<circle cx="2.5" cy="161.5" r="2.5" fill="#5E5E5E"/>
<circle cx="65.5" cy="161.5" r="2.5" fill="#5E5E5E"/>
<circle cx="128.5" cy="161.5" r="2.5" fill="#5E5E5E"/>
<circle cx="191.5" cy="161.5" r="2.5" fill="#5E5E5E"/>
<circle cx="254.5" cy="161.5" r="2.5" fill="#5E5E5E"/>
<circle cx="317.5" cy="161.5" r="2.5" fill="#5E5E5E"/>
<circle cx="380.5" cy="161.5" r="2.5" fill="#5E5E5E"/>
<circle cx="443.5" cy="161.5" r="2.5" fill="#5E5E5E"/>
<circle cx="506.5" cy="161.5" r="2.5" fill="#5E5E5E"/>
<circle cx="569.5" cy="161.5" r="2.5" fill="#5E5E5E"/>
<circle cx="632.5" cy="161.5" r="2.5" fill="#5E5E5E"/>
<circle cx="695.5" cy="161.5" r="2.5" fill="#5E5E5E"/>
<circle cx="758.5" cy="161.5" r="2.5" fill="#5E5E5E"/>
<circle cx="821.5" cy="161.5" r="2.5" fill="#5E5E5E"/>
<circle cx="884.5" cy="161.5" r="2.5" fill="#5E5E5E"/>
<circle cx="2.5" cy="214.5" r="2.5" fill="#5E5E5E"/>
<circle cx="65.5" cy="214.5" r="2.5" fill="#5E5E5E"/>
<circle cx="128.5" cy="214.5" r="2.5" fill="#5E5E5E"/>
<circle cx="191.5" cy="214.5" r="2.5" fill="#5E5E5E"/>
<circle cx="254.5" cy="214.5" r="2.5" fill="#5E5E5E"/>
<circle cx="317.5" cy="214.5" r="2.5" fill="#5E5E5E"/>
<circle cx="380.5" cy="214.5" r="2.5" fill="#5E5E5E"/>
<circle cx="443.5" cy="214.5" r="2.5" fill="#5E5E5E"/>
<circle cx="506.5" cy="214.5" r="2.5" fill="#5E5E5E"/>
<circle cx="569.5" cy="214.5" r="2.5" fill="#5E5E5E"/>
<circle cx="632.5" cy="214.5" r="2.5" fill="#5E5E5E"/>
<circle cx="695.5" cy="214.5" r="2.5" fill="#5E5E5E"/>
<circle cx="758.5" cy="214.5" r="2.5" fill="#5E5E5E"/>
<circle cx="821.5" cy="214.5" r="2.5" fill="#5E5E5E"/>
<circle cx="884.5" cy="214.5" r="2.5" fill="#5E5E5E"/>
<circle cx="2.5" cy="267.5" r="2.5" fill="#5E5E5E"/>
<circle cx="65.5" cy="267.5" r="2.5" fill="#5E5E5E"/>
<circle cx="128.5" cy="267.5" r="2.5" fill="#5E5E5E"/>
<circle cx="191.5" cy="267.5" r="2.5" fill="#5E5E5E"/>
<circle cx="254.5" cy="267.5" r="2.5" fill="#5E5E5E"/>
<circle cx="317.5" cy="267.5" r="2.5" fill="#5E5E5E"/>
<circle cx="380.5" cy="267.5" r="2.5" fill="#5E5E5E"/>
<circle cx="443.5" cy="267.5" r="2.5" fill="#5E5E5E"/>
<circle cx="506.5" cy="267.5" r="2.5" fill="#5E5E5E"/>
<circle cx="569.5" cy="267.5" r="2.5" fill="#5E5E5E"/>
<circle cx="632.5" cy="267.5" r="2.5" fill="#5E5E5E"/>
<circle cx="695.5" cy="267.5" r="2.5" fill="#5E5E5E"/>
<circle cx="758.5" cy="267.5" r="2.5" fill="#5E5E5E"/>
<circle cx="821.5" cy="267.5" r="2.5" fill="#5E5E5E"/>
<circle cx="884.5" cy="267.5" r="2.5" fill="#5E5E5E"/>
</svg>
