<svg width="186" height="34" viewBox="0 0 186 34" fill="none" xmlns="http://www.w3.org/2000/svg">
<g clip-path="url(#clip0_9_61)">
<path d="M33.1977 12.5016L22.185 11.4802L17.8104 1.32215C17.5042 0.610877 16.4957 0.610877 16.1894 1.32215L11.8149 11.4803L0.802174 12.5016C0.0310663 12.5731 -0.280578 13.5322 0.301206 14.0433L8.61034 21.3428L6.17868 32.1322C6.00841 32.8876 6.82428 33.4804 7.49013 33.085L17 27.4382L26.5098 33.085C27.1756 33.4804 27.9916 32.8876 27.8213 32.1322L25.3896 21.3428L33.6987 14.0433C34.2805 13.5322 33.9688 12.5731 33.1977 12.5016Z" fill="#FFDC64"/>
<path d="M33.1977 12.5016L22.185 11.4802L17.8104 1.32215C17.5042 0.610877 16.4957 0.610877 16.1894 1.32215L11.8149 11.4803L0.802174 12.5016C0.0310663 12.5731 -0.280578 13.5322 0.301206 14.0433L8.61034 21.3428L6.17868 32.1322C6.00841 32.8876 6.82428 33.4804 7.49013 33.085L17 27.4382L26.5098 33.085C27.1756 33.4804 27.9916 32.8876 27.8213 32.1322L25.3896 21.3428L33.6987 14.0433C34.2805 13.5322 33.9688 12.5731 33.1977 12.5016Z" fill="#FFDC64"/>
<path d="M33.1977 12.5016L22.185 11.4802L17.8104 1.32215C17.5042 0.610877 16.4957 0.610877 16.1894 1.32215L11.8149 11.4803L0.802174 12.5016C0.0310663 12.5731 -0.280578 13.5322 0.301206 14.0433L8.61034 21.3428L6.17868 32.1322C6.00841 32.8876 6.82428 33.4804 7.49013 33.085L17 27.4382L26.5098 33.085C27.1756 33.4804 27.9916 32.8876 27.8213 32.1322L25.3896 21.3428L33.6987 14.0433C34.2805 13.5322 33.9688 12.5731 33.1977 12.5016Z" fill="#FFDC64"/>
<path d="M33.1977 12.5016L22.185 11.4802L17.8104 1.32215C17.5042 0.610877 16.4957 0.610877 16.1894 1.32215L11.8149 11.4803L0.802174 12.5016C0.0310663 12.5731 -0.280578 13.5322 0.301206 14.0433L8.61034 21.3428L6.17868 32.1322C6.00841 32.8876 6.82428 33.4804 7.49013 33.085L17 27.4382L26.5098 33.085C27.1756 33.4804 27.9916 32.8876 27.8213 32.1322L25.3896 21.3428L33.6987 14.0433C34.2805 13.5322 33.9688 12.5731 33.1977 12.5016Z" fill="#FFDC64"/>
<path d="M33.1977 12.5016L22.185 11.4802L17.8104 1.32215C17.5042 0.610877 16.4957 0.610877 16.1894 1.32215L11.8149 11.4803L0.802174 12.5016C0.0310663 12.5731 -0.280578 13.5322 0.301206 14.0433L8.61034 21.3428L6.17868 32.1322C6.00841 32.8876 6.82428 33.4804 7.49013 33.085L17 27.4382L26.5098 33.085C27.1756 33.4804 27.9916 32.8876 27.8213 32.1322L25.3896 21.3428L33.6987 14.0433C34.2805 13.5322 33.9688 12.5731 33.1977 12.5016Z" fill="#FFDC64"/>
<path d="M33.1977 12.5016L22.185 11.4802L17.8104 1.32215C17.5042 0.610877 16.4957 0.610877 16.1894 1.32215L11.8149 11.4803L0.802174 12.5016C0.0310663 12.5731 -0.280578 13.5322 0.301206 14.0433L8.61034 21.3428L6.17868 32.1322C6.00841 32.8876 6.82428 33.4804 7.49013 33.085L17 27.4382L26.5098 33.085C27.1756 33.4804 27.9916 32.8876 27.8213 32.1322L25.3896 21.3428L33.6987 14.0433C34.2805 13.5322 33.9688 12.5731 33.1977 12.5016Z" fill="#FFDC64"/>
<path d="M17.8104 1.32215C17.5042 0.610877 16.4957 0.610877 16.1894 1.32215L11.8149 11.4803L0.802174 12.5016C0.0310663 12.5731 -0.280578 13.5322 0.301206 14.0433L8.61034 21.3428L6.17868 32.1322C6.00841 32.8876 6.82428 33.4804 7.49013 33.085L9.61267 31.8247C9.90645 19.7321 15.5251 11.2163 19.9735 6.34485L17.8104 1.32215Z" fill="#FFC850"/>
</g>
<g clip-path="url(#clip1_9_61)">
<path d="M71.1977 12.5016L60.185 11.4802L55.8104 1.32215C55.5042 0.610877 54.4957 0.610877 54.1894 1.32215L49.8149 11.4803L38.8022 12.5016C38.0311 12.5731 37.7194 13.5322 38.3012 14.0433L46.6103 21.3428L44.1787 32.1322C44.0084 32.8876 44.8243 33.4804 45.4901 33.085L55 27.4382L64.5098 33.085C65.1756 33.4804 65.9916 32.8876 65.8213 32.1322L63.3896 21.3428L71.6987 14.0433C72.2805 13.5322 71.9688 12.5731 71.1977 12.5016Z" fill="#FFDC64"/>
<path d="M71.1977 12.5016L60.185 11.4802L55.8104 1.32215C55.5042 0.610877 54.4957 0.610877 54.1894 1.32215L49.8149 11.4803L38.8022 12.5016C38.0311 12.5731 37.7194 13.5322 38.3012 14.0433L46.6103 21.3428L44.1787 32.1322C44.0084 32.8876 44.8243 33.4804 45.4901 33.085L55 27.4382L64.5098 33.085C65.1756 33.4804 65.9916 32.8876 65.8213 32.1322L63.3896 21.3428L71.6987 14.0433C72.2805 13.5322 71.9688 12.5731 71.1977 12.5016Z" fill="#FFDC64"/>
<path d="M71.1977 12.5016L60.185 11.4802L55.8104 1.32215C55.5042 0.610877 54.4957 0.610877 54.1894 1.32215L49.8149 11.4803L38.8022 12.5016C38.0311 12.5731 37.7194 13.5322 38.3012 14.0433L46.6103 21.3428L44.1787 32.1322C44.0084 32.8876 44.8243 33.4804 45.4901 33.085L55 27.4382L64.5098 33.085C65.1756 33.4804 65.9916 32.8876 65.8213 32.1322L63.3896 21.3428L71.6987 14.0433C72.2805 13.5322 71.9688 12.5731 71.1977 12.5016Z" fill="#FFDC64"/>
<path d="M71.1977 12.5016L60.185 11.4802L55.8104 1.32215C55.5042 0.610877 54.4957 0.610877 54.1894 1.32215L49.8149 11.4803L38.8022 12.5016C38.0311 12.5731 37.7194 13.5322 38.3012 14.0433L46.6103 21.3428L44.1787 32.1322C44.0084 32.8876 44.8243 33.4804 45.4901 33.085L55 27.4382L64.5098 33.085C65.1756 33.4804 65.9916 32.8876 65.8213 32.1322L63.3896 21.3428L71.6987 14.0433C72.2805 13.5322 71.9688 12.5731 71.1977 12.5016Z" fill="#FFDC64"/>
<path d="M71.1977 12.5016L60.185 11.4802L55.8104 1.32215C55.5042 0.610877 54.4957 0.610877 54.1894 1.32215L49.8149 11.4803L38.8022 12.5016C38.0311 12.5731 37.7194 13.5322 38.3012 14.0433L46.6103 21.3428L44.1787 32.1322C44.0084 32.8876 44.8243 33.4804 45.4901 33.085L55 27.4382L64.5098 33.085C65.1756 33.4804 65.9916 32.8876 65.8213 32.1322L63.3896 21.3428L71.6987 14.0433C72.2805 13.5322 71.9688 12.5731 71.1977 12.5016Z" fill="#FFDC64"/>
<path d="M71.1977 12.5016L60.185 11.4802L55.8104 1.32215C55.5042 0.610877 54.4957 0.610877 54.1894 1.32215L49.8149 11.4803L38.8022 12.5016C38.0311 12.5731 37.7194 13.5322 38.3012 14.0433L46.6103 21.3428L44.1787 32.1322C44.0084 32.8876 44.8243 33.4804 45.4901 33.085L55 27.4382L64.5098 33.085C65.1756 33.4804 65.9916 32.8876 65.8213 32.1322L63.3896 21.3428L71.6987 14.0433C72.2805 13.5322 71.9688 12.5731 71.1977 12.5016Z" fill="#FFDC64"/>
<path d="M55.8104 1.32215C55.5042 0.610877 54.4957 0.610877 54.1894 1.32215L49.8149 11.4803L38.8022 12.5016C38.0311 12.5731 37.7194 13.5322 38.3012 14.0433L46.6103 21.3428L44.1787 32.1322C44.0084 32.8876 44.8243 33.4804 45.4901 33.085L47.6127 31.8247C47.9065 19.7321 53.5251 11.2163 57.9735 6.34485L55.8104 1.32215Z" fill="#FFC850"/>
</g>
<g clip-path="url(#clip2_9_61)">
<path d="M109.198 12.5016L98.185 11.4802L93.8104 1.32215C93.5042 0.610877 92.4957 0.610877 92.1894 1.32215L87.8149 11.4803L76.8022 12.5016C76.0311 12.5731 75.7194 13.5322 76.3012 14.0433L84.6103 21.3428L82.1787 32.1322C82.0084 32.8876 82.8243 33.4804 83.4901 33.085L93 27.4382L102.51 33.085C103.176 33.4804 103.992 32.8876 103.821 32.1322L101.39 21.3428L109.699 14.0433C110.28 13.5322 109.969 12.5731 109.198 12.5016Z" fill="#FFDC64"/>
<path d="M109.198 12.5016L98.185 11.4802L93.8104 1.32215C93.5042 0.610877 92.4957 0.610877 92.1894 1.32215L87.8149 11.4803L76.8022 12.5016C76.0311 12.5731 75.7194 13.5322 76.3012 14.0433L84.6103 21.3428L82.1787 32.1322C82.0084 32.8876 82.8243 33.4804 83.4901 33.085L93 27.4382L102.51 33.085C103.176 33.4804 103.992 32.8876 103.821 32.1322L101.39 21.3428L109.699 14.0433C110.28 13.5322 109.969 12.5731 109.198 12.5016Z" fill="#FFDC64"/>
<path d="M109.198 12.5016L98.185 11.4802L93.8104 1.32215C93.5042 0.610877 92.4957 0.610877 92.1894 1.32215L87.8149 11.4803L76.8022 12.5016C76.0311 12.5731 75.7194 13.5322 76.3012 14.0433L84.6103 21.3428L82.1787 32.1322C82.0084 32.8876 82.8243 33.4804 83.4901 33.085L93 27.4382L102.51 33.085C103.176 33.4804 103.992 32.8876 103.821 32.1322L101.39 21.3428L109.699 14.0433C110.28 13.5322 109.969 12.5731 109.198 12.5016Z" fill="#FFDC64"/>
<path d="M109.198 12.5016L98.185 11.4802L93.8104 1.32215C93.5042 0.610877 92.4957 0.610877 92.1894 1.32215L87.8149 11.4803L76.8022 12.5016C76.0311 12.5731 75.7194 13.5322 76.3012 14.0433L84.6103 21.3428L82.1787 32.1322C82.0084 32.8876 82.8243 33.4804 83.4901 33.085L93 27.4382L102.51 33.085C103.176 33.4804 103.992 32.8876 103.821 32.1322L101.39 21.3428L109.699 14.0433C110.28 13.5322 109.969 12.5731 109.198 12.5016Z" fill="#FFDC64"/>
<path d="M109.198 12.5016L98.185 11.4802L93.8104 1.32215C93.5042 0.610877 92.4957 0.610877 92.1894 1.32215L87.8149 11.4803L76.8022 12.5016C76.0311 12.5731 75.7194 13.5322 76.3012 14.0433L84.6103 21.3428L82.1787 32.1322C82.0084 32.8876 82.8243 33.4804 83.4901 33.085L93 27.4382L102.51 33.085C103.176 33.4804 103.992 32.8876 103.821 32.1322L101.39 21.3428L109.699 14.0433C110.28 13.5322 109.969 12.5731 109.198 12.5016Z" fill="#FFDC64"/>
<path d="M109.198 12.5016L98.185 11.4802L93.8104 1.32215C93.5042 0.610877 92.4957 0.610877 92.1894 1.32215L87.8149 11.4803L76.8022 12.5016C76.0311 12.5731 75.7194 13.5322 76.3012 14.0433L84.6103 21.3428L82.1787 32.1322C82.0084 32.8876 82.8243 33.4804 83.4901 33.085L93 27.4382L102.51 33.085C103.176 33.4804 103.992 32.8876 103.821 32.1322L101.39 21.3428L109.699 14.0433C110.28 13.5322 109.969 12.5731 109.198 12.5016Z" fill="#FFDC64"/>
<path d="M93.8104 1.32215C93.5042 0.610877 92.4957 0.610877 92.1894 1.32215L87.8149 11.4803L76.8022 12.5016C76.0311 12.5731 75.7194 13.5322 76.3012 14.0433L84.6103 21.3428L82.1787 32.1322C82.0084 32.8876 82.8243 33.4804 83.4901 33.085L85.6127 31.8247C85.9065 19.7321 91.5251 11.2163 95.9735 6.34485L93.8104 1.32215Z" fill="#FFC850"/>
</g>
<g clip-path="url(#clip3_9_61)">
<path d="M147.198 12.5016L136.185 11.4802L131.81 1.32215C131.504 0.610877 130.496 0.610877 130.189 1.32215L125.815 11.4803L114.802 12.5016C114.031 12.5731 113.719 13.5322 114.301 14.0433L122.61 21.3428L120.179 32.1322C120.008 32.8876 120.824 33.4804 121.49 33.085L131 27.4382L140.51 33.085C141.176 33.4804 141.992 32.8876 141.821 32.1322L139.39 21.3428L147.699 14.0433C148.281 13.5322 147.969 12.5731 147.198 12.5016Z" fill="#FFDC64"/>
<path d="M147.198 12.5016L136.185 11.4802L131.81 1.32215C131.504 0.610877 130.496 0.610877 130.189 1.32215L125.815 11.4803L114.802 12.5016C114.031 12.5731 113.719 13.5322 114.301 14.0433L122.61 21.3428L120.179 32.1322C120.008 32.8876 120.824 33.4804 121.49 33.085L131 27.4382L140.51 33.085C141.176 33.4804 141.992 32.8876 141.821 32.1322L139.39 21.3428L147.699 14.0433C148.28 13.5322 147.969 12.5731 147.198 12.5016Z" fill="#FFDC64"/>
<path d="M147.198 12.5016L136.185 11.4802L131.81 1.32215C131.504 0.610877 130.496 0.610877 130.189 1.32215L125.815 11.4803L114.802 12.5016C114.031 12.5731 113.719 13.5322 114.301 14.0433L122.61 21.3428L120.179 32.1322C120.008 32.8876 120.824 33.4804 121.49 33.085L131 27.4382L140.51 33.085C141.176 33.4804 141.992 32.8876 141.821 32.1322L139.39 21.3428L147.699 14.0433C148.28 13.5322 147.969 12.5731 147.198 12.5016Z" fill="#FFDC64"/>
<path d="M147.198 12.5016L136.185 11.4802L131.81 1.32215C131.504 0.610877 130.496 0.610877 130.189 1.32215L125.815 11.4803L114.802 12.5016C114.031 12.5731 113.719 13.5322 114.301 14.0433L122.61 21.3428L120.179 32.1322C120.008 32.8876 120.824 33.4804 121.49 33.085L131 27.4382L140.51 33.085C141.176 33.4804 141.992 32.8876 141.821 32.1322L139.39 21.3428L147.699 14.0433C148.28 13.5322 147.969 12.5731 147.198 12.5016Z" fill="#FFDC64"/>
<path d="M147.198 12.5016L136.185 11.4802L131.81 1.32215C131.504 0.610877 130.496 0.610877 130.189 1.32215L125.815 11.4803L114.802 12.5016C114.031 12.5731 113.719 13.5322 114.301 14.0433L122.61 21.3428L120.179 32.1322C120.008 32.8876 120.824 33.4804 121.49 33.085L131 27.4382L140.51 33.085C141.176 33.4804 141.992 32.8876 141.821 32.1322L139.39 21.3428L147.699 14.0433C148.28 13.5322 147.969 12.5731 147.198 12.5016Z" fill="#FFDC64"/>
<path d="M147.198 12.5016L136.185 11.4802L131.81 1.32215C131.504 0.610877 130.496 0.610877 130.189 1.32215L125.815 11.4803L114.802 12.5016C114.031 12.5731 113.719 13.5322 114.301 14.0433L122.61 21.3428L120.179 32.1322C120.008 32.8876 120.824 33.4804 121.49 33.085L131 27.4382L140.51 33.085C141.176 33.4804 141.992 32.8876 141.821 32.1322L139.39 21.3428L147.699 14.0433C148.28 13.5322 147.969 12.5731 147.198 12.5016Z" fill="#FFDC64"/>
<path d="M131.81 1.32215C131.504 0.610877 130.496 0.610877 130.189 1.32215L125.815 11.4803L114.802 12.5016C114.031 12.5731 113.719 13.5322 114.301 14.0433L122.61 21.3428L120.179 32.1322C120.008 32.8876 120.824 33.4804 121.49 33.085L123.613 31.8247C123.906 19.7321 129.525 11.2163 133.974 6.34485L131.81 1.32215Z" fill="#FFC850"/>
</g>
<g clip-path="url(#clip4_9_61)">
<path d="M185.198 12.5016L174.185 11.4802L169.81 1.32215C169.504 0.610877 168.496 0.610877 168.189 1.32215L163.815 11.4803L152.802 12.5016C152.031 12.5731 151.719 13.5322 152.301 14.0433L160.61 21.3428L158.179 32.1322C158.008 32.8876 158.824 33.4804 159.49 33.085L169 27.4382L178.51 33.085C179.176 33.4804 179.992 32.8876 179.821 32.1322L177.39 21.3428L185.699 14.0433C186.281 13.5322 185.969 12.5731 185.198 12.5016Z" fill="#FFDC64"/>
<path d="M185.198 12.5016L174.185 11.4802L169.81 1.32215C169.504 0.610877 168.496 0.610877 168.189 1.32215L163.815 11.4803L152.802 12.5016C152.031 12.5731 151.719 13.5322 152.301 14.0433L160.61 21.3428L158.179 32.1322C158.008 32.8876 158.824 33.4804 159.49 33.085L169 27.4382L178.51 33.085C179.176 33.4804 179.992 32.8876 179.821 32.1322L177.39 21.3428L185.699 14.0433C186.28 13.5322 185.969 12.5731 185.198 12.5016Z" fill="#FFDC64"/>
<path d="M185.198 12.5016L174.185 11.4802L169.81 1.32215C169.504 0.610877 168.496 0.610877 168.189 1.32215L163.815 11.4803L152.802 12.5016C152.031 12.5731 151.719 13.5322 152.301 14.0433L160.61 21.3428L158.179 32.1322C158.008 32.8876 158.824 33.4804 159.49 33.085L169 27.4382L178.51 33.085C179.176 33.4804 179.992 32.8876 179.821 32.1322L177.39 21.3428L185.699 14.0433C186.28 13.5322 185.969 12.5731 185.198 12.5016Z" fill="#FFDC64"/>
<path d="M185.198 12.5016L174.185 11.4802L169.81 1.32215C169.504 0.610877 168.496 0.610877 168.189 1.32215L163.815 11.4803L152.802 12.5016C152.031 12.5731 151.719 13.5322 152.301 14.0433L160.61 21.3428L158.179 32.1322C158.008 32.8876 158.824 33.4804 159.49 33.085L169 27.4382L178.51 33.085C179.176 33.4804 179.992 32.8876 179.821 32.1322L177.39 21.3428L185.699 14.0433C186.28 13.5322 185.969 12.5731 185.198 12.5016Z" fill="#FFDC64"/>
<path d="M185.198 12.5016L174.185 11.4802L169.81 1.32215C169.504 0.610877 168.496 0.610877 168.189 1.32215L163.815 11.4803L152.802 12.5016C152.031 12.5731 151.719 13.5322 152.301 14.0433L160.61 21.3428L158.179 32.1322C158.008 32.8876 158.824 33.4804 159.49 33.085L169 27.4382L178.51 33.085C179.176 33.4804 179.992 32.8876 179.821 32.1322L177.39 21.3428L185.699 14.0433C186.28 13.5322 185.969 12.5731 185.198 12.5016Z" fill="#FFDC64"/>
<path d="M185.198 12.5016L174.185 11.4802L169.81 1.32215C169.504 0.610877 168.496 0.610877 168.189 1.32215L163.815 11.4803L152.802 12.5016C152.031 12.5731 151.719 13.5322 152.301 14.0433L160.61 21.3428L158.179 32.1322C158.008 32.8876 158.824 33.4804 159.49 33.085L169 27.4382L178.51 33.085C179.176 33.4804 179.992 32.8876 179.821 32.1322L177.39 21.3428L185.699 14.0433C186.28 13.5322 185.969 12.5731 185.198 12.5016Z" fill="#FFDC64"/>
<path d="M169.81 1.32215C169.504 0.610877 168.496 0.610877 168.189 1.32215L163.815 11.4803L152.802 12.5016C152.031 12.5731 151.719 13.5322 152.301 14.0433L160.61 21.3428L158.179 32.1322C158.008 32.8876 158.824 33.4804 159.49 33.085L161.613 31.8247C161.906 19.7321 167.525 11.2163 171.974 6.34485L169.81 1.32215Z" fill="#FFC850"/>
</g>
<defs>
<clipPath id="clip0_9_61">
<rect width="34" height="34" fill="white"/>
</clipPath>
<clipPath id="clip1_9_61">
<rect width="34" height="34" fill="white" transform="translate(38)"/>
</clipPath>
<clipPath id="clip2_9_61">
<rect width="34" height="34" fill="white" transform="translate(76)"/>
</clipPath>
<clipPath id="clip3_9_61">
<rect width="34" height="34" fill="white" transform="translate(114)"/>
</clipPath>
<clipPath id="clip4_9_61">
<rect width="34" height="34" fill="white" transform="translate(152)"/>
</clipPath>
</defs>
</svg>
