<svg xmlns="http://www.w3.org/2000/svg" version="1.1" xmlns:xlink="http://www.w3.org/1999/xlink" xmlns:svgjs="http://svgjs.com/svgjs" width="512" height="512" x="0" y="0" viewBox="0 0 512 512" style="enable-background:new 0 0 512 512" xml:space="preserve" class=""><g><path fill="#44ffe8" d="M0 315.03C0 168.676 118.643 50.034 264.996 50.034H320V15.029c0-12.987 15.382-19.837 25.034-11.149l100 90c6.621 5.959 6.621 16.34 0 22.299l-100 90C335.382 214.867 320 208.016 320 195.03v-34.996h-51.157c-105.164 0-199.931 63.465-239.973 160.707C22.614 335.934 0 331.461 0 315.03z" data-original="#44ffe8" class=""></path><path fill="#00c6cb" d="M264.232 105.034c-129.006 0-237.313 96.807-251.969 224.738 6.391 1.192 13.508-1.502 16.608-9.031 40.042-97.242 134.809-160.707 239.973-160.707H320v34.996c0 12.987 15.382 19.837 25.034 11.149l100-90a14.94 14.94 0 0 0 4.965-11.145z" data-original="#00c6cb" class=""></path><path fill="#ffb942" d="M512 196.97c0 146.353-118.643 264.996-264.996 264.996H192v35.004c0 12.987-15.382 19.837-25.034 11.149l-100-90c-6.621-5.959-6.621-16.34 0-22.299l100-90c9.653-8.688 25.034-1.837 25.034 11.149v34.996h51.157c105.164 0 199.931-63.465 239.973-160.707 6.256-15.192 28.87-10.719 28.87 5.712z" data-original="#ff6c6c" class=""></path><path fill="#f28c28" d="M499.738 182.228c-14.657 127.931-122.964 224.738-251.969 224.738H62a14.94 14.94 0 0 0 4.965 11.153l100 90c9.653 8.688 25.034 1.837 25.034-11.149v-35.004h55.004C393.357 461.966 512 343.324 512 196.971c0-8.289-5.756-13.53-12.262-14.743z" data-original="#ff1f3e" class=""></path></g></svg>