<svg width="834" height="554" viewBox="0 0 834 554" fill="none" xmlns="http://www.w3.org/2000/svg">
<g clip-path="url(#clip0_19_51)">
<path d="M512.401 184.87C532.283 184.87 548.401 168.752 548.401 148.87C548.401 128.988 532.283 112.87 512.401 112.87C492.519 112.87 476.401 128.988 476.401 148.87C476.401 168.752 492.519 184.87 512.401 184.87Z" fill="#F2F2F2"/>
<path d="M298.401 112.87C314.97 112.87 328.401 99.4387 328.401 82.8701C328.401 66.3016 314.97 52.8701 298.401 52.8701C281.833 52.8701 268.401 66.3016 268.401 82.8701C268.401 99.4387 281.833 112.87 298.401 112.87Z" fill="#F2F2F2"/>
<path d="M200.401 396.87C216.97 396.87 230.401 383.439 230.401 366.87C230.401 350.302 216.97 336.87 200.401 336.87C183.833 336.87 170.401 350.302 170.401 366.87C170.401 383.439 183.833 396.87 200.401 396.87Z" fill="#F2F2F2"/>
<path d="M169.909 412.87C178.599 423.17 187.999 497.426 198.029 506.406L668.609 507.406C678.639 498.426 688.039 424.17 696.729 413.87L169.909 412.87Z" fill="#E6E6E6"/>
<path d="M316.599 325.646V428.206H388.449V325.646C388.451 324.131 387.466 322.793 386.019 322.346C385.687 322.236 385.339 322.182 384.989 322.186H320.069C318.156 322.182 316.603 323.73 316.599 325.642L316.599 325.646ZM344.639 360.886C344.678 356.65 348.144 353.247 352.38 353.287C356.56 353.325 359.94 356.705 359.979 360.886V372.786C359.959 377.022 356.508 380.439 352.272 380.419C348.065 380.399 344.659 376.993 344.639 372.786V360.886Z" fill="#3F3D56"/>
<path d="M203.569 171.126V358.386C203.573 363.355 207.6 367.382 212.569 367.386H490.069C495.038 367.382 499.065 363.355 499.069 358.386V171.126C499.057 166.162 495.033 162.142 490.069 162.136H212.569C207.605 162.142 203.581 166.162 203.569 171.126Z" fill="#3F3D56"/>
<path d="M210.079 173.456V356.076C210.083 358.73 212.234 360.881 214.889 360.886H487.759C490.413 360.881 492.564 358.73 492.569 356.076V173.456C492.569 170.798 490.417 168.642 487.759 168.636H214.889C212.231 168.642 210.079 170.798 210.079 173.456Z" fill="#F9A826"/>
<path d="M265.719 439.086C266.282 439.791 267.137 440.2 268.039 440.196H430.379C432.029 440.194 433.365 438.855 433.363 437.205C433.362 437 433.341 436.796 433.299 436.596L430.779 424.626C430.567 423.634 429.867 422.817 428.919 422.456C428.581 422.323 428.222 422.255 427.859 422.256H270.549C270.186 422.255 269.827 422.323 269.489 422.456C268.541 422.817 267.841 423.634 267.629 424.626L265.109 436.596C264.927 437.475 265.152 438.39 265.719 439.086Z" fill="#3F3D56"/>
<path d="M223.662 193.792H478.986C479.546 193.78 479.991 193.316 479.979 192.755C479.967 192.211 479.529 191.774 478.986 191.762H223.662C223.101 191.774 222.657 192.238 222.669 192.799C222.681 193.343 223.119 193.781 223.662 193.792Z" fill="#3F3D56"/>
<path d="M795.943 392.196C795.923 392.146 795.913 392.106 795.893 392.066C795.507 391.026 795.056 390.011 794.543 389.026C791.633 383.556 794.713 375.156 791.433 365.876C786.133 350.836 779.673 341.966 770.203 334.016C769.923 333.776 769.643 333.546 769.353 333.306L769.343 333.296C763.023 328.106 755.403 323.256 745.943 317.216C743.973 315.956 737.163 319.596 737.323 313.356C737.503 306.426 737.693 299.246 734.293 294.766L734.073 294.476L733.723 294.386C722.066 292.081 710.176 291.164 698.303 291.656H698.293C693.252 291.844 688.246 292.578 683.363 293.846C683.003 293.946 682.643 294.046 682.293 294.166C682.023 294.236 681.753 294.326 681.483 294.416L681.263 294.496L681.093 294.656C677.803 297.946 677.043 303.846 676.683 309.996V310.006C676.613 311.126 676.553 312.246 676.503 313.366C676.223 319.346 661.793 324.176 656.293 326.886C645.963 331.986 647.521 343.87 647.401 343.87C647.401 343.87 630.033 379.526 629.823 415.636C629.813 417.646 629.8 419.666 629.783 421.696C629.663 438.516 629.343 455.626 628.083 471.216C627.533 477.916 626.823 484.326 625.873 490.316C621.253 519.486 600.323 495.266 590.313 514.676C590.642 516.585 591.196 518.448 591.963 520.226C593.113 520.906 594.293 521.566 595.463 522.226C600.653 525.116 605.94 527.813 611.323 530.316C611.623 530.456 611.923 530.596 612.223 530.726C622.097 535.295 632.275 539.178 642.683 542.346C644.713 542.966 646.743 543.556 648.793 544.116C666.927 549.122 685.599 551.919 704.403 552.446C704.479 552.438 704.556 552.434 704.633 552.436C726.872 551.821 748.965 548.637 770.473 542.946C770.773 542.866 771.073 542.786 771.373 542.706C772.783 542.326 774.183 541.946 775.583 541.546C787.961 538.024 800.088 533.675 811.883 528.526C811.895 528.966 811.939 529.403 812.013 529.836C812.023 529.978 812.043 530.118 812.073 530.256C812.093 530.096 812.113 529.936 812.123 529.776C812.183 529.306 812.233 528.826 812.283 528.346C818.403 468.666 805.693 417.996 795.943 392.196Z" fill="#CCCCCC"/>
<path d="M707.419 286.474C739.49 286.474 765.49 260.475 765.49 228.403C765.49 196.332 739.49 170.333 707.419 170.333C675.347 170.333 649.348 196.332 649.348 228.403C649.348 260.475 675.347 286.474 707.419 286.474Z" fill="#FFB6B6"/>
<path d="M711.718 287.52C720.571 285.938 729.274 283.603 737.73 280.539C746.032 277.097 762.612 259.157 766.342 249.579C769.113 242.462 769.747 232.068 769.791 224.602C769.977 204.61 761.678 185.475 746.954 171.95C744.104 169.114 740.54 167.102 736.641 166.125C736.3 166.063 735.952 166.017 735.604 165.987C730.13 165.631 724.886 163.647 720.547 160.29C719.699 159.605 718.803 158.982 717.866 158.426C713.193 155.822 707.971 154.36 702.626 154.16C693.943 153.559 682.427 158.078 668.4 167.597C661.353 172.38 652.714 172.829 645.973 172.686C645.207 172.687 644.5 173.094 644.114 173.756C641.866 176.876 638.52 179.028 634.749 179.782C632.457 180.333 630.656 184.007 628.537 188.752C628.057 189.829 627.496 191.086 627.067 191.867L626.74 190.59L625.713 192.286C620.431 201.011 623.222 212.367 631.947 217.65C634.292 219.07 636.924 219.949 639.651 220.226C642.097 220.391 644.553 220.307 646.982 219.974C648.463 219.821 649.994 219.663 651.486 219.633C661.279 219.727 670.304 224.959 675.251 233.412C677.307 236.868 681.776 238.003 685.232 235.947C685.775 235.624 686.273 235.232 686.715 234.78C689.302 231.811 693.179 230.296 697.094 230.725C698.836 231.293 700.329 232.442 701.325 233.98C702.501 235.681 704.157 236.992 706.082 237.748C712.529 239.627 715.54 252.929 715.609 264.494C715.675 275.641 713.181 284.2 709.544 285.308C706.744 286.16 706.456 286.427 706.348 286.972L706.251 287.461L706.655 287.821C708.344 288.086 710.072 287.983 711.718 287.52Z" fill="#2F2E41"/>
<path d="M506.191 467.056C517.31 467.056 526.323 464.179 526.323 460.631C526.323 457.082 517.31 454.206 506.191 454.206C495.072 454.206 486.059 457.082 486.059 460.631C486.059 464.179 495.072 467.056 506.191 467.056Z" fill="#3F3D56"/>
<path d="M506.191 462.773C517.31 462.773 526.323 459.896 526.323 456.348C526.323 452.799 517.31 449.922 506.191 449.922C495.072 449.922 486.059 452.799 486.059 456.348C486.059 459.896 495.072 462.773 506.191 462.773Z" fill="#3F3D56"/>
<path d="M502.651 460.653L505.651 460.608L504.824 404.59C504.579 385.989 514.241 368.66 530.193 359.09L587.452 324.864L585.913 322.289L528.654 356.516C511.783 366.636 501.565 384.963 501.824 404.635L502.651 460.653Z" fill="#3F3D56"/>
<path d="M585.966 350.117C581.944 350.117 578.684 346.857 578.684 342.835V297.43C578.684 293.409 581.944 290.148 585.966 290.148C589.987 290.148 593.248 293.409 593.248 297.43V342.835C593.248 346.857 589.987 350.117 585.966 350.117Z" fill="#F9A826"/>
<path d="M490.737 384.553C493.26 393.782 502.787 399.218 512.016 396.695C513 396.426 513.959 396.071 514.88 395.633L558.063 439.512L564.745 408.226L522.713 371.354C518.021 362.956 507.409 359.953 499.012 364.645C491.985 368.572 488.564 376.802 490.737 384.553Z" fill="#FFB6B6"/>
<path d="M716.301 338.735L716.027 338.582L684.54 327.754C676.454 324.973 667.563 325.799 660.127 330.022C658.42 330.987 656.815 332.122 655.336 333.409L655.326 333.411C650.392 337.673 646.992 343.436 645.647 349.816L629.109 428.333L595.857 410.413L582.307 407.177L569.973 394.799L539.172 382.258L537.463 384.299L521.965 402.823L520.747 404.279L554.872 453.649L570.169 455.314L574.454 462.937L574.756 463.075L587.296 468.727L640.778 492.823L666.677 473.002L670.729 469.891C704.235 438.848 719.898 413.877 726.437 394.857C729.898 384.811 730.81 376.439 730.467 369.69C729.402 348.833 716.833 339.135 716.301 338.735Z" fill="#CCCCCC"/>
<path d="M745.901 357.87H730.901C687.547 357.87 652.401 393.016 652.401 436.37C638.408 453.674 639.265 475.403 652.401 500.79L609.406 482.865C603.283 480.328 596.263 483.235 593.726 489.358C591.197 495.462 594.078 502.462 600.17 505.017L652.401 526.792V530.846C652.401 543.562 662.709 553.87 675.425 553.87H801.377C814.093 553.87 824.401 543.562 824.401 530.846C833.739 496.589 839.583 463.366 824.401 436.37C824.401 393.016 789.255 357.87 745.901 357.87Z" fill="#3F3D56"/>
<path d="M386.401 291.87C388.61 291.87 390.401 290.079 390.401 287.87C390.401 285.661 388.61 283.87 386.401 283.87C384.192 283.87 382.401 285.661 382.401 287.87C382.401 290.079 384.192 291.87 386.401 291.87Z" fill="#F2F2F2"/>
<path d="M400.401 291.87C402.61 291.87 404.401 290.079 404.401 287.87C404.401 285.661 402.61 283.87 400.401 283.87C398.192 283.87 396.401 285.661 396.401 287.87C396.401 290.079 398.192 291.87 400.401 291.87Z" fill="#F2F2F2"/>
<path d="M414.401 291.87C416.61 291.87 418.401 290.079 418.401 287.87C418.401 285.661 416.61 283.87 414.401 283.87C412.192 283.87 410.401 285.661 410.401 287.87C410.401 290.079 412.192 291.87 414.401 291.87Z" fill="#F2F2F2"/>
<path d="M78.6716 407.59C77.6995 407.594 76.7299 407.686 75.7743 407.864L59.8727 307.198L75.8032 210.287C77.99 196.986 68.9797 184.43 55.6781 182.243C43.6742 180.269 32.0495 187.436 28.4211 199.048C22.4492 218.157 19.494 238.082 19.6621 258.102L20.2177 324.193L62.6099 425.695C63.6721 434.568 71.7263 440.9 80.5994 439.838C89.4726 438.775 95.8047 430.721 94.7425 421.848C93.7685 413.712 86.866 407.588 78.6716 407.59Z" fill="#FFB8B8"/>
<path d="M49.5489 175.81C28.3611 175.845 11.194 193.012 11.1589 214.2L18.9589 293L19.6589 300.06L20.0189 300.08L47.4089 301.44H47.4189L60.7089 302.1L62.9889 302.21L65.5989 293L87.9389 214.2C87.9162 193.007 70.7418 175.833 49.5489 175.81Z" fill="#E6E6E6"/>
<path d="M50.7288 554L38.1288 515.34C38.1288 515.34 15.0288 491.85 44.6588 429.49C45.3088 428.11 45.9888 426.72 46.6988 425.3C47.9388 422.81 49.2655 420.256 50.6788 417.64C52.8188 413.84 54.9888 409.91 57.4388 405.85L59.6788 406.25L61.7988 406.62L69.0488 407.9H69.0588L174.049 426.4C174.049 426.4 172.119 435.02 171.079 444.27C170.249 451.86 169.979 459.54 171.939 462.79C176.179 470.05 170.449 489.67 170.449 489.67C170.449 489.67 170.769 491.57 171.309 494.93V494.94C171.839 498.21 172.579 502.85 173.419 508.47C173.459 508.85 173.509 509.23 173.569 509.61C174.899 518.71 176.489 530.2 177.909 542.55C178.349 546.3 178.769 550.13 179.169 554L50.7288 554Z" fill="#2F2E41"/>
<path d="M20.8034 196.193C23.4399 188.922 29.5995 183.495 37.1449 181.796C42.6484 180.231 48.3763 179.605 54.0879 179.944C70.808 180.603 66.5921 143.144 83.1483 145.57C83.1483 145.57 98.7313 140.008 110.924 150.199C122 159.457 129.636 184.635 132.479 183.203C133.083 182.904 134.534 182.936 136.564 183.205C160.287 186.354 177.359 207.635 175.949 231.525L174.744 251.947C174.744 251.947 183.262 264.77 170.901 287.407L155.329 357C155.329 357 194.29 434.168 176.329 450C158.368 465.832 87.945 441.146 87.945 441.146C87.945 441.146 48.4534 428.938 40.1245 423.647C22.5313 412.47 45.017 386.985 58.9194 388.187C59.6672 385.222 58.6826 382.089 56.3734 380.086C52.531 377.632 56.8362 372.077 57.1603 371.568C56.7898 371.938 53.8734 374.993 51.6514 368.558C49.4295 362.124 56.2807 354.022 56.2807 354.022L36.9304 312.359L21.7002 279.445L19.8483 275.649L23.0252 255.17L22.7279 254.555C15.9585 240.441 14.4603 224.372 18.5041 209.251C19.9711 203.69 21.0269 198.623 20.8034 196.193Z" fill="#E6E6E6"/>
<path d="M179.169 554H172.489C174.339 550.03 176.169 546.18 177.909 542.55C178.349 546.3 178.769 550.13 179.169 554Z" fill="#2F2E41"/>
<path d="M310.29 321.054C309.699 321.825 309.177 322.648 308.733 323.512L219.403 274.455L152.531 202.527C143.352 192.655 127.908 192.092 118.035 201.271C109.126 209.554 107.676 223.133 114.635 233.11C126.089 249.531 140.033 264.066 155.966 276.191L208.562 316.214L314.772 344.838C322.438 349.43 332.375 346.939 336.968 339.272C341.561 331.606 339.069 321.669 331.403 317.076C324.373 312.865 315.305 314.573 310.29 321.054Z" fill="#FFB8B8"/>
<path d="M189.374 301.609L215.893 270.676L217.37 268.947L163.052 195.336C160.704 193.508 158.147 191.966 155.434 190.744L155.427 190.737C136.129 181.965 113.373 190.499 104.602 209.798C97.2382 225.998 101.976 245.136 116.047 256.03L131.9 265.971L189.137 301.881L189.374 301.609Z" fill="#E6E6E6"/>
<path d="M141.779 111.91C128.24 136.668 97.1933 145.762 72.4351 132.223C47.6768 118.683 38.5823 87.6367 52.1218 62.8784C65.6614 38.1202 96.7079 29.0257 121.466 42.5652C131.866 48.2526 139.965 57.3788 144.376 68.3809C144.609 68.9656 144.82 69.5504 145.03 70.1585C149.971 83.8996 148.787 99.0988 141.779 111.91Z" fill="#FFB6B6"/>
<path d="M149.124 70.1585C146.925 64.007 147.884 67.2114 145.662 61.0832C147.112 66.5097 144.82 69.5504 145.031 70.1585H84.1934V34.793C102.017 27.7292 119.442 21.718 129.967 34.793C149.499 34.7939 165.332 50.6271 165.333 70.1586L149.124 70.1585Z" fill="#2F2E41"/>
<path d="M127.558 168.466C127.512 167.811 127.441 167.133 127.348 166.478C126.53 161.673 125.205 156.969 123.395 152.444C121.641 147.509 119.863 142.55 118.085 137.615C120.375 146.573 119.676 156.034 116.097 164.56C105.829 156.561 112.308 138.27 98.8822 138.27C66.6041 138.27 33.3904 112.096 33.3904 79.7949C33.3904 47.5167 47.2372 23.3784 79.5153 23.3784C111.817 23.3784 138.014 38.1607 138.645 70.4389C98.8822 79.795 135.066 165.192 127.558 168.466Z" fill="#2F2E41"/>
<path d="M37.4239 74.8478C58.0925 74.8478 74.8478 58.0925 74.8478 37.4239C74.8478 16.7552 58.0925 0 37.4239 0C16.7552 0 0 16.7552 0 37.4239C0 58.0925 16.7552 74.8478 37.4239 74.8478Z" fill="#2F2E41"/>
<path d="M234.723 184.923C237.218 184.923 239.241 182.855 239.241 180.304C239.241 177.753 237.218 175.685 234.723 175.685C232.227 175.685 230.205 177.753 230.205 180.304C230.205 182.855 232.227 184.923 234.723 184.923Z" fill="#3F3D56"/>
<path d="M250.331 184.923C252.826 184.923 254.849 182.855 254.849 180.304C254.849 177.753 252.826 175.685 250.331 175.685C247.835 175.685 245.812 177.753 245.812 180.304C245.812 182.855 247.835 184.923 250.331 184.923Z" fill="#3F3D56"/>
<path d="M265.938 184.923C268.434 184.923 270.457 182.855 270.457 180.304C270.457 177.753 268.434 175.685 265.938 175.685C263.443 175.685 261.42 177.753 261.42 180.304C261.42 182.855 263.443 184.923 265.938 184.923Z" fill="#3F3D56"/>
<path d="M283.735 183.955C283.597 183.955 283.458 183.901 283.354 183.794L280.305 180.677C280.102 180.47 280.102 180.138 280.305 179.93L283.354 176.814C283.56 176.603 283.899 176.6 284.109 176.806C284.32 177.012 284.324 177.351 284.117 177.561L281.434 180.304L284.117 183.047C284.324 183.257 284.32 183.596 284.109 183.802C284.005 183.904 283.87 183.955 283.735 183.955Z" fill="#3F3D56"/>
<path d="M288.858 183.954C288.723 183.954 288.589 183.904 288.485 183.802C288.274 183.596 288.27 183.258 288.476 183.047L291.159 180.304L288.476 177.561C288.27 177.35 288.274 177.012 288.485 176.806C288.695 176.599 289.034 176.603 289.24 176.814L292.288 179.93C292.492 180.138 292.492 180.47 292.288 180.677L289.24 183.794C289.136 183.901 288.997 183.954 288.858 183.954Z" fill="#3F3D56"/>
<path d="M458.311 176.22H452.642C451.996 176.22 451.472 176.743 451.472 177.39V183.064C451.472 183.71 451.996 184.234 452.642 184.234H458.311C458.957 184.234 459.486 183.71 459.486 183.064V177.39C459.486 176.743 458.957 176.22 458.311 176.22Z" fill="#3F3D56"/>
<path d="M444.42 176.22H438.752C438.105 176.22 437.582 176.743 437.582 177.39V183.064C437.582 183.71 438.105 184.234 438.752 184.234H444.42C445.067 184.234 445.596 183.71 445.596 183.064V177.39C445.596 176.743 445.067 176.22 444.42 176.22Z" fill="#3F3D56"/>
<path d="M471.4 176.487H465.732C465.085 176.487 464.562 177.01 464.562 177.657V183.331C464.562 183.977 465.085 184.501 465.732 184.501H471.4C472.047 184.501 472.576 183.977 472.576 183.331V177.657C472.576 177.01 472.047 176.487 471.4 176.487Z" fill="#3F3D56"/>
<path d="M377.221 178.646H327.295C326.504 178.646 325.868 179.287 325.868 180.072C325.868 180.857 326.504 181.499 327.295 181.499H377.221C378.007 181.499 378.648 180.857 378.648 180.072C378.648 179.287 378.007 178.646 377.221 178.646Z" fill="#3F3D56"/>
<path d="M247.523 288V258.909H257.352C259.634 258.909 261.5 259.321 262.949 260.145C264.407 260.959 265.487 262.062 266.188 263.455C266.888 264.847 267.239 266.4 267.239 268.114C267.239 269.828 266.888 271.385 266.188 272.787C265.496 274.188 264.426 275.306 262.977 276.139C261.528 276.963 259.672 277.375 257.409 277.375H250.364V274.25H257.295C258.858 274.25 260.113 273.98 261.06 273.44C262.007 272.901 262.693 272.171 263.119 271.253C263.555 270.325 263.773 269.278 263.773 268.114C263.773 266.949 263.555 265.907 263.119 264.989C262.693 264.07 262.002 263.35 261.045 262.83C260.089 262.299 258.82 262.034 257.239 262.034H251.045V288H247.523ZM272.913 288V258.909H282.743C285.016 258.909 286.881 259.297 288.339 260.074C289.798 260.841 290.877 261.897 291.578 263.241C292.279 264.586 292.629 266.116 292.629 267.83C292.629 269.544 292.279 271.063 291.578 272.389C290.877 273.715 289.803 274.757 288.354 275.514C286.905 276.262 285.054 276.636 282.8 276.636H274.845V273.455H282.686C284.239 273.455 285.489 273.227 286.436 272.773C287.393 272.318 288.084 271.674 288.51 270.841C288.946 269.998 289.163 268.994 289.163 267.83C289.163 266.665 288.946 265.647 288.51 264.776C288.074 263.904 287.378 263.232 286.422 262.759C285.465 262.276 284.201 262.034 282.629 262.034H276.436V288H272.913ZM286.607 274.932L293.766 288H289.675L282.629 274.932H286.607ZM298.499 288V258.909H316.056V262.034H302.022V271.864H315.147V274.989H302.022V284.875H316.283V288H298.499ZM338.315 266.182C338.144 264.742 337.453 263.625 336.241 262.83C335.029 262.034 333.542 261.636 331.781 261.636C330.493 261.636 329.366 261.845 328.4 262.261C327.443 262.678 326.695 263.251 326.156 263.98C325.625 264.709 325.36 265.538 325.36 266.466C325.36 267.242 325.545 267.91 325.914 268.469C326.293 269.018 326.776 269.477 327.363 269.847C327.95 270.206 328.566 270.505 329.21 270.741C329.853 270.969 330.445 271.153 330.985 271.295L333.94 272.091C334.697 272.29 335.54 272.564 336.468 272.915C337.406 273.265 338.3 273.743 339.153 274.349C340.014 274.946 340.725 275.713 341.283 276.651C341.842 277.588 342.121 278.739 342.121 280.102C342.121 281.674 341.71 283.095 340.886 284.364C340.071 285.633 338.878 286.641 337.306 287.389C335.744 288.137 333.845 288.511 331.61 288.511C329.527 288.511 327.723 288.175 326.198 287.503C324.683 286.83 323.49 285.893 322.619 284.69C321.757 283.488 321.269 282.091 321.156 280.5H324.792C324.887 281.598 325.256 282.508 325.9 283.227C326.553 283.937 327.377 284.468 328.371 284.818C329.375 285.159 330.455 285.33 331.61 285.33C332.955 285.33 334.162 285.112 335.232 284.676C336.302 284.231 337.15 283.616 337.775 282.83C338.4 282.034 338.712 281.106 338.712 280.045C338.712 279.08 338.442 278.294 337.903 277.688C337.363 277.081 336.653 276.589 335.772 276.21C334.891 275.831 333.94 275.5 332.917 275.216L329.337 274.193C327.065 273.54 325.265 272.607 323.94 271.395C322.614 270.183 321.951 268.597 321.951 266.636C321.951 265.008 322.391 263.587 323.272 262.375C324.162 261.153 325.355 260.206 326.852 259.534C328.357 258.852 330.038 258.511 331.894 258.511C333.769 258.511 335.436 258.848 336.894 259.52C338.353 260.183 339.508 261.092 340.36 262.247C341.222 263.402 341.676 264.714 341.724 266.182H338.315ZM363.822 266.182C363.652 264.742 362.961 263.625 361.749 262.83C360.536 262.034 359.05 261.636 357.288 261.636C356 261.636 354.874 261.845 353.908 262.261C352.951 262.678 352.203 263.251 351.663 263.98C351.133 264.709 350.868 265.538 350.868 266.466C350.868 267.242 351.053 267.91 351.422 268.469C351.801 269.018 352.284 269.477 352.871 269.847C353.458 270.206 354.073 270.505 354.717 270.741C355.361 270.969 355.953 271.153 356.493 271.295L359.447 272.091C360.205 272.29 361.048 272.564 361.976 272.915C362.913 273.265 363.808 273.743 364.661 274.349C365.522 274.946 366.232 275.713 366.791 276.651C367.35 277.588 367.629 278.739 367.629 280.102C367.629 281.674 367.217 283.095 366.393 284.364C365.579 285.633 364.386 286.641 362.814 287.389C361.251 288.137 359.353 288.511 357.118 288.511C355.035 288.511 353.231 288.175 351.706 287.503C350.191 286.83 348.998 285.893 348.126 284.69C347.265 283.488 346.777 282.091 346.663 280.5H350.3C350.394 281.598 350.764 282.508 351.408 283.227C352.061 283.937 352.885 284.468 353.879 284.818C354.883 285.159 355.963 285.33 357.118 285.33C358.463 285.33 359.67 285.112 360.74 284.676C361.81 284.231 362.658 283.616 363.283 282.83C363.908 282.034 364.22 281.106 364.22 280.045C364.22 279.08 363.95 278.294 363.411 277.688C362.871 277.081 362.161 276.589 361.28 276.21C360.399 275.831 359.447 275.5 358.425 275.216L354.845 274.193C352.572 273.54 350.773 272.607 349.447 271.395C348.122 270.183 347.459 268.597 347.459 266.636C347.459 265.008 347.899 263.587 348.78 262.375C349.67 261.153 350.863 260.206 352.359 259.534C353.865 258.852 355.546 258.511 357.402 258.511C359.277 258.511 360.944 258.848 362.402 259.52C363.86 260.183 365.016 261.092 365.868 262.247C366.73 263.402 367.184 264.714 367.232 266.182H363.822Z" fill="white"/>
</g>
<defs>
<clipPath id="clip0_19_51">
<rect width="833.723" height="554" fill="white"/>
</clipPath>
</defs>
</svg>
