<svg xmlns="http://www.w3.org/2000/svg" version="1.1" xmlns:xlink="http://www.w3.org/1999/xlink" xmlns:svgjs="http://svgjs.com/svgjs" width="512" height="512" x="0" y="0" viewBox="0 0 512 512" style="enable-background:new 0 0 512 512" xml:space="preserve" class=""><g><path fill="#00b93a" d="M256 512c-18.522 0-36.302-7.879-48.779-21.616-6.589-7.313-16.82-10.055-26.104-7.03-17.724 5.688-37.063 3.615-53.119-5.658-16.03-9.25-27.51-24.952-31.49-43.078l-.031-.146c-1.995-9.536-9.43-16.995-18.94-19.002-18.228-3.947-33.957-15.41-43.231-31.467-1.745-2.983-3.328-6.336-4.797-10.179a15 15 0 0 1 14.01-20.357h424.963a14.997 14.997 0 0 1 14.01 20.357c-1.469 3.843-3.052 7.195-4.838 10.249-9.23 15.979-24.956 27.445-43.104 31.386-9.597 2.025-17.069 9.51-19.123 19.087-3.873 18.129-15.33 33.862-31.431 43.152-16.042 9.267-35.376 11.341-53.039 5.688-9.367-3.06-19.592-.317-26.135 6.949C292.302 504.121 274.522 512 256 512z" data-original="#aae745" class=""></path><path fill="#21ca56" d="M304.823 490.336c6.543-7.267 16.769-10.009 26.135-6.949 17.662 5.652 36.996 3.578 53.039-5.688 16.101-9.29 27.558-25.023 31.431-43.152 2.054-9.577 9.526-17.062 19.123-19.087 18.148-3.94 33.874-15.406 43.104-31.386 1.786-3.054 3.369-6.406 4.838-10.249a15 15 0 0 0-14.01-20.357H256V512c18.522 0 36.302-7.879 48.823-21.664z" data-original="#1fd879" class=""></path><path fill="#00b93a" d="M468.481 158.533H43.519a15 15 0 0 1-14.016-20.344c1.461-3.834 3.039-7.179 4.82-10.223 9.275-16.045 24.996-27.499 43.135-31.428a24.571 24.571 0 0 0 19.05-19.164c3.979-18.126 15.459-33.828 31.496-43.081 16.048-9.272 35.386-11.343 53.047-5.678 9.354 3.051 19.58.312 26.126-6.96C219.705 7.874 237.482 0 256 0s36.295 7.874 48.775 21.604c6.591 7.319 16.816 10.057 26.102 7.028 17.742-5.68 37.076-3.606 53.126 5.666 16.094 9.286 27.551 25.02 31.426 43.16 2.05 9.565 9.522 17.05 19.034 19.057 18.224 3.957 33.941 15.414 43.213 31.452 1.781 3.044 3.358 6.389 4.82 10.223a14.999 14.999 0 0 1-14.015 20.343z" data-original="#aae745" class=""></path><path fill="#21ca56" d="M480.833 152.043a15 15 0 0 0 1.664-13.854c-1.461-3.834-3.039-7.179-4.82-10.223-9.272-16.038-24.989-27.495-43.213-31.452-9.512-2.007-16.984-9.491-19.034-19.057-3.875-18.141-15.332-33.874-31.426-43.16-16.05-9.272-35.385-11.346-53.126-5.666-9.286 3.028-19.511.291-26.102-7.028C292.295 7.874 274.518 0 256 0v158.533h212.481c4.935 0 9.553-2.427 12.352-6.49z" data-original="#1fd879" class=""></path><path fill="#21ca56" d="M497 383.467H15c-8.284 0-15-6.716-15-15V143.533c0-8.284 6.716-15 15-15h482c8.284 0 15 6.716 15 15v224.934c0 8.284-6.716 15-15 15z" data-original="#1fd879" class=""></path><path fill="#00b93a" d="M512 368.467V143.533c0-8.284-6.716-15-15-15H256v254.934h241c8.284 0 15-6.716 15-15z" data-original="#00b9a0" class=""></path><path fill="#d8f1fb" d="M336.333 192.8c-25.443 0-47.133 20.502-47.133 47.134V304.2c0 8.284 6.716 15 15 15s15-6.716 15-15v-17.134h34.267V304.2c0 8.284 6.716 15 15 15s15-6.716 15-15v-64.267c0-26.631-21.695-47.133-47.134-47.133zm17.134 64.266H319.2v-17.133c0-9.617 7.781-17.134 17.133-17.134 9.35 0 17.133 7.517 17.133 17.134v17.133z" data-original="#d8f1fb" class=""></path><g fill="#f0f5ff"><path d="M256 192.8c-8.284 0-15 6.716-15 15v96.4c0 8.284 6.716 15 15 15s15-6.716 15-15v-96.4c0-8.284-6.716-15-15-15zM111.4 192.8H71.233c-8.284 0-15 6.716-15 15s6.716 15 15 15h5.083v81.4c0 8.284 6.716 15 15 15s15-6.716 15-15v-81.4h5.083c8.284 0 15-6.716 15-15s-6.715-15-14.999-15zM222.8 239.934c0-25.989-21.144-47.134-47.133-47.134h-24.1c-8.284 0-15 6.716-15 15v96.4c0 8.284 6.716 15 15 15s15-6.716 15-15v-17.134h2.887l27.74 27.74c5.858 5.859 15.355 5.857 21.213 0s5.858-15.355 0-21.213l-15.343-15.344C215 269.69 222.8 255.71 222.8 239.934zm-47.133 17.132h-9.1V222.8h9.1c9.447 0 17.133 7.687 17.133 17.134s-7.686 17.132-17.133 17.132z" fill="#f0f5ff" data-original="#f0f5ff" class=""></path></g><path fill="#d8f1fb" d="M440.767 289.2h-9.1v-81.4c0-8.284-6.716-15-15-15s-15 6.716-15 15v96.4c0 8.284 6.716 15 15 15h24.1c8.284 0 15-6.716 15-15s-6.716-15-15-15zM271 304.2v-96.4c0-8.284-6.716-15-15-15v126.4c8.284 0 15-6.716 15-15z" data-original="#d8f1fb" class=""></path></g></svg>