<svg height="512" viewBox="0 0 512 512" width="512" xmlns="http://www.w3.org/2000/svg"><g><g><path d="m16 56h480v240h-480z" fill="#83d8f4"/><path d="m16 296h480v48h-480z" fill="#3e3d42"/><path d="m240 344h32v32h-32z" fill="#d8d7da"/><g><rect fill="#787680" height="272" rx="12" width="128" x="336" y="184"/><circle cx="400" cy="248" fill="#d8d7da" r="40"/><g fill="#3e3d42"><circle cx="400" cy="248" r="16"/><path d="m360 312h24v24h-24z"/><path d="m416 312h24v24h-24z"/><path d="m360 360h24v24h-24z"/><path d="m416 360h24v24h-24z"/><path d="m360 408h24v24h-24z"/><path d="m416 408h24v24h-24z"/></g></g></g><g><path d="m496 48h-480a8 8 0 0 0 -8 8v288a8 8 0 0 0 8 8h216v16h-72a8 8 0 0 0 0 16h168v60a20.02 20.02 0 0 0 20 20h104a20.02 20.02 0 0 0 20-20v-92h24a8 8 0 0 0 8-8v-288a8 8 0 0 0 -8-8zm-232 320h-16v-16h16zm64 0h-48v-16h48zm0-32h-304v-32h304zm128 108a4 4 0 0 1 -4 4h-104a4 4 0 0 1 -4-4v-248a4 4 0 0 1 4-4h104a4 4 0 0 1 4 4zm32-108h-16v-32h16zm0-48h-16v-92a20.02 20.02 0 0 0 -20-20h-104a20.02 20.02 0 0 0 -20 20v92h-304v-224h464z"/><path d="m272 328a8 8 0 0 0 0-16h-32a8 8 0 0 0 0 16z"/><path d="m400 224a24 24 0 1 0 24 24 24.028 24.028 0 0 0 -24-24zm0 32a8 8 0 1 1 8-8 8.009 8.009 0 0 1 -8 8z"/><path d="m384 304h-24a8 8 0 0 0 -8 8v24a8 8 0 0 0 8 8h24a8 8 0 0 0 8-8v-24a8 8 0 0 0 -8-8zm-8 24h-8v-8h8z"/><path d="m440 304h-24a8 8 0 0 0 -8 8v24a8 8 0 0 0 8 8h24a8 8 0 0 0 8-8v-24a8 8 0 0 0 -8-8zm-8 24h-8v-8h8z"/><path d="m384 352h-24a8 8 0 0 0 -8 8v24a8 8 0 0 0 8 8h24a8 8 0 0 0 8-8v-24a8 8 0 0 0 -8-8zm-8 24h-8v-8h8z"/><path d="m440 352h-24a8 8 0 0 0 -8 8v24a8 8 0 0 0 8 8h24a8 8 0 0 0 8-8v-24a8 8 0 0 0 -8-8zm-8 24h-8v-8h8z"/><path d="m384 400h-24a8 8 0 0 0 -8 8v24a8 8 0 0 0 8 8h24a8 8 0 0 0 8-8v-24a8 8 0 0 0 -8-8zm-8 24h-8v-8h8z"/><path d="m440 400h-24a8 8 0 0 0 -8 8v24a8 8 0 0 0 8 8h24a8 8 0 0 0 8-8v-24a8 8 0 0 0 -8-8zm-8 24h-8v-8h8z"/><path d="m400 200a48 48 0 1 0 48 48 48.053 48.053 0 0 0 -48-48zm0 80a32 32 0 1 1 32-32 32.036 32.036 0 0 1 -32 32z"/></g></g></svg>